<?xml version="1.0" encoding="UTF-8" standalone="no"?>
<svg
   version="1.1"
   style="display: block;"
   viewBox="0 0 2048 2048"
   width="1024"
   height="1024"
   id="svg64"
   sodipodi:docname="event.svg"
   inkscape:version="1.4.2 (2aeb623e1d, 2025-05-12)"
   xmlns:inkscape="http://www.inkscape.org/namespaces/inkscape"
   xmlns:sodipodi="http://sodipodi.sourceforge.net/DTD/sodipodi-0.dtd"
   xmlns="http://www.w3.org/2000/svg"
   xmlns:svg="http://www.w3.org/2000/svg">
  <defs
     id="defs64" />
  <sodipodi:namedview
     id="namedview64"
     pagecolor="#ffffff"
     bordercolor="#000000"
     borderopacity="0.25"
     inkscape:showpageshadow="2"
     inkscape:pageopacity="0.0"
     inkscape:pagecheckerboard="0"
     inkscape:deskcolor="#d1d1d1"
     inkscape:zoom="0.79199219"
     inkscape:cx="420.45869"
     inkscape:cy="512"
     inkscape:window-width="1848"
     inkscape:window-height="1016"
     inkscape:window-x="72"
     inkscape:window-y="27"
     inkscape:window-maximized="1"
     inkscape:current-layer="svg64" />
  <path
     fill="#000000"
     d="M 356.326,243.196 C 332.712,232.201 308.378,223.8 284.023,214.674 L 150.92,165.734 110.971,151.011 c -8.862,-3.184 -18.5526,-5.92 -26.8791,-10.271 -3.9867,-2.084 -6.5878,-3.809 -7.9297,-8.22 l 1.2034,-2.232 c 3.4854,-2.384 7.0202,-3.427 11.1857,-4.089 16.3507,-2.599 33.9297,-2.663 50.4777,-3.708 42.143,-2.445 84.314,-4.381 126.504,-5.807 137.354,-4.543 274.763,-7.279 412.189,-8.208 47.836,-0.177 95.672,0.256 143.497,1.297 67.836,0.918 135.666,2.204 203.491,3.857 190.53,5.786 381,13.399 571.38,22.839 87.57,3.843 175.43,7.13 262.81,13.959 22.45,1.754 45.6,1.296 67.88,4.295 4.22,0.568 7.72,1.207 11.09,3.9 0.8,2.702 0.75,3.243 0.11,6.003 -13.3,8.789 -261.15,55.055 -302.68,63.112 1.23,52.518 -2.65,105.524 -3.54,158.081 -2.44,145.225 -6.5,290.698 -4.77,435.944 0.93,48.498 2.25,96.988 3.96,145.465 0.47,13.112 2.24,26.278 2.37,39.382 0.03,3.24 0,7.08 -1.21,10.14 -1,2.53 -1.89,3.46 -4.27,4.66 -2.7,-0.02 -3.19,0.24 -5.29,-1.39 -5.12,-13.91 -5.27,-69.473 -5.94,-86.939 -8.91,-234.538 0.85,-469.354 5.39,-703.897 -17.81,-0.098 -35.53,-2.267 -53.38,-2.257 3.9,9.395 26.5,47.271 25.42,53.185 -0.88,4.734 -5.05,7.062 -8.63,9.71 -1.86,5.158 -3.83,13.302 -8.03,16.954 -1.8,1.563 -4.76,1.304 -7.09,1.309 -33.13,0.074 -66.39,-2.253 -99.53,-2.785 -33.56,-0.54 -68.33,1.037 -101.71,-2.183 -2.31,-2.064 -3.73,-4.322 -5.24,-7.029 -5.65,-10.143 -9.82,-21.508 -14.77,-32.044 -8.61,-18.294 -18.05,-36.551 -27.98,-54.162 -29.98,-2.083 -60.12,-3.415 -90.15,-4.622 -14.29,-0.575 -379.901,-13.834 -436.807,-15.269 -6.388,24.864 -9.426,51.462 -13.701,76.811 -1.785,10.579 -2.669,23.051 -6.961,32.851 -0.943,0.2 -1.886,0.41 -2.839,0.553 -9.89,1.484 -20.451,0.897 -30.427,0.915 l -50.548,-10e-4 c -38.132,-0.041 -78.067,1.502 -115.838,-0.064 -3.602,-0.15 -5.244,-0.052 -8.148,-2.155 -3.415,-10.109 5.836,-96.416 7.443,-113.007 -49.267,2.951 -98.876,2.229 -148.223,3.701 -18.038,0.538 -38.259,-0.653 -55.808,2.748 -0.156,36.877 1.155,73.862 1.891,110.739 1.351,63.735 2.032,127.483 2.042,191.233 -0.594,123.579 -4.432,247.399 -7.744,370.937 l -2.573,116.447 c -0.365,17.615 0.376,35.871 -1.071,53.401 -0.43,5.2 -1.311,10.11 -5.111,13.87 -2.388,0.41 -2.999,0.64 -5.053,-0.97 -5.554,-4.35 -4.046,-15.75 -3.901,-22.08 5.984,-260.975 16.198,-521.616 8.793,-782.724 z M 484.144,123.438 c -52.897,2.269 -105.97,2.091 -158.905,3.642 -69.916,2.572 -139.793,6.094 -209.612,10.564 45.29,19.483 93.069,34.047 139.13,51.791 33.882,12.518 68.039,25.131 101.433,38.891 -0.029,-12.345 -2.853,-37.789 1.885,-48.424 2.296,-1.432 3.784,-1.341 6.449,-1.534 21.421,-1.552 43.539,-0.85 65.089,-1.451 l 144.404,-4.172 c 1.758,-16.374 2.157,-32.926 4.235,-49.253 -31.214,-0.15 -62.958,-1.452 -94.108,-0.054 z m 322.388,-0.153 c -4.709,17.411 -7.309,35.316 -10.066,53.113 52.144,2.511 116.682,-51.829 97.841,-52.299 -29.167,-0.728 -58.615,-1.811 -87.775,-0.814 z M 1315,196.519 c -7.91,-20.055 -19.24,-38.984 -26.24,-59.323 -37.25,-2.484 -17.5,56.267 26.24,59.323 z m -12,-56.113 45,92.981 c 9.04,18.432 18.78,36.631 26.68,55.597 l 5,-7.813 6.76,-9.521 c -14,-26.449 -28.29,-52.744 -42.87,-78.881 -9.53,-17.064 -19.94,-34.036 -28.59,-51.542 z m 221.84,6.836 c 4.33,12.706 13.47,25.01 20.32,36.552 5.5,9.27 10.41,18.977 15.3,28.579 19.65,1.222 45.36,4.981 64.57,3.762 21.86,-1.388 44.38,-8.556 65.94,-12.862 23.41,-4.675 47.01,-8.487 70.44,-13.059 26.77,-5.221 53.37,-11.154 80.22,-15.948 14.63,-2.846 29.43,-5.398 43.76,-9.545 -75.29,-4.985 -150.64,-9.17 -226.02,-12.555 -28.65,-1.54 -57.32,-2.862 -85.99,-3.965 -16.05,-0.612 -32.51,-1.81 -48.54,-0.959 z M 577.702,273.807 c -0.516,4.729 -1.041,9.432 -1.274,14.187 27.919,3.009 57.812,1.06 85.935,1.097 33.363,0.044 68.301,2.005 101.492,-1.219 0.754,-4.667 1.109,-9.066 1.11,-13.794 z m 821.498,6.075 c -4.66,3.328 -8.23,6.635 -12.04,10.906 60.51,3.217 121.24,2.074 181.8,5.413 3.49,-3.653 6.04,-8.597 8.41,-13.05 -38.34,-1.895 -76.93,-1.647 -115.31,-2.089 -20.87,-0.24 -42.02,-1.785 -62.86,-1.18 z"
     id="path2"
     sodipodi:nodetypes="cccccccccccccccsccccccccccccccccccccccccccscccccscccccccccccccccccccccccccccccccccccccccccccccccccsccccccccc" />
  <path
     transform="translate(0,0)"
     fill="rgb(254,254,254)"
     d="M 115.627 137.644 C 185.446 133.174 255.323 129.652 325.239 127.08 C 378.174 125.529 431.247 125.707 484.144 123.438 C 515.294 122.04 547.038 123.342 578.252 123.492 C 576.174 139.819 575.775 156.371 574.017 172.745 L 429.613 176.917 C 408.063 177.518 385.945 176.816 364.524 178.368 C 361.859 178.561 360.371 178.47 358.075 179.902 C 353.337 190.537 356.161 215.981 356.19 228.326 C 322.796 214.566 288.639 201.953 254.757 189.435 C 208.696 171.691 160.917 157.127 115.627 137.644 z"
     id="path3" />
  <path
     fill="#fefefe"
     d="m 1076.9736,184.44023 c -2.584,1.308 -121.0816,-3.58623 -123.9476,-3.58923 -52.176,-1.735 -104.416,-1.942 -156.56,-4.453 2.757,-17.797 5.357,-35.702 10.066,-53.113 29.16,-0.997 58.608,0.086 87.775,0.814 18.841,0.47 164.2208,2.01595 182.9878,3.75695"
     id="path4"
     sodipodi:nodetypes="cccccc" />
  <path
     fill="#fefefe"
     d="m 1058.5909,126.88569 c 37.32,0.911 192.9191,7.82631 230.1691,10.31031 7,20.339 18.33,39.268 26.24,59.323 -43.74,-3.056 -208.715,-10.94078 -252.535,-11.91878"
     id="path5"
     sodipodi:nodetypes="cccc" />
  <path
     transform="translate(0,0)"
     fill="rgb(254,254,254)"
     d="M 1374.68 288.984 C 1366.78 270.018 1357.04 251.819 1348 233.387 L 1303 140.406 L 1314.98 141.227 C 1323.63 158.733 1334.04 175.705 1343.57 192.769 C 1358.15 218.906 1372.44 245.201 1386.44 271.65 L 1379.68 281.171 L 1374.68 288.984 z"
     id="path7" />
  <path
     transform="translate(0,0)"
     fill="rgb(254,254,254)"
     d="M 1560.46 212.373 C 1555.57 202.771 1550.66 193.064 1545.16 183.794 C 1538.31 172.252 1529.17 159.948 1524.84 147.242 C 1540.87 146.391 1557.33 147.589 1573.38 148.201 C 1602.05 149.304 1630.72 150.626 1659.37 152.166 C 1734.75 155.551 1810.1 159.736 1885.39 164.721 C 1871.06 168.868 1856.26 171.42 1841.63 174.266 C 1814.78 179.06 1788.18 184.993 1761.41 190.214 C 1737.98 194.786 1714.38 198.598 1690.97 203.273 C 1669.41 207.579 1646.89 214.747 1625.03 216.135 C 1605.82 217.354 1580.11 213.595 1560.46 212.373 z"
     id="path8" />
  <path
     transform="translate(0,0)"
     fill="rgb(254,254,254)"
     d="M 576.428 287.994 C 576.661 283.239 577.186 278.536 577.702 273.807 L 764.965 274.078 C 764.964 278.806 764.609 283.205 763.855 287.872 C 730.664 291.096 695.726 289.135 662.363 289.091 C 634.24 289.054 604.347 291.003 576.428 287.994 z"
     id="path10" />
  <path
     transform="translate(0,0)"
     fill="rgb(254,254,254)"
     d="M 1387.16 290.788 C 1390.97 286.517 1394.54 283.21 1399.2 279.882 C 1420.04 279.277 1441.19 280.822 1462.06 281.062 C 1500.44 281.504 1539.03 281.256 1577.37 283.151 C 1575 287.604 1572.45 292.548 1568.96 296.201 C 1508.4 292.862 1447.67 294.005 1387.16 290.788 z"
     id="path11" />
  <path
     transform="translate(0,0)"
     fill="rgb(0,0,0)"
     d="M 797.126 979.547 C 796.431 987.143 798.57 996.265 795.146 1003.2 C 792.877 1004.78 792.458 1005.25 789.745 1005.36 C 785.991 1003.11 784.798 996.799 783.582 992.9 C 779.283 991.893 774.402 994.149 769.971 994.294 C 760.426 994.607 726.333 982.329 719.555 976.06 C 712.571 969.601 710.874 957.487 710.41 948.367 C 708.96 919.848 715.647 885.759 719.749 857.481 C 724.706 823.302 729.309 789.192 734.772 755.079 C 738.924 729.157 743.214 688.289 751.75 664.119 C 753.623 658.814 756.041 655.366 760.476 651.826 C 787.492 630.258 842.28 625.734 863.305 601.636 C 865.632 598.969 866.413 597.439 865.963 593.844 C 865.687 591.641 864.267 591.67 862.31 591.224 C 843.192 586.856 823.284 585.647 806.953 573.447 C 796.115 565.35 790.912 554.231 789.02 541.116 C 784.685 511.076 797.526 489.435 801.968 461.147 C 803.792 449.533 802.064 437.777 801.264 426.146 C 799.697 401.211 807.113 376.539 822.167 356.599 C 842.885 329.052 874.462 313.018 908.082 308.359 C 938.406 304.411 976.43 313.422 1001.44 331.068 C 1036.47 355.776 1045.66 391.384 1040.1 432.406 C 1037.59 450.961 1033.02 469.202 1032.26 487.987 C 1031.18 514.43 1036.74 540.028 1041.3 565.878 C 1027.7 581.028 1010.13 590.236 989.806 592.52 C 983.519 593.227 976.142 592.955 970.177 595.043 C 968.189 595.738 968.442 595.399 967.407 597.464 C 967.736 599.547 967.915 601.513 969.219 603.267 C 971.131 605.84 973.9 606.621 976.872 607.136 C 980.891 607.832 984.787 608.803 988.741 609.791 C 991.434 613.295 994.17 617.189 997.622 619.977 C 1011.74 631.382 1042.05 640.664 1059.28 647.644 C 1066.69 650.65 1074.6 653.474 1080.41 659.211 C 1098.41 676.986 1097.18 724.514 1096.7 748.304 C 1116.15 777.616 1125.3 807.469 1127.29 842.511 C 1147.32 843.398 1239.88 848.709 1251.53 857.704 C 1253.09 858.91 1253.72 862.013 1253.78 863.952 C 1254.11 873.39 1246.35 888.799 1239.97 895.655 C 1240.35 922.369 1242.33 1157.05 1239.74 1161.66 C 1238.39 1164.07 1236.78 1164.34 1234.37 1165.18 C 1232.68 1164.76 1231.61 1164.83 1230.38 1163.47 C 1227.75 1160.52 1227.14 1156.38 1226.8 1152.57 C 1225.98 1143.23 1226.62 1133.27 1226.66 1123.85 C 1226.81 1105.94 1226.86 1088.03 1226.79 1070.11 L 1226.09 889.92 C 1125.24 875.911 1014.07 874.868 912.705 884.323 C 904.973 885.044 883.051 885.456 877.297 888.967 L 877.018 891.751 C 874.221 984.291 877.152 1077.29 877.034 1169.88 L 876.78 1232.87 C 876.755 1240.77 878.068 1250.29 876.498 1257.93 C 875.794 1261.36 873.598 1263.77 870.836 1265.75 C 869.679 1265.72 869.164 1266.02 868.405 1265.26 C 865.043 1261.85 864.303 1255.37 863.935 1250.86 C 863.062 1240.16 863.774 1228.95 863.835 1218.21 L 863.985 1158.68 L 864.031 1002.1 C 864.019 969.664 864.379 937.164 863.258 904.742 L 818.942 955.465 C 811.761 963.54 803.734 971 797.126 979.547 z M 960.545 368.233 C 927.52 373.923 899.492 394.681 880.453 421.734 C 875.389 428.93 859.298 459.7 853.882 462.387 C 842.724 461.781 833.812 439.534 818.944 452.066 C 814.745 455.606 813.639 461.524 813.38 466.728 C 812.878 476.841 816.543 485.653 823.455 492.962 C 831.877 501.868 840.277 504.834 852.267 504.927 C 853.345 504.935 854.422 504.936 855.5 504.93 C 864.813 520.576 874.836 535.233 887.731 548.202 C 903.868 563.101 924.119 579.309 947.465 578.134 C 962.077 577.398 975.219 569.535 984.708 558.709 C 1009.74 530.146 1018.91 475.933 1016.29 439.29 C 1014.74 417.633 1009.03 391.556 991.467 376.993 C 982.13 369.252 972.353 367.54 960.545 368.233 z M 882.835 559.65 C 883.452 570.675 886.844 598.633 885.254 607.78 C 884.882 609.923 883.811 611.886 882.583 613.648 C 884.229 624.579 891.967 637.479 896.326 647.821 C 901.171 659.317 905.555 670.852 909.22 682.783 C 924.791 681.641 940.638 681.081 956.25 681.146 L 958.537 680.544 C 961.452 672.159 959.91 635.83 958.681 626.132 C 957.186 614.339 954.097 602.819 952.868 590.962 C 919.753 591.101 907.201 580.333 882.835 559.65 z M 868.437 613.914 C 864.46 616.623 860.815 619.235 857.382 622.649 C 854.296 637.803 853.687 654.572 853.286 670.031 L 878.24 672.266 C 883.279 672.772 888.325 673.202 893.377 673.556 C 886.21 655.561 877.86 630.001 868.437 613.914 z M 976.398 623.259 C 974.007 625.741 972.2 626.87 971.936 630.473 C 970.004 656.863 972.176 684.067 970.936 710.632 C 969.817 732.652 968.542 754.664 967.11 776.666 C 965.982 793.092 964.289 809.691 964.586 826.161 C 964.662 830.397 963.694 838.117 966.493 840.959 C 969.316 841.23 971.357 841.407 974.118 840.477 C 981.5 834.268 983.029 818.44 985.188 809.149 C 989.954 791.213 994.304 773.169 998.234 755.031 C 1001.7 739.632 1004.51 723.22 1010.49 708.573 C 1005.29 704.378 989.283 693.853 988.15 687.433 C 987.648 684.589 989.09 682.184 991.049 680.272 C 995.566 675.864 1003.01 673.404 1008.7 670.524 C 1003.24 658.661 989.973 628.238 977.436 623.524 C 977.102 623.398 976.744 623.347 976.398 623.259 z M 841.929 630.193 C 816.557 639.37 785.584 647.741 764.712 665.138 C 760.588 680.196 758.199 696.031 755.287 711.377 C 747.633 752.424 741.077 793.669 735.627 835.067 C 732.489 857.338 729.622 879.646 727.029 901.987 C 725.565 914.3 723.498 926.927 723.145 939.325 C 722.955 946.025 722.716 955.59 726.041 961.524 C 731.087 970.533 743.266 973.133 752.358 976.188 C 758.429 949.347 795.954 919.986 814.455 898.566 C 802.062 896.795 790.516 896.768 778.24 899.445 C 773.952 900.38 769.282 902.159 764.96 902.592 C 762.669 902.821 760.267 901.807 758.782 900.028 C 757.188 898.12 757.419 896.998 757.691 894.762 C 763.383 887.351 778.305 885.45 787.131 884.304 C 791.949 883.678 796.789 883.125 801.65 883.034 C 802.723 875.384 803.893 867.748 805.162 860.128 C 807.709 843.94 817.833 767.408 823.803 758.72 C 826.256 757.272 826.785 757.234 829.654 757.217 C 832.176 759.713 832.449 762.088 832.419 765.579 C 832.336 775.085 829.851 785.348 828.307 794.746 L 818.889 850.876 C 817.5 859.03 815.268 867.954 815.271 876.228 C 815.273 879.901 815.676 882.715 817.855 885.757 C 820.089 886.797 821.323 887.13 823.764 886.373 C 837.951 881.971 849.932 855.536 863.939 849.596 C 876.57 844.238 912.51 845.383 928.744 843.067 C 906.589 808.322 884.676 774.546 865.663 737.919 C 860.406 727.79 854.474 717.562 850.33 706.936 C 856.675 697.68 865.955 691.247 873.645 683.209 C 866.163 682.853 847.315 683.974 842.594 677.583 C 836.106 668.8 846.589 640.105 841.929 630.193 z M 1007.48 639.622 C 1011.69 648.045 1023.63 665.262 1020.35 674.157 C 1018.02 680.455 1011.56 683.545 1006.47 687.398 C 1011.47 692.232 1016.27 696.953 1020.54 702.453 C 1024.24 694.01 1029.09 687.344 1037.96 683.752 C 1044.41 681.143 1051.42 680.797 1057.8 683.788 C 1063.69 686.549 1067.37 691.433 1070.25 697.101 C 1072.96 707.115 1080.47 712.269 1084.41 721.635 C 1082.21 703.11 1079.07 685.19 1072.71 667.567 C 1061.89 663.688 1051.53 658.578 1040.96 654.084 C 1029.75 649.318 1018.38 645.085 1007.48 639.622 z M 895.149 682.91 C 884.894 691.154 874.596 699.343 864.254 707.477 C 868.911 719.129 875.343 730.16 881.427 741.115 C 898.72 772.255 918.982 801.857 935.829 833.127 L 940.411 843.049 C 945.4 842.684 950.425 842.427 955.393 841.84 C 947.889 820.218 938.718 799.242 930.911 777.741 C 920.511 749.096 911.336 719.784 899.977 691.511 C 898.822 688.639 897.647 684.835 895.149 682.91 z M 1044.91 693.036 C 1039.91 696.048 1035.53 698.991 1033.88 704.911 C 1032.71 709.083 1032.99 713.881 1035.15 717.696 C 1035.92 719.046 1037.02 719.979 1038.18 720.973 L 1040.83 721.508 C 1042.35 719.732 1042.3 717.998 1042.57 715.763 L 1043.19 714.679 C 1049.6 703.683 1059.54 705.487 1062.06 699.289 C 1060.44 696.208 1056.07 694.122 1052.67 693.187 C 1050.27 692.526 1047.38 692.875 1044.91 693.036 z M 1021.58 716.7 C 1016.42 730.609 1013.39 745.581 1009.91 759.985 C 1003.37 787.01 997.413 813.976 989.112 840.541 C 1011.09 841.19 1033.14 840.637 1055.13 840.59 L 1083.57 840.766 C 1082.44 815.081 1078.92 789.172 1078.75 763.524 C 1068.46 754.673 1056.58 738.962 1044.32 733.576 C 1040.81 732.03 1036.53 731.619 1032.78 730.662 C 1028.9 726.357 1025.65 720.581 1021.58 716.7 z M 1090.86 771.551 C 1091.57 794.634 1095.2 817.788 1096.35 840.938 L 1111.03 841.002 C 1109.3 825.797 1103.55 781.353 1091.54 771.975 C 1091.33 771.811 1091.08 771.692 1090.86 771.551 z M 1032.65 853.488 C 990.911 853.668 949.68 854.918 908.065 858.329 C 898.339 859.127 888.063 858.448 878.49 860.135 C 875.734 860.621 873.822 861.533 871.542 863.11 C 870.182 865.483 869.433 866.96 869.934 869.772 C 870.4 872.393 871.148 873.557 873.335 874.933 C 881.127 875.41 889.458 873.478 897.266 872.722 C 913.477 871.118 929.712 869.774 945.966 868.691 C 991.644 866.126 1037.4 865.263 1083.14 866.103 C 1134.39 867.332 1184.5 871.213 1235.27 878.576 L 1239.96 868.276 C 1223.36 862.747 1203.65 861.819 1186.28 860.173 C 1135.49 855.358 1083.68 852.595 1032.65 853.488 z M 858.503 871.939 C 838.47 891.158 819.45 911.525 800.395 931.706 C 790.315 942.381 778.341 953.292 770.222 965.516 C 768.817 967.632 767.688 969.925 767.675 972.524 C 767.657 975.893 770.005 978.481 772.452 980.506 C 772.848 980.833 773.254 981.148 773.654 981.469 C 792.847 971.402 844.504 905.012 863.762 885.568 C 861.865 881.211 859.394 876.613 858.503 871.939 z"
     id="path12" />
  <path
     transform="translate(0,0)"
     fill="rgb(254,254,254)"
     d="M 855.5 504.93 C 854.422 504.936 853.345 504.935 852.267 504.927 C 840.277 504.834 831.877 501.868 823.455 492.962 C 816.543 485.653 812.878 476.841 813.38 466.728 C 813.639 461.524 814.745 455.606 818.944 452.066 C 833.812 439.534 842.724 461.781 853.882 462.387 C 859.298 459.7 875.389 428.93 880.453 421.734 C 899.492 394.681 927.52 373.923 960.545 368.233 C 972.353 367.54 982.13 369.252 991.467 376.993 C 1009.03 391.556 1014.74 417.633 1016.29 439.29 C 1018.91 475.933 1009.74 530.146 984.708 558.709 C 975.219 569.535 962.077 577.398 947.465 578.134 C 924.119 579.309 903.868 563.101 887.731 548.202 C 874.836 535.233 864.813 520.576 855.5 504.93 z M 907.133 425.277 C 899.988 426.526 893.466 427.811 888.898 434.079 C 887.759 435.641 887.41 436.782 887.329 438.736 C 888.887 440.779 889.472 441.358 892.214 441.779 C 896.643 442.458 902.757 439.057 906.812 437.39 C 912.775 439.094 920.109 442.148 925.966 438.666 C 927.728 437.619 927.084 438.152 928.184 436.181 C 927.833 433.331 926.533 431.756 924.387 429.957 C 919.301 425.691 913.517 425.123 907.133 425.277 z M 987.58 434.362 C 981.986 435.236 975.34 436.233 971.854 441.368 C 971.259 442.244 971.269 442.435 971.028 443.322 C 972.202 445.571 973.244 445.97 975.6 446.659 C 982.29 448.616 988.601 446.371 995.203 447.212 C 998.964 448.548 1002.83 449.908 1006.74 448.315 C 1008.16 447.735 1008.43 446.799 1009.24 445.58 C 1008.67 442 1007.42 440.039 1004.4 437.982 C 999.59 434.714 993.23 434.464 987.58 434.362 z M 907.497 454.201 C 902.867 455.234 899.099 456.093 896.485 460.443 C 895.67 461.799 895.441 463.237 895.179 464.766 C 896.022 467.387 896.229 467.487 898.458 469.137 C 902.214 469.879 904.957 468.373 908.399 466.971 C 911.888 468.82 913.332 470.065 917.336 469.874 C 919.083 468.449 920.118 467.763 920.131 465.23 C 920.148 461.87 917.844 458.297 915.212 456.358 C 912.994 454.724 910.161 454.451 907.497 454.201 z M 985.94 459.005 C 983.002 460.897 981.178 462.203 979.365 465.223 C 979.246 466.711 978.789 467.581 979.784 468.844 C 982.813 472.686 988.048 472.723 992.501 473.12 L 996.239 473.457 C 999.085 472.471 999.226 472.543 1000.8 470.008 C 1000.46 466.255 999.159 464.27 996.344 461.841 C 992.992 458.949 990.138 458.925 985.94 459.005 z M 953.167 462.309 C 950.438 464.989 947.816 467.221 947.716 471.351 C 947.556 477.919 952.442 485.386 955.283 491.125 C 951.914 493.826 946.328 496.92 944.71 501.003 C 945.621 504.317 947.012 505.482 949.79 507.486 C 955.358 505.496 964.119 502.583 966.514 496.694 C 967.783 493.571 959.827 468.515 957.589 464.768 C 956.435 462.837 955.188 462.855 953.167 462.309 z M 829.354 465.811 C 827.485 468.178 826.166 469.215 826.197 472.47 C 826.242 477.079 831.094 481.184 834.481 483.496 C 836.322 484.753 837.795 485.168 839.943 485.609 C 842.222 482.493 843.809 479.889 843.374 475.889 C 843.01 472.536 841.262 470.081 838.539 468.154 C 835.601 466.073 832.813 465.853 829.354 465.811 z M 902.59 504.361 C 899.944 510.593 901.331 516.086 903.678 522.315 C 908.287 534.549 919.431 546.777 931.307 552.081 C 939.338 555.668 948.081 556.374 956.374 553.222 C 962.745 550.801 967.18 546.546 971.866 541.828 C 977.073 535.554 983.186 526.817 982.796 518.367 C 981.936 517.042 981.85 516.157 980.175 515.786 C 974.261 514.475 966.816 518.126 960.771 518.752 C 953.546 519.5 945.732 519.226 938.537 518.266 C 922.828 516.169 911.564 505.75 902.59 504.361 z"
     id="path13" />
  <path
     transform="translate(0,0)"
     fill="rgb(0,0,0)"
     d="M 906.812 437.39 C 902.757 439.057 896.643 442.458 892.214 441.779 C 889.472 441.358 888.887 440.779 887.329 438.736 C 887.41 436.782 887.759 435.641 888.898 434.079 C 893.466 427.811 899.988 426.526 907.133 425.277 C 913.517 425.123 919.301 425.691 924.387 429.957 C 926.533 431.756 927.833 433.331 928.184 436.181 C 927.084 438.152 927.728 437.619 925.966 438.666 C 920.109 442.148 912.775 439.094 906.812 437.39 z"
     id="path14" />
  <path
     transform="translate(0,0)"
     fill="rgb(0,0,0)"
     d="M 995.203 447.212 C 988.601 446.371 982.29 448.616 975.6 446.659 C 973.244 445.97 972.202 445.571 971.028 443.322 C 971.269 442.435 971.259 442.244 971.854 441.368 C 975.34 436.233 981.986 435.236 987.58 434.362 C 993.23 434.464 999.59 434.714 1004.4 437.982 C 1007.42 440.039 1008.67 442 1009.24 445.58 C 1008.43 446.799 1008.16 447.735 1006.74 448.315 C 1002.83 449.908 998.964 448.548 995.203 447.212 z"
     id="path15" />
  <path
     transform="translate(0,0)"
     fill="rgb(0,0,0)"
     d="M 908.399 466.971 C 904.957 468.373 902.214 469.879 898.458 469.137 C 896.229 467.487 896.022 467.387 895.179 464.766 C 895.441 463.237 895.67 461.799 896.485 460.443 C 899.099 456.093 902.867 455.234 907.497 454.201 C 910.161 454.451 912.994 454.724 915.212 456.358 C 917.844 458.297 920.148 461.87 920.131 465.23 C 920.118 467.763 919.083 468.449 917.336 469.874 C 913.332 470.065 911.888 468.82 908.399 466.971 z"
     id="path16" />
  <path
     transform="translate(0,0)"
     fill="rgb(0,0,0)"
     d="M 996.239 473.457 L 992.501 473.12 C 988.048 472.723 982.813 472.686 979.784 468.844 C 978.789 467.581 979.246 466.711 979.365 465.223 C 981.178 462.203 983.002 460.897 985.94 459.005 C 990.138 458.925 992.992 458.949 996.344 461.841 C 999.159 464.27 1000.46 466.255 1000.8 470.008 C 999.226 472.543 999.085 472.471 996.239 473.457 z"
     id="path17" />
  <path
     transform="translate(0,0)"
     fill="rgb(0,0,0)"
     d="M 955.283 491.125 C 952.442 485.386 947.556 477.919 947.716 471.351 C 947.816 467.221 950.438 464.989 953.167 462.309 C 955.188 462.855 956.435 462.837 957.589 464.768 C 959.827 468.515 967.783 493.571 966.514 496.694 C 964.119 502.583 955.358 505.496 949.79 507.486 C 947.012 505.482 945.621 504.317 944.71 501.003 C 946.328 496.92 951.914 493.826 955.283 491.125 z"
     id="path18" />
  <path
     transform="translate(0,0)"
     fill="rgb(0,0,0)"
     d="M 839.943 485.609 C 837.795 485.168 836.322 484.753 834.481 483.496 C 831.094 481.184 826.242 477.079 826.197 472.47 C 826.166 469.215 827.485 468.178 829.354 465.811 C 832.813 465.853 835.601 466.073 838.539 468.154 C 841.262 470.081 843.01 472.536 843.374 475.889 C 843.809 479.889 842.222 482.493 839.943 485.609 z"
     id="path19" />
  <path
     transform="translate(0,0)"
     fill="rgb(0,0,0)"
     d="M 971.866 541.828 C 967.18 546.546 962.745 550.801 956.374 553.222 C 948.081 556.374 939.338 555.668 931.307 552.081 C 919.431 546.777 908.287 534.549 903.678 522.315 C 901.331 516.086 899.944 510.593 902.59 504.361 C 911.564 505.75 922.828 516.169 938.537 518.266 C 945.732 519.226 953.546 519.5 960.771 518.752 C 966.816 518.126 974.261 514.475 980.175 515.786 C 981.85 516.157 981.936 517.042 982.796 518.367 C 983.186 526.817 977.073 535.554 971.866 541.828 z M 921.005 526.785 C 926.365 533.908 932.531 540.969 941.951 542.191 C 948.241 543.006 952.596 540.985 957.795 537.703 C 959.59 535.671 961.466 534.264 962.021 531.568 C 956.229 530.992 950.48 531.407 944.692 531.017 C 936.695 530.478 928.803 528.547 921.005 526.785 z"
     id="path20" />
  <path
     transform="translate(0,0)"
     fill="rgb(254,254,254)"
     d="M 957.795 537.703 C 952.596 540.985 948.241 543.006 941.951 542.191 C 932.531 540.969 926.365 533.908 921.005 526.785 C 928.803 528.547 936.695 530.478 944.692 531.017 C 950.48 531.407 956.229 530.992 962.021 531.568 C 961.466 534.264 959.59 535.671 957.795 537.703 z"
     id="path21" />
  <path
     transform="translate(0,0)"
     fill="rgb(254,254,254)"
     d="M 909.22 682.783 C 905.555 670.852 901.171 659.317 896.326 647.821 C 891.967 637.479 884.229 624.579 882.583 613.648 C 883.811 611.886 884.882 609.923 885.254 607.78 C 886.844 598.633 883.452 570.675 882.835 559.65 C 907.201 580.333 919.753 591.101 952.868 590.962 C 954.097 602.819 957.186 614.339 958.681 626.132 C 959.91 635.83 961.452 672.159 958.537 680.544 L 956.25 681.146 C 940.638 681.081 924.791 681.641 909.22 682.783 z"
     id="path22" />
  <path
     transform="translate(0,0)"
     fill="rgb(254,254,254)"
     d="M 857.382 622.649 C 860.815 619.235 864.46 616.623 868.437 613.914 C 877.86 630.001 886.21 655.561 893.377 673.556 C 888.325 673.202 883.279 672.772 878.24 672.266 L 853.286 670.031 C 853.687 654.572 854.296 637.803 857.382 622.649 z"
     id="path23" />
  <path
     transform="translate(0,0)"
     fill="rgb(254,254,254)"
     d="M 985.188 809.149 C 983.029 818.44 981.5 834.268 974.118 840.477 C 971.357 841.407 969.316 841.23 966.493 840.959 C 963.694 838.117 964.662 830.397 964.586 826.161 C 964.289 809.691 965.982 793.092 967.11 776.666 C 968.542 754.664 969.817 732.652 970.936 710.632 C 972.176 684.067 970.004 656.863 971.936 630.473 C 972.2 626.87 974.007 625.741 976.398 623.259 C 976.744 623.347 977.102 623.398 977.436 623.524 C 989.973 628.238 1003.24 658.661 1008.7 670.524 C 1003.01 673.404 995.566 675.864 991.049 680.272 C 989.09 682.184 987.648 684.589 988.15 687.433 C 989.283 693.853 1005.29 704.378 1010.49 708.573 C 1004.51 723.22 1001.7 739.632 998.234 755.031 C 994.304 773.169 989.954 791.213 985.188 809.149 z"
     id="path24" />
  <path
     transform="translate(0,0)"
     fill="rgb(254,254,254)"
     d="M 764.712 665.138 C 785.584 647.741 816.557 639.37 841.929 630.193 C 846.589 640.105 836.106 668.8 842.594 677.583 C 847.315 683.974 866.163 682.853 873.645 683.209 C 865.955 691.247 856.675 697.68 850.33 706.936 C 854.474 717.562 860.406 727.79 865.663 737.919 C 884.676 774.546 906.589 808.322 928.744 843.067 C 912.51 845.383 876.57 844.238 863.939 849.596 C 849.932 855.536 837.951 881.971 823.764 886.373 C 821.323 887.13 820.089 886.797 817.855 885.757 C 815.676 882.715 815.273 879.901 815.271 876.228 C 815.268 867.954 817.5 859.03 818.889 850.876 L 828.307 794.746 C 829.851 785.348 832.336 775.085 832.419 765.579 C 832.449 762.088 832.176 759.713 829.654 757.217 C 826.785 757.234 826.256 757.272 823.803 758.72 C 817.833 767.408 807.709 843.94 805.162 860.128 C 803.893 867.748 802.723 875.384 801.65 883.034 C 796.789 883.125 791.949 883.678 787.131 884.304 C 778.305 885.45 763.383 887.351 757.691 894.762 C 757.419 896.998 757.188 898.12 758.782 900.028 C 760.267 901.807 762.669 902.821 764.96 902.592 C 769.282 902.159 773.952 900.38 778.24 899.445 C 790.516 896.768 802.062 896.795 814.455 898.566 C 795.954 919.986 758.429 949.347 752.358 976.188 C 743.266 973.133 731.087 970.533 726.041 961.524 C 722.716 955.59 722.955 946.025 723.145 939.325 C 723.498 926.927 725.565 914.3 727.029 901.987 C 729.622 879.646 732.489 857.338 735.627 835.067 C 741.077 793.669 747.633 752.424 755.287 711.377 C 758.199 696.031 760.588 680.196 764.712 665.138 z"
     id="path25" />
  <path
     transform="translate(0,0)"
     fill="rgb(254,254,254)"
     d="M 1006.47 687.398 C 1011.56 683.545 1018.02 680.455 1020.35 674.157 C 1023.63 665.262 1011.69 648.045 1007.48 639.622 C 1018.38 645.085 1029.75 649.318 1040.96 654.084 C 1051.53 658.578 1061.89 663.688 1072.71 667.567 C 1079.07 685.19 1082.21 703.11 1084.41 721.635 C 1080.47 712.269 1072.96 707.115 1070.25 697.101 C 1067.37 691.433 1063.69 686.549 1057.8 683.788 C 1051.42 680.797 1044.41 681.143 1037.96 683.752 C 1029.09 687.344 1024.24 694.01 1020.54 702.453 C 1016.27 696.953 1011.47 692.232 1006.47 687.398 z"
     id="path26" />
  <path
     transform="translate(0,0)"
     fill="rgb(254,254,254)"
     d="M 864.254 707.477 C 874.596 699.343 884.894 691.154 895.149 682.91 C 897.647 684.835 898.822 688.639 899.977 691.511 C 911.336 719.784 920.511 749.096 930.911 777.741 C 938.718 799.242 947.889 820.218 955.393 841.84 C 950.425 842.427 945.4 842.684 940.411 843.049 L 935.829 833.127 C 918.982 801.857 898.72 772.255 881.427 741.115 C 875.343 730.16 868.911 719.129 864.254 707.477 z"
     id="path27" />
  <path
     transform="translate(0,0)"
     fill="rgb(254,254,254)"
     d="M 1042.57 715.763 C 1042.3 717.998 1042.35 719.732 1040.83 721.508 L 1038.18 720.973 C 1037.02 719.979 1035.92 719.046 1035.15 717.696 C 1032.99 713.881 1032.71 709.083 1033.88 704.911 C 1035.53 698.991 1039.91 696.048 1044.91 693.036 C 1047.38 692.875 1050.27 692.526 1052.67 693.187 C 1056.07 694.122 1060.44 696.208 1062.06 699.289 C 1059.54 705.487 1049.6 703.683 1043.19 714.679 L 1042.57 715.763 z"
     id="path28" />
  <path
     transform="translate(0,0)"
     fill="rgb(254,254,254)"
     d="M 989.112 840.541 C 997.413 813.976 1003.37 787.01 1009.91 759.985 C 1013.39 745.581 1016.42 730.609 1021.58 716.7 C 1025.65 720.581 1028.9 726.357 1032.78 730.662 C 1036.53 731.619 1040.81 732.03 1044.32 733.576 C 1056.58 738.962 1068.46 754.673 1078.75 763.524 C 1078.92 789.172 1082.44 815.081 1083.57 840.766 L 1055.13 840.59 C 1033.14 840.637 1011.09 841.19 989.112 840.541 z"
     id="path29" />
  <path
     transform="translate(0,0)"
     fill="rgb(254,254,254)"
     d="M 1096.35 840.938 C 1095.2 817.788 1091.57 794.634 1090.86 771.551 C 1091.08 771.692 1091.33 771.811 1091.54 771.975 C 1103.55 781.353 1109.3 825.797 1111.03 841.002 L 1096.35 840.938 z"
     id="path30" />
  <path
     transform="translate(0,0)"
     fill="rgb(254,254,254)"
     d="M 1083.14 866.103 C 1037.4 865.263 991.644 866.126 945.966 868.691 C 929.712 869.774 913.477 871.118 897.266 872.722 C 889.458 873.478 881.127 875.41 873.335 874.933 C 871.148 873.557 870.4 872.393 869.934 869.772 C 869.433 866.96 870.182 865.483 871.542 863.11 C 873.822 861.533 875.734 860.621 878.49 860.135 C 888.063 858.448 898.339 859.127 908.065 858.329 C 949.68 854.918 990.911 853.668 1032.65 853.488 C 1083.68 852.595 1135.49 855.358 1186.28 860.173 C 1203.65 861.819 1223.36 862.747 1239.96 868.276 L 1235.27 878.576 C 1184.5 871.213 1134.39 867.332 1083.14 866.103 z"
     id="path31" />
  <path
     transform="translate(0,0)"
     fill="rgb(254,254,254)"
     d="M 773.654 981.469 C 773.254 981.148 772.848 980.833 772.452 980.506 C 770.005 978.481 767.657 975.893 767.675 972.524 C 767.688 969.925 768.817 967.632 770.222 965.516 C 778.341 953.292 790.315 942.381 800.395 931.706 C 819.45 911.525 838.47 891.158 858.503 871.939 C 859.394 876.613 861.865 881.211 863.762 885.568 C 844.504 905.012 792.847 971.402 773.654 981.469 z"
     id="path32" />
  <path
     transform="translate(0,0)"
     fill="rgb(0,0,0)"
     d="M 1429.98 1032.22 C 1450.8 1012.73 1478.7 1005.74 1506.27 1003.41 C 1517.66 1002.17 1530.16 1002.66 1541.51 1004.14 C 1569.08 1007.73 1594.47 1018.13 1611.61 1040.85 C 1614.44 1044.59 1617.03 1047.6 1616.34 1052.59 C 1614.81 1055.11 1613.86 1055.73 1611.16 1056.87 C 1608.88 1056.67 1607.8 1056.78 1605.96 1055.3 C 1602.95 1052.87 1600.29 1049.2 1597.7 1046.27 C 1589.96 1037.57 1582.06 1030.5 1571.33 1025.74 C 1542.06 1012.77 1496.2 1013.38 1466.56 1024.87 C 1456.78 1028.67 1442.41 1035.17 1438.11 1045.23 C 1436.99 1047.86 1436.28 1049.48 1434.25 1051.48 C 1426.6 1052.76 1414.41 1037.98 1406.94 1034.32 C 1393.74 1027.85 1379.66 1025.07 1365.21 1023.1 C 1359.84 1022.96 1354.47 1022.88 1349.1 1022.84 C 1310.41 1022.66 1278.46 1030.36 1250.59 1058.07 C 1248.79 1057.27 1246.99 1056.46 1245.27 1055.5 C 1242.51 1053.96 1241.49 1052.5 1240.65 1049.51 C 1241.08 1048.36 1241.46 1047.33 1242.15 1046.32 C 1252.05 1031.76 1288.4 1017.5 1305.34 1013.74 C 1350.26 1003.77 1391.03 1007.45 1429.98 1032.22 z"
     id="path33" />
  <path
     transform="translate(0,0)"
     fill="rgb(0,0,0)"
     d="M 1728.84 1022.85 C 1706.7 1022.25 1667.61 1024.73 1649.69 1038.75 C 1643.89 1043.29 1639.84 1050.16 1633.85 1054.48 C 1631.36 1056.27 1629.22 1055.89 1626.4 1055.32 C 1625.54 1054.44 1624.72 1054.02 1624.59 1052.72 C 1624.01 1047.17 1629.08 1040.59 1632.43 1036.59 C 1648.72 1017.15 1680.29 1011.7 1704.19 1009.4 C 1733.5 1006.3 1767.74 1011.76 1794.73 1023.37 C 1800.79 1025.97 1807.23 1027.98 1812.5 1032.12 C 1815.14 1034.2 1816.49 1036.06 1816.97 1039.48 C 1816.4 1041.44 1816.14 1042.58 1814.6 1044.02 C 1813.95 1044.63 1813.52 1045.03 1812.66 1045.2 C 1806.91 1046.36 1790.57 1035.55 1784.02 1033.34 C 1765.93 1027.24 1747.95 1023.5 1728.84 1022.85 z"
     id="path34" />
  <path
     transform="translate(0,0)"
     fill="rgb(0,0,0)"
     d="M 768.288 1189.34 C 762.834 1187.58 756.559 1186.04 751.447 1183.49 C 749.11 1182.32 747.709 1181.28 746.952 1178.71 C 743.125 1165.73 753.553 1080.39 757.021 1064.13 C 759.973 1050.29 763.763 1034.91 770.727 1022.47 C 773.59 1017.36 775.335 1014.69 781.091 1013.11 C 785.547 1013.43 789.614 1014.59 793.112 1017.51 C 796.034 1019.95 796.095 1022.64 796.288 1026.18 C 798.173 1060.84 795.802 1096.42 795.729 1131.17 C 795.688 1150.96 798.081 1171.7 796.817 1191.35 C 796.653 1193.9 796.161 1194.85 794.454 1196.71 C 786.847 1198.24 775.484 1192.13 768.288 1189.34 z"
     id="path35" />
  <path
     transform="translate(0,0)"
     fill="rgb(0,0,0)"
     d="M 465.754 1028.73 C 445.038 1027.18 415.313 1029.08 397.432 1041.06 C 391.03 1045.34 386.444 1052.67 379.753 1056.55 C 377.239 1058.01 376.099 1057.98 373.358 1057.3 C 372.179 1055.98 371.362 1054.95 370.906 1053.17 C 370.085 1049.97 371.13 1046.9 373.07 1044.35 C 386.669 1026.48 415.32 1017.9 436.526 1015.36 C 447.118 1014.02 458.405 1014.33 469.028 1015.22 C 483.145 1016.41 531.867 1026.7 540.625 1037.92 C 542.562 1040.4 543.113 1042.37 542.777 1045.45 C 540.161 1047.23 538.503 1047.41 535.37 1046.88 C 527.697 1045.58 519.89 1041.45 512.566 1038.76 C 497.551 1033.1 481.772 1029.71 465.754 1028.73 z"
     id="path36" />
  <path
     transform="translate(0,0)"
     fill="rgb(0,0,0)"
     d="M 647.981 1032.74 C 636.928 1030.05 625.785 1028.41 614.376 1028.9 C 600.622 1029.48 582.255 1034.07 574.024 1045.96 C 571.582 1049.49 570.39 1054.87 567.093 1057.65 C 565.017 1059.4 563.436 1059.48 560.833 1059.39 C 558.696 1058 558.091 1057.51 557.32 1054.89 C 555.869 1049.96 558.459 1044.75 561.313 1040.97 C 573.003 1025.45 588.323 1018.82 607.018 1016.36 C 635.488 1012.63 661.855 1021.69 686.883 1034.25 C 691.229 1036.44 695.944 1038.19 699.936 1041 C 703.176 1043.29 704.303 1045.11 704.94 1049 C 703.838 1051.46 703.575 1052.59 701.003 1053.82 C 699.079 1054.74 697.263 1054.15 695.391 1053.48 C 688.199 1050.89 681.287 1046.54 674.403 1043.18 C 665.805 1038.98 657.044 1035.76 647.981 1032.74 z"
     id="path37" />
  <path
     transform="translate(0,0)"
     fill="rgb(0,0,0)"
     d="M 1540.65 1283 C 1533.58 1264.87 1526.8 1249.28 1525.09 1229.51 C 1522.97 1205.07 1526.43 1180.63 1542.71 1161.36 C 1559.36 1141.64 1581.17 1135.7 1603.58 1125.33 C 1613.5 1120.73 1622.69 1114.43 1632.58 1109.66 C 1662.7 1095.13 1695.42 1088.17 1728.59 1085.41 C 1730.4 1085.26 1732.18 1085.12 1733.99 1085.05 C 1795.41 1082.91 1862.02 1094.96 1907.93 1138.86 C 1926.25 1156.37 1939.75 1177.48 1940.31 1203.45 C 1956.77 1217.74 1968.26 1233.26 1973.87 1254.64 C 1992.91 1327.15 1945.35 1392.2 1906.92 1448.59 C 1890.96 1472 1875.56 1495.52 1861.13 1519.91 C 1864.45 1533.66 1866.86 1547.68 1869.99 1561.5 C 1872.49 1562.45 1875.29 1563.42 1877.47 1565.02 C 1889.19 1573.67 1891.03 1597.73 1893.46 1611.21 C 1912.39 1615.99 1930.99 1622.03 1949.12 1629.28 C 1959.45 1633.3 1990.37 1644.71 1994.63 1654.36 C 1994.28 1656.62 1994.09 1657.77 1991.81 1658.97 C 1989.73 1660.07 1987.98 1659.68 1985.89 1659 C 1977.19 1656.17 1968.53 1651.5 1960.07 1647.89 C 1945.84 1641.84 1931.33 1636.47 1916.59 1631.81 C 1898.66 1626.19 1880.06 1621.66 1861.43 1619.21 C 1768.3 1606.97 1626.88 1625.96 1542.98 1669.87 C 1549.43 1684.91 1559.48 1698.4 1566.44 1713.3 C 1587.5 1758.42 1599.7 1810.17 1605.16 1859.51 C 1605.81 1865.37 1607.22 1873.5 1603.37 1878.28 C 1600.48 1879.14 1599.21 1879.04 1596.38 1878.4 C 1589.92 1873.2 1590.13 1850.13 1589.04 1841.66 C 1577.77 1754 1537.98 1660.78 1466.61 1605.68 C 1468.63 1644.39 1477.51 1682.98 1482.59 1721.35 C 1494.72 1719.41 1528 1711.11 1537.74 1716.8 C 1539.7 1722.58 1540.33 1728.61 1540.64 1734.69 C 1542.33 1767.83 1541.06 1801.63 1541.31 1834.86 C 1541.46 1854.52 1543.72 1891.76 1540.78 1908.84 C 1540.21 1912.1 1539.26 1913.44 1536.56 1915.22 C 1534.39 1915.1 1533.11 1914.62 1531.45 1913.15 C 1528.95 1910.93 1526.94 1907.15 1526.74 1903.79 C 1525.86 1889.41 1527.26 1874.17 1527.21 1859.64 C 1527.07 1816.02 1527.65 1772.28 1526.41 1728.68 C 1505.69 1730.99 1485.17 1735.61 1464.41 1737.99 C 1396.27 1745.88 1327.67 1749.17 1259.09 1747.85 C 1221.28 1747 1183.51 1744.73 1145.86 1741.06 C 1123.43 1738.82 1101.12 1735.26 1078.64 1733.53 C 1117.96 1781.7 1147.09 1854.58 1156.33 1915.94 C 1157.22 1921.85 1158.06 1928.17 1154.34 1933.25 C 1151.7 1934.47 1151.52 1934.48 1148.66 1933.92 C 1147.86 1933.22 1146.94 1932.63 1146.27 1931.81 C 1143.98 1929.04 1135.35 1879.74 1132.57 1870.85 C 1122.54 1838.75 1109.08 1806.88 1092.12 1777.8 C 1039.79 1688.11 948.15 1625.79 848.772 1599.37 C 741.312 1569.82 626.476 1584.86 530.25 1641.08 C 441.917 1692.41 388.392 1778.32 373.853 1878.5 C 372.064 1891.47 370.842 1904.52 370.19 1917.6 C 369.647 1927.92 371.273 1941.81 368.171 1951.54 C 367.305 1954.26 366.594 1955.03 364.148 1956.39 C 361.151 1956.11 360.609 1956.03 358.175 1954.29 C 353.688 1943.3 357.243 1909.48 358.111 1896.59 C 363.125 1822.15 395.209 1746.78 445.138 1691.48 C 457.646 1677.62 472.212 1665.83 486.223 1653.57 C 463.439 1641.54 437.338 1633.57 412.642 1626.41 C 313.814 1597.78 209.398 1591.07 109.427 1617.84 C 100.199 1620.28 90.7319 1625.75 81.2389 1626.6 C 77.9751 1626.89 76.2778 1626.21 73.8196 1624.15 C 73.0815 1621.37 73.0994 1620.93 73.8954 1618.16 C 81.9483 1608.45 121.567 1601.29 134.578 1598.33 C 138.189 1589.39 141.508 1580.91 147.043 1572.92 C 159.801 1554.49 170.376 1549.22 175.349 1525.4 C 178.077 1512.33 179.434 1496.64 175.127 1483.85 C 170.021 1468.67 154.634 1449.38 145.943 1435.37 C 112.554 1381.56 80.8162 1315.65 91.531 1250.58 C 96.3969 1221.03 111.309 1200.45 135.253 1183.1 C 134.885 1172.96 136.517 1164.24 141.18 1155.18 C 155.44 1127.48 186.06 1111.47 214.504 1102.2 C 258.191 1087.98 312.213 1084.44 357.652 1091.51 C 376.516 1094.44 395.318 1100.41 414.363 1101.64 C 437.347 1103.11 465.641 1094.32 486.968 1105.8 C 497.804 1111.63 507.273 1122.14 510.564 1134.14 C 519.145 1165.43 486.491 1225.72 471.277 1253.46 C 472.813 1256.76 473.821 1260.05 474.579 1263.6 C 477.556 1277.55 479.048 1291.9 481.612 1305.96 C 491.725 1361.41 500.483 1414.42 478.017 1468.38 C 473.977 1478.08 469.725 1487.76 463.941 1496.58 C 440.033 1532.99 399.897 1527.75 362.589 1535.51 L 361.128 1535.82 C 358.04 1545.14 356.41 1555.31 354.258 1564.9 C 371.591 1575.62 388.217 1586.52 395.531 1606.38 C 407.33 1611.16 420.03 1613.83 432.168 1617.66 C 454.572 1624.72 477.058 1633.35 497.802 1644.36 L 505 1639.13 C 519.897 1582.08 519.513 1520.83 517.294 1462.36 C 516.492 1441.22 514.737 1420.09 514.908 1398.93 C 515.374 1341.1 528.995 1285.3 571.617 1243.68 C 606.803 1209.33 652.596 1194.02 701.288 1194.81 C 744.074 1195.49 792.112 1210.2 822.33 1241.66 C 895.601 1317.96 898.535 1500.08 896.841 1600.43 C 933.016 1614.59 966.295 1632.3 998.159 1654.59 C 1022.85 1622.78 1050.72 1597.65 1085.03 1576.8 C 1077.01 1477.63 1089.36 1308.12 1156.13 1228.56 C 1185.4 1193.68 1223.52 1183.11 1267.42 1179.51 C 1308.64 1176.13 1345.15 1182.8 1377.25 1210.21 C 1461.14 1281.84 1457.35 1413.65 1459.76 1513.72 C 1460.36 1538.64 1462.35 1563.63 1464.19 1588.48 C 1493.71 1604.04 1515.38 1632.9 1535.46 1658.84 C 1562.25 1645.92 1589.27 1636.05 1617.94 1628.1 C 1628.16 1606.69 1642.82 1592.66 1661.96 1579.25 C 1656.74 1566.28 1651.34 1553.48 1645.41 1540.82 C 1634.04 1541.76 1622.81 1542.43 1611.5 1540.57 C 1588.01 1536.7 1567.51 1522.11 1553.82 1502.94 C 1521.07 1457.11 1523.67 1381.74 1531.8 1327.91 C 1534.08 1312.79 1538.19 1298.07 1540.65 1283 z M 380.628 1167.67 C 380.422 1170.99 380.002 1172.44 381.526 1175.46 C 391.604 1179.98 433.931 1179.13 447.018 1178.99 C 447.063 1175.94 447.502 1174.12 445.955 1171.44 C 433.952 1167.27 395.324 1168.23 380.628 1167.67 z M 1692.51 1182.33 C 1679.07 1184.38 1651.78 1187.03 1641.07 1194.05 C 1639.8 1196.24 1639.82 1196.14 1640.39 1198.6 C 1643.02 1200.4 1643.51 1200.51 1646.71 1200.7 C 1659.83 1198.41 1687.82 1196.05 1698.29 1188.41 L 1699.35 1186.46 C 1698.57 1184.03 1698.43 1183.93 1696.37 1182.4 L 1692.51 1182.33 z M 417.266 1213.58 C 412.702 1233.78 400.835 1250.15 383.363 1261.31 C 352.684 1280.89 316.401 1281.68 281.162 1280.87 L 281.06 1294.02 C 285.353 1297.58 289.413 1300.17 290.107 1306.16 C 291.55 1318.64 282.657 1333.25 274.812 1342.42 C 273.186 1344.35 271.471 1346.2 269.674 1347.97 C 274.129 1352.38 279.456 1356.8 279.787 1363.57 C 279.917 1366.25 279.387 1367.67 277.924 1369.84 C 275.184 1370.74 273.44 1370.73 270.811 1369.39 C 259.123 1363.41 258.085 1347.27 236.829 1353.75 C 231.633 1355.33 227.687 1358.8 225.4 1363.72 C 220.598 1374.06 223.861 1386.63 227.948 1396.67 C 233.548 1410.44 241.999 1422.91 254.685 1430.88 C 258.352 1433.19 264.095 1435.86 266.976 1438.97 C 269.214 1441.39 269.97 1443.39 269.526 1446.62 C 266.222 1448.78 263.449 1448.86 259.617 1448.04 C 249.435 1445.86 239.504 1436.04 231.73 1429.34 C 232.161 1433.24 233.023 1437.86 232.505 1441.75 C 231.06 1452.61 223.545 1468.04 216.709 1476.57 C 209.999 1484.94 200.868 1490.11 190.657 1492.95 C 190.092 1512.55 187.549 1530.52 181.593 1549.32 C 234.793 1535.27 292.017 1538.05 342.711 1559.87 C 343.942 1549.6 343.927 1531.76 352.627 1525.04 C 359.381 1519.83 370.048 1519.93 378.181 1519.26 C 419.21 1515.85 444.35 1512.36 462.339 1471.56 C 468.45 1457.71 473.566 1443.33 476.181 1428.38 C 477.742 1419.46 478.702 1410.44 479.055 1401.39 C 479.437 1391.16 478.487 1347.28 473.877 1339.47 C 470.62 1338.37 465.396 1338 463.212 1335.37 C 463.217 1333.09 463.892 1331.65 465.398 1329.94 C 467.161 1327.94 469.586 1326.17 471.679 1324.5 C 469.553 1310.59 467.081 1296.74 464.265 1282.95 C 459.584 1283.49 453.623 1285.01 449.745 1281.52 C 448.267 1280.19 447.857 1279.37 447.282 1277.54 C 447.879 1275.09 448.375 1273.24 450.595 1271.72 C 453.712 1269.59 458.141 1269.58 461.789 1269.24 C 457.32 1251.4 453.112 1230.86 445.065 1214.36 L 417.266 1213.58 z M 1684.88 1222.08 C 1665.29 1228.73 1645.92 1236.71 1625.7 1241.24 C 1606.28 1245.58 1586.63 1246.64 1567.14 1250.08 C 1544.01 1311.64 1527.11 1417.58 1555.31 1479.35 C 1563.8 1497.97 1579.44 1516.64 1599.06 1523.94 C 1606.65 1526.69 1614.61 1528.28 1622.67 1528.64 C 1627.64 1528.84 1650.26 1526.31 1653.17 1528.4 C 1655.78 1530.26 1657.8 1535.09 1659.17 1537.99 C 1664.87 1550.07 1669.42 1562.7 1675.09 1574.79 C 1714.2 1558.66 1758.75 1552.92 1800.9 1552.83 C 1819.18 1553.01 1836.94 1554.37 1854.97 1557.5 C 1852.84 1545.24 1851.53 1530.77 1846.11 1519.51 C 1841.63 1510.2 1834.95 1502.42 1831.55 1492.49 C 1826.36 1477.35 1824.51 1461.27 1818.66 1446.32 C 1810.05 1453.03 1786.3 1470.19 1775.12 1468.59 C 1772.75 1468.25 1772.24 1467.62 1770.59 1466.02 C 1770.44 1463.58 1770.72 1462.44 1772.33 1460.5 C 1777.24 1454.59 1788.08 1451.17 1794.74 1447.44 C 1814.75 1436.25 1833.07 1413.66 1832.86 1389.66 C 1832.8 1382.69 1830.78 1375.19 1825.71 1370.16 C 1820.4 1364.89 1813.22 1363.63 1806.01 1363.81 C 1797.06 1364.04 1780.24 1378.59 1773.35 1371.1 C 1771.33 1368.9 1771.41 1368.1 1771.37 1365.29 C 1773.61 1361.6 1777.35 1362.25 1779.43 1358.67 C 1775.99 1353.66 1770.28 1348.44 1767.96 1342.93 C 1766.44 1339.33 1764.22 1303.36 1764.92 1299.69 C 1765.36 1297.4 1766.44 1295.2 1767.46 1293.11 C 1735.72 1283.1 1713.72 1264.31 1695.5 1236.71 C 1692.98 1232.89 1688.8 1224.28 1684.88 1222.08 z M 239.971 1554.45 C 217.6 1555.35 177.023 1557.58 161.145 1574.6 C 155.573 1580.57 152.418 1587.59 149.683 1595.16 C 196.013 1587.9 247.228 1584.26 293.914 1589.7 C 322.944 1592.08 351.303 1597.73 379.863 1603.21 C 356.569 1573.37 316.261 1560.53 279.856 1556.03 C 266.741 1554.41 253.177 1553.8 239.971 1554.45 z M 1774.77 1566.59 C 1735.64 1569.45 1673.36 1577.55 1646.3 1608.71 C 1642.4 1613.23 1638.7 1617.92 1635.21 1622.76 C 1667.07 1615.73 1698.67 1609.82 1731.17 1606.39 C 1777.34 1601.68 1834.38 1599.12 1879.71 1608.65 C 1877.86 1598.09 1874.93 1587.74 1870.98 1577.77 C 1843.01 1564.68 1805.18 1563.66 1774.77 1566.59 z M 1085.22 1593.77 C 1056.41 1612.04 1029.62 1634.53 1010.16 1662.78 C 1023.89 1674.67 1037.6 1686.58 1050.24 1699.64 C 1056.05 1705.65 1062.48 1711.56 1067.75 1718.05 C 1079.2 1718.91 1090.15 1720.76 1101.41 1722.91 C 1098.54 1699.77 1094.71 1676.84 1092.45 1653.61 C 1090.72 1635.99 1090.32 1610.62 1086.6 1594.33 L 1085.22 1593.77 z M 1213.75 1660.32 C 1210.11 1670.07 1206.51 1722.11 1210.02 1731.53 C 1210.54 1732.94 1211.52 1733.59 1212.97 1734.03 C 1214.56 1734.5 1216.96 1734.29 1218.64 1734.31 C 1220.77 1728.86 1223.98 1669.29 1222.41 1665.02 C 1221.74 1663.23 1220.75 1661.96 1218.98 1661.14 C 1217.61 1660.5 1215.27 1660.46 1213.75 1660.32 z M 1397.9 1676.53 C 1392.83 1682.98 1384.74 1719.53 1385.89 1727.63 C 1386.11 1729.15 1386.2 1729.19 1386.72 1730.39 C 1389.62 1732.23 1391.47 1731.99 1394.86 1732.21 C 1398.73 1726.58 1407.16 1688.43 1405.84 1681.61 C 1405.5 1679.82 1404.63 1679.32 1403.43 1678.02 C 1401.51 1677.39 1399.9 1676.86 1397.9 1676.53 z"
     id="path38" />
  <path
     transform="translate(0,0)"
     fill="rgb(254,254,254)"
     d="M 447.018 1178.99 C 433.931 1179.13 391.604 1179.98 381.526 1175.46 C 380.002 1172.44 380.422 1170.99 380.628 1167.67 C 395.324 1168.23 433.952 1167.27 445.955 1171.44 C 447.502 1174.12 447.063 1175.94 447.018 1178.99 z"
     id="path39" />
  <path
     transform="translate(0,0)"
     fill="rgb(254,254,254)"
     d="M 1646.71 1200.7 C 1643.51 1200.51 1643.02 1200.4 1640.39 1198.6 C 1639.82 1196.14 1639.8 1196.24 1641.07 1194.05 C 1651.78 1187.03 1679.07 1184.38 1692.51 1182.33 L 1696.37 1182.4 C 1698.43 1183.93 1698.57 1184.03 1699.35 1186.46 L 1698.29 1188.41 C 1687.82 1196.05 1659.83 1198.41 1646.71 1200.7 z"
     id="path40" />
  <path
     transform="translate(0,0)"
     fill="rgb(254,254,254)"
     d="M 281.162 1280.87 C 316.401 1281.68 352.684 1280.89 383.363 1261.31 C 400.835 1250.15 412.702 1233.78 417.266 1213.58 L 445.065 1214.36 C 453.112 1230.86 457.32 1251.4 461.789 1269.24 C 458.141 1269.58 453.712 1269.59 450.595 1271.72 C 448.375 1273.24 447.879 1275.09 447.282 1277.54 C 447.857 1279.37 448.267 1280.19 449.745 1281.52 C 453.623 1285.01 459.584 1283.49 464.265 1282.95 C 467.081 1296.74 469.553 1310.59 471.679 1324.5 C 469.586 1326.17 467.161 1327.94 465.398 1329.94 C 463.892 1331.65 463.217 1333.09 463.212 1335.37 C 465.396 1338 470.62 1338.37 473.877 1339.47 C 478.487 1347.28 479.437 1391.16 479.055 1401.39 C 478.702 1410.44 477.742 1419.46 476.181 1428.38 C 473.566 1443.33 468.45 1457.71 462.339 1471.56 C 444.35 1512.36 419.21 1515.85 378.181 1519.26 C 370.048 1519.93 359.381 1519.83 352.627 1525.04 C 343.927 1531.76 343.942 1549.6 342.711 1559.87 C 292.017 1538.05 234.793 1535.27 181.593 1549.32 C 187.549 1530.52 190.092 1512.55 190.657 1492.95 C 200.868 1490.11 209.999 1484.94 216.709 1476.57 C 223.545 1468.04 231.06 1452.61 232.505 1441.75 C 233.023 1437.86 232.161 1433.24 231.73 1429.34 C 239.504 1436.04 249.435 1445.86 259.617 1448.04 C 263.449 1448.86 266.222 1448.78 269.526 1446.62 C 269.97 1443.39 269.214 1441.39 266.976 1438.97 C 264.095 1435.86 258.352 1433.19 254.685 1430.88 C 241.999 1422.91 233.548 1410.44 227.948 1396.67 C 223.861 1386.63 220.598 1374.06 225.4 1363.72 C 227.687 1358.8 231.633 1355.33 236.829 1353.75 C 258.085 1347.27 259.123 1363.41 270.811 1369.39 C 273.44 1370.73 275.184 1370.74 277.924 1369.84 C 279.387 1367.67 279.917 1366.25 279.787 1363.57 C 279.456 1356.8 274.129 1352.38 269.674 1347.97 C 271.471 1346.2 273.186 1344.35 274.812 1342.42 C 282.657 1333.25 291.55 1318.64 290.107 1306.16 C 289.413 1300.17 285.353 1297.58 281.06 1294.02 L 281.162 1280.87 z M 360.496 1279.29 C 350.324 1280.6 337.311 1283.24 330.522 1291.62 C 328.613 1293.97 327.567 1296.55 327.834 1299.6 C 327.998 1301.46 328.808 1302.1 329.854 1303.55 C 332.332 1304.8 333.932 1305.17 336.699 1304.43 C 338.919 1303.83 341.385 1301.55 343.109 1300.09 L 344.23 1299.32 C 356.543 1290.92 372.139 1295.48 378.613 1288.69 C 378.856 1286.23 378.666 1285.47 376.82 1283.51 C 373.089 1279.54 365.533 1279.18 360.496 1279.29 z M 427.586 1328.63 C 425.272 1331.29 423.823 1332.79 424.15 1336.59 C 425.458 1351.77 438.158 1370.67 445.199 1384.03 C 440.328 1387.38 430.446 1392.23 429.141 1398.14 C 428.799 1399.68 429.38 1401.35 430.308 1402.63 C 431.627 1404.44 433.32 1405.01 435.473 1404.78 C 436.363 1404.68 438.065 1404.18 438.973 1403.93 C 446.386 1399.92 456.534 1393.47 459.63 1385.37 C 456.116 1374.42 449.314 1364.3 444.516 1353.83 C 441.439 1347.11 439.147 1338.13 435.234 1332.14 C 434.452 1330.94 433.987 1330.69 432.975 1329.92 C 431.186 1329.46 429.404 1328.95 427.586 1328.63 z M 353.361 1331.08 C 344.973 1334.93 339.351 1339.67 336.067 1348.56 C 335.081 1351.22 334.72 1353.65 335.325 1356.45 C 336.409 1357.65 336.456 1358.21 338.206 1358.41 C 340.67 1358.69 342.579 1357.92 344.86 1357.14 C 349.081 1352.58 350.128 1347.82 355.669 1344.4 C 358.518 1344.66 361.054 1344.28 363.075 1346.7 C 365.536 1349.64 365.361 1352.61 368.959 1354.66 C 371.885 1354.48 373.087 1354.32 375.575 1352.56 C 377.078 1350.13 377.612 1348.33 377.024 1345.5 C 376.01 1340.62 372.139 1336.07 367.912 1333.58 C 363.496 1330.99 358.34 1330.79 353.361 1331.08 z M 451.139 1415.36 C 429.825 1418.7 408.602 1422.4 387.033 1423.6 C 378.716 1424.06 356.335 1421.36 351.216 1424.67 C 349.51 1427.57 349.315 1429.71 350.246 1432.88 C 353.568 1444.2 366.287 1459.78 375.429 1467.1 C 389.937 1476.61 405.389 1482.6 423.103 1478.53 C 436.28 1475.5 447.409 1466.34 454.189 1454.8 C 459.389 1445.95 464.475 1431.74 461.766 1421.52 C 461.049 1418.82 459.807 1417.24 457.533 1415.64 C 455.153 1415.13 453.547 1414.98 451.139 1415.36 z"
     id="path41" />
  <path
     transform="translate(0,0)"
     fill="rgb(254,254,254)"
     d="M 1567.14 1250.08 C 1586.63 1246.64 1606.28 1245.58 1625.7 1241.24 C 1645.92 1236.71 1665.29 1228.73 1684.88 1222.08 C 1688.8 1224.28 1692.98 1232.89 1695.5 1236.71 C 1713.72 1264.31 1735.72 1283.1 1767.46 1293.11 C 1766.44 1295.2 1765.36 1297.4 1764.92 1299.69 C 1764.22 1303.36 1766.44 1339.33 1767.96 1342.93 C 1770.28 1348.44 1775.99 1353.66 1779.43 1358.67 C 1777.35 1362.25 1773.61 1361.6 1771.37 1365.29 C 1771.41 1368.1 1771.33 1368.9 1773.35 1371.1 C 1780.24 1378.59 1797.06 1364.04 1806.01 1363.81 C 1813.22 1363.63 1820.4 1364.89 1825.71 1370.16 C 1830.78 1375.19 1832.8 1382.69 1832.86 1389.66 C 1833.07 1413.66 1814.75 1436.25 1794.74 1447.44 C 1788.08 1451.17 1777.24 1454.59 1772.33 1460.5 C 1770.72 1462.44 1770.44 1463.58 1770.59 1466.02 C 1772.24 1467.62 1772.75 1468.25 1775.12 1468.59 C 1786.3 1470.19 1810.05 1453.03 1818.66 1446.32 C 1824.51 1461.27 1826.36 1477.35 1831.55 1492.49 C 1834.95 1502.42 1841.63 1510.2 1846.11 1519.51 C 1851.53 1530.77 1852.84 1545.24 1854.97 1557.5 C 1836.94 1554.37 1819.18 1553.01 1800.9 1552.83 C 1758.75 1552.92 1714.2 1558.66 1675.09 1574.79 C 1669.42 1562.7 1664.87 1550.07 1659.17 1537.99 C 1657.8 1535.09 1655.78 1530.26 1653.17 1528.4 C 1650.26 1526.31 1627.64 1528.84 1622.67 1528.64 C 1614.61 1528.28 1606.65 1526.69 1599.06 1523.94 C 1579.44 1516.64 1563.8 1497.97 1555.31 1479.35 C 1527.11 1417.58 1544.01 1311.64 1567.14 1250.08 z M 1561.18 1275.91 C 1559.47 1278.52 1558.76 1279.79 1558.51 1283.01 C 1560.79 1289.18 1573.41 1297.65 1579.53 1299.9 C 1580.54 1300.27 1581.38 1300.26 1582.41 1300.31 C 1584.62 1298.38 1586.84 1296.58 1587.24 1293.45 C 1587.67 1290.16 1586.06 1287.29 1583.91 1284.97 C 1579.37 1280.09 1570.62 1275.84 1563.92 1275.84 C 1563.01 1275.84 1562.09 1275.86 1561.18 1275.91 z M 1661.77 1287.19 C 1656.25 1288.77 1649.1 1290.61 1645.98 1295.95 C 1644.41 1298.64 1644.44 1300.43 1644.75 1303.36 C 1645.61 1304.47 1646.03 1305.65 1647.53 1305.91 C 1659.16 1307.96 1671.55 1291.54 1682.9 1306.09 C 1685.39 1309.27 1687.47 1313.4 1689.15 1317.05 L 1689.76 1318.23 C 1690.99 1320.52 1692.41 1323.89 1694.95 1324.98 C 1697.49 1326.07 1698.18 1325.5 1700.4 1324.32 C 1702.95 1319.84 1703.01 1315.74 1701.5 1310.82 C 1698.96 1302.52 1692.62 1294.84 1684.9 1290.86 C 1677.26 1286.92 1670.13 1286.6 1661.77 1287.19 z M 1557.84 1324.79 C 1554.69 1326.92 1551.52 1329.24 1550.83 1333.26 C 1550.37 1335.94 1551.46 1338.58 1553.16 1340.61 C 1555.21 1343.04 1558.42 1344.57 1561.31 1345.77 C 1564.6 1343.79 1566.71 1341.93 1567.78 1338.12 C 1568.63 1335.08 1568.29 1332.08 1566.51 1329.42 C 1564.31 1326.11 1561.51 1325.4 1557.84 1324.79 z M 1596.53 1332.88 C 1589.86 1339.69 1590.04 1351.66 1586.07 1360.2 C 1580.89 1371.35 1561.86 1377.96 1561.82 1388.86 C 1561.81 1394.23 1566.42 1401.49 1570.31 1404.94 C 1573.14 1407.44 1575.72 1408.42 1579.41 1408.9 C 1581.01 1406.71 1582.78 1404.67 1582.26 1401.77 C 1581.46 1397.26 1575.56 1392.77 1572.49 1389.53 C 1577.1 1386.95 1582.42 1384.4 1586.45 1380.99 C 1594.82 1373.9 1601.51 1359 1604.49 1348.57 C 1605.45 1345.19 1606.87 1339.62 1605.49 1336.16 C 1604.64 1334.03 1603.33 1333.13 1601.14 1332.76 C 1599.74 1332.53 1597.96 1332.79 1596.53 1332.88 z M 1648.71 1339.99 C 1644.68 1342.6 1641.55 1345.07 1640.59 1350.02 C 1640.01 1353.01 1640.71 1356.4 1642.64 1358.8 C 1644.92 1361.64 1647.66 1362.54 1651.03 1363.61 C 1655.19 1361.27 1657.69 1358.79 1659.03 1354.09 C 1659.9 1351.06 1659.69 1347.81 1658.07 1345.06 C 1655.95 1341.44 1652.57 1340.59 1648.71 1339.99 z M 1800.94 1383.89 C 1792.77 1389.95 1784.88 1397.9 1783.53 1408.55 C 1783.19 1411.27 1783.39 1414.14 1785.21 1416.35 C 1787.37 1418.97 1789.99 1419.07 1793.13 1419.03 C 1797.05 1413.61 1796.97 1408.7 1797.27 1402.27 C 1802.19 1398.19 1806.42 1394.93 1809.38 1389.11 C 1809.24 1386.33 1809.37 1386.46 1807.32 1384.59 C 1804.98 1384 1803.38 1383.59 1800.94 1383.89 z M 1571.56 1420.97 C 1567.46 1424.76 1566.24 1427.44 1566.14 1433.02 C 1565.89 1447.99 1574.38 1465.58 1584.85 1476.02 C 1593.25 1484.4 1603.73 1489.29 1615.69 1489.02 C 1631.19 1488.67 1645.26 1480.88 1656.97 1471.28 C 1663.03 1466.24 1681.16 1451.75 1682.17 1444.19 C 1680.74 1441.87 1680.16 1440.65 1677.34 1439.8 C 1671.5 1438.03 1662.61 1439.4 1656.4 1439.06 C 1650.22 1438.72 1644.07 1437.8 1637.99 1436.71 C 1629.3 1435.18 1620.69 1433.19 1612.21 1430.76 C 1598.87 1426.84 1585.62 1420.84 1571.56 1420.97 z"
     id="path42" />
  <path
     transform="translate(0,0)"
     fill="rgb(0,0,0)"
     d="M 1582.41 1300.31 C 1581.38 1300.26 1580.54 1300.27 1579.53 1299.9 C 1573.41 1297.65 1560.79 1289.18 1558.51 1283.01 C 1558.76 1279.79 1559.47 1278.52 1561.18 1275.91 C 1562.09 1275.86 1563.01 1275.84 1563.92 1275.84 C 1570.62 1275.84 1579.37 1280.09 1583.91 1284.97 C 1586.06 1287.29 1587.67 1290.16 1587.24 1293.45 C 1586.84 1296.58 1584.62 1298.38 1582.41 1300.31 z"
     id="path43" />
  <path
     transform="translate(0,0)"
     fill="rgb(0,0,0)"
     d="M 343.109 1300.09 C 341.385 1301.55 338.919 1303.83 336.699 1304.43 C 333.932 1305.17 332.332 1304.8 329.854 1303.55 C 328.808 1302.1 327.998 1301.46 327.834 1299.6 C 327.567 1296.55 328.613 1293.97 330.522 1291.62 C 337.311 1283.24 350.324 1280.6 360.496 1279.29 C 365.533 1279.18 373.089 1279.54 376.82 1283.51 C 378.666 1285.47 378.856 1286.23 378.613 1288.69 C 372.139 1295.48 356.543 1290.92 344.23 1299.32 L 343.109 1300.09 z"
     id="path44" />
  <path
     transform="translate(0,0)"
     fill="rgb(0,0,0)"
     d="M 1689.15 1317.05 C 1687.47 1313.4 1685.39 1309.27 1682.9 1306.09 C 1671.55 1291.54 1659.16 1307.96 1647.53 1305.91 C 1646.03 1305.65 1645.61 1304.47 1644.75 1303.36 C 1644.44 1300.43 1644.41 1298.64 1645.98 1295.95 C 1649.1 1290.61 1656.25 1288.77 1661.77 1287.19 C 1670.13 1286.6 1677.26 1286.92 1684.9 1290.86 C 1692.62 1294.84 1698.96 1302.52 1701.5 1310.82 C 1703.01 1315.74 1702.95 1319.84 1700.4 1324.32 C 1698.18 1325.5 1697.49 1326.07 1694.95 1324.98 C 1692.41 1323.89 1690.99 1320.52 1689.76 1318.23 L 1689.15 1317.05 z"
     id="path45" />
  <path
     transform="translate(0,0)"
     fill="rgb(0,0,0)"
     d="M 1561.31 1345.77 C 1558.42 1344.57 1555.21 1343.04 1553.16 1340.61 C 1551.46 1338.58 1550.37 1335.94 1550.83 1333.26 C 1551.52 1329.24 1554.69 1326.92 1557.84 1324.79 C 1561.51 1325.4 1564.31 1326.11 1566.51 1329.42 C 1568.29 1332.08 1568.63 1335.08 1567.78 1338.12 C 1566.71 1341.93 1564.6 1343.79 1561.31 1345.77 z"
     id="path46" />
  <path
     transform="translate(0,0)"
     fill="rgb(0,0,0)"
     d="M 445.199 1384.03 C 438.158 1370.67 425.458 1351.77 424.15 1336.59 C 423.823 1332.79 425.272 1331.29 427.586 1328.63 C 429.404 1328.95 431.186 1329.46 432.975 1329.92 C 433.987 1330.69 434.452 1330.94 435.234 1332.14 C 439.147 1338.13 441.439 1347.11 444.516 1353.83 C 449.314 1364.3 456.116 1374.42 459.63 1385.37 C 456.534 1393.47 446.386 1399.92 438.973 1403.93 C 438.065 1404.18 436.363 1404.68 435.473 1404.78 C 433.32 1405.01 431.627 1404.44 430.308 1402.63 C 429.38 1401.35 428.799 1399.68 429.141 1398.14 C 430.446 1392.23 440.328 1387.38 445.199 1384.03 z"
     id="path47" />
  <path
     transform="translate(0,0)"
     fill="rgb(0,0,0)"
     d="M 355.669 1344.4 C 350.128 1347.82 349.081 1352.58 344.86 1357.14 C 342.579 1357.92 340.67 1358.69 338.206 1358.41 C 336.456 1358.21 336.409 1357.65 335.325 1356.45 C 334.72 1353.65 335.081 1351.22 336.067 1348.56 C 339.351 1339.67 344.973 1334.93 353.361 1331.08 C 358.34 1330.79 363.496 1330.99 367.912 1333.58 C 372.139 1336.07 376.01 1340.62 377.024 1345.5 C 377.612 1348.33 377.078 1350.13 375.575 1352.56 C 373.087 1354.32 371.885 1354.48 368.959 1354.66 C 365.361 1352.61 365.536 1349.64 363.075 1346.7 C 361.054 1344.28 358.518 1344.66 355.669 1344.4 z"
     id="path48" />
  <path
     transform="translate(0,0)"
     fill="rgb(0,0,0)"
     d="M 1579.41 1408.9 C 1575.72 1408.42 1573.14 1407.44 1570.31 1404.94 C 1566.42 1401.49 1561.81 1394.23 1561.82 1388.86 C 1561.86 1377.96 1580.89 1371.35 1586.07 1360.2 C 1590.04 1351.66 1589.86 1339.69 1596.53 1332.88 C 1597.96 1332.79 1599.74 1332.53 1601.14 1332.76 C 1603.33 1333.13 1604.64 1334.03 1605.49 1336.16 C 1606.87 1339.62 1605.45 1345.19 1604.49 1348.57 C 1601.51 1359 1594.82 1373.9 1586.45 1380.99 C 1582.42 1384.4 1577.1 1386.95 1572.49 1389.53 C 1575.56 1392.77 1581.46 1397.26 1582.26 1401.77 C 1582.78 1404.67 1581.01 1406.71 1579.41 1408.9 z"
     id="path49" />
  <path
     transform="translate(0,0)"
     fill="rgb(0,0,0)"
     d="M 1651.03 1363.61 C 1647.66 1362.54 1644.92 1361.64 1642.64 1358.8 C 1640.71 1356.4 1640.01 1353.01 1640.59 1350.02 C 1641.55 1345.07 1644.68 1342.6 1648.71 1339.99 C 1652.57 1340.59 1655.95 1341.44 1658.07 1345.06 C 1659.69 1347.81 1659.9 1351.06 1659.03 1354.09 C 1657.69 1358.79 1655.19 1361.27 1651.03 1363.61 z"
     id="path50" />
  <path
     transform="translate(0,0)"
     fill="rgb(0,0,0)"
     d="M 1793.13 1419.03 C 1789.99 1419.07 1787.37 1418.97 1785.21 1416.35 C 1783.39 1414.14 1783.19 1411.27 1783.53 1408.55 C 1784.88 1397.9 1792.77 1389.95 1800.94 1383.89 C 1803.38 1383.59 1804.98 1384 1807.32 1384.59 C 1809.37 1386.46 1809.24 1386.33 1809.38 1389.11 C 1806.42 1394.93 1802.19 1398.19 1797.27 1402.27 C 1796.97 1408.7 1797.05 1413.61 1793.13 1419.03 z"
     id="path51" />
  <path
     transform="translate(0,0)"
     fill="rgb(0,0,0)"
     d="M 375.429 1467.1 C 366.287 1459.78 353.568 1444.2 350.246 1432.88 C 349.315 1429.71 349.51 1427.57 351.216 1424.67 C 356.335 1421.36 378.716 1424.06 387.033 1423.6 C 408.602 1422.4 429.825 1418.7 451.139 1415.36 C 453.547 1414.98 455.153 1415.13 457.533 1415.64 C 459.807 1417.24 461.049 1418.82 461.766 1421.52 C 464.475 1431.74 459.389 1445.95 454.189 1454.8 C 447.409 1466.34 436.28 1475.5 423.103 1478.53 C 405.389 1482.6 389.937 1476.61 375.429 1467.1 z M 445.747 1429.43 C 419.816 1433.22 394.628 1435.85 368.418 1436.88 C 372.3 1445.26 376.73 1451.96 384.244 1457.63 C 394.967 1464.29 406.646 1469.02 419.499 1466.08 C 428.587 1464 437.259 1457.98 442.1 1449.95 C 445.49 1444.33 448.456 1437.96 449.166 1431.41 L 448.355 1429.46 L 445.747 1429.43 z"
     id="path52" />
  <path
     transform="translate(0,0)"
     fill="rgb(0,0,0)"
     d="M 1656.97 1471.28 C 1645.26 1480.88 1631.19 1488.67 1615.69 1489.02 C 1603.73 1489.29 1593.25 1484.4 1584.85 1476.02 C 1574.38 1465.58 1565.89 1447.99 1566.14 1433.02 C 1566.24 1427.44 1567.46 1424.76 1571.56 1420.97 C 1585.62 1420.84 1598.87 1426.84 1612.21 1430.76 C 1620.69 1433.19 1629.3 1435.18 1637.99 1436.71 C 1644.07 1437.8 1650.22 1438.72 1656.4 1439.06 C 1662.61 1439.4 1671.5 1438.03 1677.34 1439.8 C 1680.16 1440.65 1680.74 1441.87 1682.17 1444.19 C 1681.16 1451.75 1663.03 1466.24 1656.97 1471.28 z M 1578.91 1433.8 C 1581.02 1448.09 1586.34 1461.92 1598.54 1470.65 C 1605.76 1475.81 1614.16 1477.28 1622.81 1475.54 C 1632.12 1473.66 1639.77 1468.8 1647.23 1463.19 C 1651.74 1459.4 1656.13 1455.65 1660.21 1451.38 C 1642.68 1450.44 1626.87 1447.63 1610.05 1442.63 C 1599.79 1439.58 1589.42 1435.79 1578.91 1433.8 z"
     id="path53" />
  <path
     transform="translate(0,0)"
     fill="rgb(254,254,254)"
     d="M 368.418 1436.88 C 394.628 1435.85 419.816 1433.22 445.747 1429.43 L 448.355 1429.46 L 449.166 1431.41 C 448.456 1437.96 445.49 1444.33 442.1 1449.95 C 437.259 1457.98 428.587 1464 419.499 1466.08 C 406.646 1469.02 394.967 1464.29 384.244 1457.63 C 376.73 1451.96 372.3 1445.26 368.418 1436.88 z"
     id="path54" />
  <path
     transform="translate(0,0)"
     fill="rgb(254,254,254)"
     d="M 1647.23 1463.19 C 1639.77 1468.8 1632.12 1473.66 1622.81 1475.54 C 1614.16 1477.28 1605.76 1475.81 1598.54 1470.65 C 1586.34 1461.92 1581.02 1448.09 1578.91 1433.8 C 1589.42 1435.79 1599.79 1439.58 1610.05 1442.63 C 1626.87 1447.63 1642.68 1450.44 1660.21 1451.38 C 1656.13 1455.65 1651.74 1459.4 1647.23 1463.19 z"
     id="path55" />
  <path
     transform="translate(0,0)"
     fill="rgb(254,254,254)"
     d="M 149.683 1595.16 C 152.418 1587.59 155.573 1580.57 161.145 1574.6 C 177.023 1557.58 217.6 1555.35 239.971 1554.45 C 253.177 1553.8 266.741 1554.41 279.856 1556.03 C 316.261 1560.53 356.569 1573.37 379.863 1603.21 C 351.303 1597.73 322.944 1592.08 293.914 1589.7 C 247.228 1584.26 196.013 1587.9 149.683 1595.16 z"
     id="path56" />
  <path
     transform="translate(0,0)"
     fill="rgb(254,254,254)"
     d="M 1635.21 1622.76 C 1638.7 1617.92 1642.4 1613.23 1646.3 1608.71 C 1673.36 1577.55 1735.64 1569.45 1774.77 1566.59 C 1805.18 1563.66 1843.01 1564.68 1870.98 1577.77 C 1874.93 1587.74 1877.86 1598.09 1879.71 1608.65 C 1834.38 1599.12 1777.34 1601.68 1731.17 1606.39 C 1698.67 1609.82 1667.07 1615.73 1635.21 1622.76 z"
     id="path57" />
  <path
     transform="translate(0,0)"
     fill="rgb(254,254,254)"
     d="M 1010.16 1662.78 C 1029.62 1634.53 1056.41 1612.04 1085.22 1593.77 L 1086.6 1594.33 C 1090.32 1610.62 1090.72 1635.99 1092.45 1653.61 C 1094.71 1676.84 1098.54 1699.77 1101.41 1722.91 C 1090.15 1720.76 1079.2 1718.91 1067.75 1718.05 C 1062.48 1711.56 1056.05 1705.65 1050.24 1699.64 C 1037.6 1686.58 1023.89 1674.67 1010.16 1662.78 z"
     id="path58" />
  <path
     transform="translate(0,0)"
     fill="rgb(254,254,254)"
     d="M 1218.64 1734.31 C 1216.96 1734.29 1214.56 1734.5 1212.97 1734.03 C 1211.52 1733.59 1210.54 1732.94 1210.02 1731.53 C 1206.51 1722.11 1210.11 1670.07 1213.75 1660.32 C 1215.27 1660.46 1217.61 1660.5 1218.98 1661.14 C 1220.75 1661.96 1221.74 1663.23 1222.41 1665.02 C 1223.98 1669.29 1220.77 1728.86 1218.64 1734.31 z"
     id="path59" />
  <path
     transform="translate(0,0)"
     fill="rgb(0,0,0)"
     d="M 870.194 1938.47 C 868.296 1937.7 866.437 1936.82 864.569 1935.98 C 863.963 1935.15 863.129 1934.45 862.752 1933.5 C 860.06 1926.69 860.292 1816.68 860.235 1800.01 C 860.136 1771.01 860.262 1742 860.611 1712.99 C 860.745 1701.59 859.567 1687.95 861.473 1676.81 C 861.915 1674.23 863.954 1672.34 865.717 1670.56 C 868.608 1670.82 870.17 1670.92 872.671 1672.56 C 875.98 1681.67 873.759 1739.19 873.744 1752.16 L 874.138 1853.91 C 874.25 1877.45 875.204 1901.04 875.026 1924.56 C 874.976 1931.17 875.078 1933.63 870.194 1938.47 z"
     id="path60" />
  <path
     transform="translate(0,0)"
     fill="rgb(0,0,0)"
     d="M 700.552 1940.86 C 697.445 1940.46 694.959 1940 692.086 1938.72 C 687.323 1932.61 689.712 1902.28 689.772 1892.72 C 689.877 1845.41 688.721 1798.1 686.305 1750.84 C 685.255 1728.03 683.34 1705.11 682.878 1682.29 C 682.794 1678.13 683.892 1677.34 686.508 1674.61 C 688.885 1674.75 691.047 1674.72 693.162 1675.96 C 694.938 1677.01 695.652 1678.91 695.94 1680.87 C 698.384 1697.51 698.097 1715.64 698.998 1732.48 C 701.387 1778.84 702.758 1825.25 703.111 1871.66 C 703.277 1889.32 705.182 1919.92 702.797 1936.08 C 702.502 1938.08 701.74 1939.28 700.552 1940.86 z"
     id="path61" />
  <path
     transform="translate(0,0)"
     fill="rgb(254,254,254)"
     d="M 1394.86 1732.21 C 1391.47 1731.99 1389.62 1732.23 1386.72 1730.39 C 1386.2 1729.19 1386.11 1729.15 1385.89 1727.63 C 1384.74 1719.53 1392.83 1682.98 1397.9 1676.53 C 1399.9 1676.86 1401.51 1677.39 1403.43 1678.02 C 1404.63 1679.32 1405.5 1679.82 1405.84 1681.61 C 1407.16 1688.43 1398.73 1726.58 1394.86 1732.21 z"
     id="path62" />
  <path
     transform="translate(0,0)"
     fill="rgb(0,0,0)"
     d="M 505.436 1948.09 C 503.394 1947.6 501.359 1947.08 499.333 1946.52 C 497.073 1944.12 496.831 1942.88 496.516 1939.61 C 494.307 1916.67 496.601 1890.76 496.809 1867.48 C 497.139 1827.5 497.011 1787.53 496.425 1747.55 C 496.387 1740.95 495.711 1737.48 500.616 1732.51 C 502.729 1732.94 504.351 1733.55 506.357 1734.32 C 508.343 1736.73 508.849 1737.8 509.101 1740.91 C 510.321 1755.96 509.57 1771.77 509.661 1786.9 C 509.86 1817.83 509.839 1848.76 509.6 1879.69 L 509.208 1921.12 C 509.17 1927.92 509.904 1935.64 508.869 1942.32 C 508.459 1944.97 507.083 1946.11 505.436 1948.09 z"
     id="path63" />
  <path
     transform="translate(0,0)"
     fill="rgb(0,0,0)"
     d="M 1012.62 1941.63 C 1010.66 1941.65 1008.93 1941.42 1006.99 1941.14 C 1005.22 1939.84 1004.3 1939.38 1003.6 1937.19 C 999.657 1924.84 1009.83 1787.12 1016.89 1773.92 C 1019.7 1773.69 1021.44 1773.67 1024.2 1774.5 C 1026.01 1776.39 1026.75 1777.32 1027.05 1779.98 C 1028.34 1791.59 1024.13 1812.68 1022.85 1825.19 C 1020.14 1851.78 1017.87 1878.14 1016.95 1904.87 C 1016.62 1914.43 1018.56 1934.34 1012.62 1941.63 z"
     id="path64" />
</svg>
