<?xml version="1.0" encoding="UTF-8" standalone="no"?>
<svg
   version="1.1"
   style="display: block;"
   viewBox="0 0 2048 2048"
   width="1024"
   height="1024"
   id="svg90"
   sodipodi:docname="finance.svg"
   inkscape:version="1.4.2 (2aeb623e1d, 2025-05-12)"
   xmlns:inkscape="http://www.inkscape.org/namespaces/inkscape"
   xmlns:sodipodi="http://sodipodi.sourceforge.net/DTD/sodipodi-0.dtd"
   xmlns="http://www.w3.org/2000/svg"
   xmlns:svg="http://www.w3.org/2000/svg">
  <defs
     id="defs90" />
  <sodipodi:namedview
     id="namedview90"
     pagecolor="#ffffff"
     bordercolor="#000000"
     borderopacity="0.25"
     inkscape:showpageshadow="2"
     inkscape:pageopacity="0.0"
     inkscape:pagecheckerboard="0"
     inkscape:deskcolor="#d1d1d1"
     inkscape:zoom="0.79199219"
     inkscape:cx="89.647349"
     inkscape:cy="491.79778"
     inkscape:window-width="1848"
     inkscape:window-height="1016"
     inkscape:window-x="72"
     inkscape:window-y="27"
     inkscape:window-maximized="1"
     inkscape:current-layer="svg90" />
  <path
     transform="translate(0,0)"
     fill="rgb(24,25,25)"
     d="M 1050.55 555.812 C 942.164 566.054 846.017 486.455 835.848 378.066 C 825.679 269.677 905.342 173.584 1013.74 163.488 C 1122.03 153.401 1218.01 232.972 1228.17 341.259 C 1238.33 449.545 1158.82 545.581 1050.55 555.812 z M 1026.06 183.292 C 927.413 188.235 851.591 272.454 856.998 371.08 C 862.404 469.706 946.978 545.132 1045.58 539.262 C 1143.52 533.432 1218.34 449.539 1212.97 351.566 C 1207.6 253.593 1124.06 178.381 1026.06 183.292 z"
     id="path2" />
  <path
     transform="translate(0,0)"
     fill="rgb(254,254,254)"
     d="M 1045.58 539.262 C 946.978 545.132 862.404 469.706 856.998 371.08 C 851.591 272.454 927.413 188.235 1026.06 183.292 C 1124.06 178.381 1207.6 253.593 1212.97 351.566 C 1218.34 449.539 1143.52 533.432 1045.58 539.262 z M 1009.61 231.394 C 990.511 233.403 973.013 242.531 960.819 257.53 C 950.414 270.329 945.215 286.157 943.517 302.406 C 923.857 304.31 906.518 310.513 893.679 326.308 C 880.442 342.592 875.597 363.862 877.889 384.479 C 880.276 405.954 890.443 427.716 907.682 441.215 C 918.974 450.056 934.79 455.958 949.225 454.195 C 952.457 453.801 955.619 453.008 958.755 452.157 C 982.17 465.16 1004.22 476.602 1031.64 468.724 C 1038.67 466.701 1044.58 463.4 1050.98 459.953 C 1053.88 457.749 1056.85 455.602 1059.67 453.293 C 1079.48 461.256 1098.12 462.632 1118.1 454.078 C 1127.36 450.115 1135.41 444.434 1143.83 439.026 C 1163.31 426.519 1174.35 421.81 1183.21 398.792 C 1191.21 377.995 1186.96 356.38 1178.01 336.575 C 1170.14 319.193 1157.84 304.818 1139.58 298.06 C 1125.92 293.006 1110.92 292.88 1096.63 294.773 C 1088.14 269.865 1074.94 251.336 1050.84 239.453 C 1037.64 232.943 1024.2 231.133 1009.61 231.394 z"
     id="path3" />
  <path
     transform="translate(0,0)"
     fill="rgb(24,25,25)"
     d="M 943.517 302.406 C 945.215 286.157 950.414 270.329 960.819 257.53 C 973.013 242.531 990.511 233.403 1009.61 231.394 C 1024.2 231.133 1037.64 232.943 1050.84 239.453 C 1074.94 251.336 1088.14 269.865 1096.63 294.773 C 1110.92 292.88 1125.92 293.006 1139.58 298.06 C 1157.84 304.818 1170.14 319.193 1178.01 336.575 C 1186.96 356.38 1191.21 377.995 1183.21 398.792 C 1174.35 421.81 1163.31 426.519 1143.83 439.026 C 1135.41 444.434 1127.36 450.115 1118.1 454.078 C 1098.12 462.632 1079.48 461.256 1059.67 453.293 C 1056.85 455.602 1053.88 457.749 1050.98 459.953 C 1044.58 463.4 1038.67 466.701 1031.64 468.724 C 1004.22 476.602 982.17 465.16 958.755 452.157 C 955.619 453.008 952.457 453.801 949.225 454.195 C 934.79 455.958 918.974 450.056 907.682 441.215 C 890.443 427.716 880.276 405.954 877.889 384.479 C 875.597 363.862 880.442 342.592 893.679 326.308 C 906.518 310.513 923.857 304.31 943.517 302.406 z M 1084.74 293.752 C 1082.49 287.87 1079.86 282.718 1076.6 277.329 C 1064.06 277.04 1009.65 271.061 999.36 266.86 C 1023.88 266.101 1047.82 272.062 1072.16 272.287 C 1060.07 261.816 1048.29 258.95 1033.77 253.337 L 1051.03 255.594 C 1037.47 246.531 1021.76 241.199 1005.31 244.382 C 989.621 247.418 974.862 256.906 966.116 270.342 C 957.361 283.789 955.727 297.242 956.181 312.998 C 935.044 314.812 918.014 315.393 903.4 333.343 C 892.211 347.088 888.704 367.657 890.673 384.905 C 892.701 402.655 901.678 420.95 915.86 432.086 C 924.891 439.177 936.293 443.762 947.919 442.12 C 952.829 441.426 957.662 439.687 962.327 438.044 C 978.741 451.329 996.505 462.086 1018.53 459.862 C 1032.77 458.424 1044.65 450.961 1054.79 441.311 C 1042.86 436.774 1030.77 432.146 1019.5 426.11 L 1019.53 424.925 L 1018.26 425.323 L 1018.14 424.742 C 1026.35 426.265 1033.51 429.855 1041.53 431.715 C 1047.98 433.213 1055.64 432.739 1061.7 434.752 C 1063.7 435.416 1064.84 436.707 1065.99 438.382 C 1065.99 438.907 1066 439.432 1066.01 439.957 C 1066.04 441.357 1066.14 442.576 1066.37 443.944 C 1080.93 450.658 1097.97 449.004 1112.73 443.63 C 1123.76 439.614 1133.1 433.476 1142.41 426.436 C 1116.97 416.155 1092.14 404.852 1066.97 393.985 C 1049.26 386.341 1031.12 379.412 1013.75 371.074 C 1025.14 372.445 1036.66 377.416 1047.47 381.219 C 1082.73 393.618 1116.68 409.966 1152.77 419.779 C 1156.32 416.211 1159.89 412.687 1163.18 408.877 C 1150.84 403.951 1139.03 397.613 1126.98 392.011 L 1065.26 364.051 C 1052.52 358.365 1039.7 352.655 1026.73 347.53 C 1019.93 344.843 1012.51 342.836 1006.02 339.535 C 1021.59 337.157 1149.15 393.91 1166.43 405.461 C 1171.61 398.148 1173.44 391.702 1175.31 383.118 C 1160.97 379.105 1036.1 321.53 1033.19 317.701 C 1042.67 319.879 1052.2 322.021 1061.22 325.75 C 1079.69 333.385 1154.05 371.601 1166.07 372.468 L 1168.08 369.1 C 1171.4 369.261 1171.41 372.667 1174.48 372.005 C 1176.5 363.957 1168.77 345.554 1165.68 337.757 C 1154.35 333.897 1137.21 328.548 1127.67 321.899 L 1127.83 320.869 C 1138.44 320.735 1151.67 328.337 1162.08 331.301 C 1151.59 318.13 1140.82 307.977 1123.16 305.9 C 1110.04 304.358 1096.7 307.303 1083.55 307.494 C 1065.56 307.755 1002.3 301.558 986.018 296.124 L 985.772 295.137 C 1014.49 294.757 1056.07 306.943 1083.22 301.576 C 1073.71 295.755 1062.53 292.555 1052.29 288.141 C 1063.5 288.54 1073.83 291.518 1084.74 293.752 z"
     id="path4" />
  <path
     transform="translate(0,0)"
     fill="rgb(254,254,254)"
     d="M 1076.6 277.329 C 1079.86 282.718 1082.49 287.87 1084.74 293.752 C 1073.83 291.518 1063.5 288.54 1052.29 288.141 C 1062.53 292.555 1073.71 295.755 1083.22 301.576 C 1056.07 306.943 1014.49 294.757 985.772 295.137 L 986.018 296.124 C 1002.3 301.558 1065.56 307.755 1083.55 307.494 C 1096.7 307.303 1110.04 304.358 1123.16 305.9 C 1140.82 307.977 1151.59 318.13 1162.08 331.301 C 1151.67 328.337 1138.44 320.735 1127.83 320.869 L 1127.67 321.899 C 1137.21 328.548 1154.35 333.897 1165.68 337.757 C 1168.77 345.554 1176.5 363.957 1174.48 372.005 C 1171.41 372.667 1171.4 369.261 1168.08 369.1 L 1166.07 372.468 C 1154.05 371.601 1079.69 333.385 1061.22 325.75 C 1052.2 322.021 1042.67 319.879 1033.19 317.701 C 1036.1 321.53 1160.97 379.105 1175.31 383.118 C 1173.44 391.702 1171.61 398.148 1166.43 405.461 C 1149.15 393.91 1021.59 337.157 1006.02 339.535 C 1012.51 342.836 1019.93 344.843 1026.73 347.53 C 1039.7 352.655 1052.52 358.365 1065.26 364.051 L 1126.98 392.011 C 1139.03 397.613 1150.84 403.951 1163.18 408.877 C 1159.89 412.687 1156.32 416.211 1152.77 419.779 C 1116.68 409.966 1082.73 393.618 1047.47 381.219 C 1036.66 377.416 1025.14 372.445 1013.75 371.074 C 1031.12 379.412 1049.26 386.341 1066.97 393.985 C 1092.14 404.852 1116.97 416.155 1142.41 426.436 C 1133.1 433.476 1123.76 439.614 1112.73 443.63 C 1097.97 449.004 1080.93 450.658 1066.37 443.944 C 1066.14 442.576 1066.04 441.357 1066.01 439.957 C 1066 439.432 1065.99 438.907 1065.99 438.382 C 1064.84 436.707 1063.7 435.416 1061.7 434.752 C 1055.64 432.739 1047.98 433.213 1041.53 431.715 C 1033.51 429.855 1026.35 426.265 1018.14 424.742 L 1018.26 425.323 L 1019.53 424.925 L 1019.5 426.11 C 1030.77 432.146 1042.86 436.774 1054.79 441.311 C 1044.65 450.961 1032.77 458.424 1018.53 459.862 C 996.505 462.086 978.741 451.329 962.327 438.044 C 957.662 439.687 952.829 441.426 947.919 442.12 C 936.293 443.762 924.891 439.177 915.86 432.086 C 901.678 420.95 892.701 402.655 890.673 384.905 C 888.704 367.657 892.211 347.088 903.4 333.343 C 918.014 315.393 935.044 314.812 956.181 312.998 C 955.727 297.242 957.361 283.789 966.116 270.342 C 974.862 256.906 989.621 247.418 1005.31 244.382 C 1021.76 241.199 1037.47 246.531 1051.03 255.594 L 1033.77 253.337 C 1048.29 258.95 1060.07 261.816 1072.16 272.287 C 1047.82 272.062 1023.88 266.101 999.36 266.86 C 1009.65 271.061 1064.06 277.04 1076.6 277.329 z M 1077.47 316.228 C 1086.02 323.307 1156.31 352.982 1166.55 351.993 C 1167.01 351.949 1167.46 351.845 1167.91 351.771 C 1163.1 345.432 1090.89 317.944 1080.42 316.557 C 1079.44 316.431 1078.45 316.321 1077.47 316.228 z M 1016.73 399.969 C 1032.52 406.353 1090.13 432.686 1104.61 431.703 C 1103.96 429.043 1104.16 428.054 1101.77 426.514 C 1093.32 421.09 1025.94 400.206 1016.73 399.969 z"
     id="path5" />
  <path
     transform="translate(0,0)"
     fill="rgb(2,3,4)"
     d="M 1167.91 351.771 C 1167.46 351.845 1167.01 351.949 1166.55 351.993 C 1156.31 352.982 1086.02 323.307 1077.47 316.228 C 1078.45 316.321 1079.44 316.431 1080.42 316.557 C 1090.89 317.944 1163.1 345.432 1167.91 351.771 z"
     id="path6" />
  <path
     transform="translate(0,0)"
     fill="rgb(24,25,25)"
     d="M 1487.62 669.551 C 1452.59 630.879 1434.59 591.22 1432.64 538.486 C 1431.04 487.345 1449.95 437.687 1485.16 400.559 C 1520.06 363.192 1566.21 346.136 1616.59 344.448 C 1662.64 344.921 1705.32 359.32 1740.56 389.476 C 1780.15 423.349 1804.38 469.508 1808.14 521.589 C 1811.73 571.229 1794.54 624.341 1761.85 661.993 C 1730.08 698.579 1680.63 717.124 1633.19 720.233 C 1592.56 722.895 1538.98 710.804 1507.77 683.406 C 1494.45 692.405 1480.82 700.305 1468.33 710.549 C 1477.33 729.399 1526.83 796.105 1528.47 803.305 C 1531.27 815.569 1529.41 831.5 1529.31 844.147 C 1529.2 859.599 1529.45 875.039 1529.52 890.49 L 1531.15 1118.2 L 1537.26 1604.83 L 1538.93 1736.45 C 1539.15 1757.71 1540.15 1779.18 1539.18 1800.42 C 1528.12 1812.72 1513.5 1823.26 1501.14 1834.35 C 1483.75 1849.95 1463.65 1871.33 1444.68 1884.07 C 1403.5 1880.39 1362.03 1878.4 1320.79 1875.39 L 1101.44 1858.2 C 1029.28 1852.83 956.821 1848.43 884.826 1841.23 C 812.474 1836.26 740.173 1830.56 667.934 1824.15 C 651.976 1822.7 622.775 1822.88 609.206 1817.58 C 608.348 1814.72 607.872 1811.92 607.56 1808.95 C 606.243 1796.41 606.663 1783.44 606.473 1770.82 L 605.465 1704.31 C 604.039 1631.13 603.075 1557.95 602.575 1484.77 L 597.265 1078.93 C 596.583 972.31 595.156 865.694 592.984 759.092 C 592.885 755.055 592.49 750.406 595.42 747.213 C 597.692 744.736 605.6 744.612 608.873 744.307 C 655.959 739.928 703.518 738.989 750.724 736.014 C 893.467 727.565 1036.26 720.015 1179.1 713.367 C 1267.87 709.115 1357.04 707.55 1445.63 700.352 C 1459.31 689.666 1473.32 679.394 1487.62 669.551 z M 1606.29 365.805 C 1512.08 374.942 1443.35 459.095 1453.21 553.241 C 1463.08 647.387 1547.76 715.463 1641.83 704.869 C 1734.87 694.39 1802.04 610.829 1792.29 517.708 C 1782.53 424.587 1699.49 356.767 1606.29 365.805 z M 1438.8 716.46 C 1161.37 728.267 884.067 742.681 606.914 759.7 L 622.153 1805.57 L 673.246 1809.15 L 1311.17 1858.29 C 1351.83 1861.08 1392.4 1865.17 1433.12 1867.36 C 1435.44 1788.51 1436.88 1709.64 1437.42 1630.77 L 1442.34 1171.1 L 1444.27 881.502 C 1444.68 845.652 1444.89 809.8 1444.91 773.947 C 1444.98 755.401 1446.16 736.169 1444.61 717.714 C 1442.46 715.834 1441.58 716.366 1438.8 716.46 z M 1460.7 729.443 L 1450.08 1858.55 L 1483.13 1828.57 C 1496.7 1816.95 1509.26 1803.78 1523.12 1792.62 C 1524.79 1739.56 1522.74 1685.82 1522.12 1632.7 L 1519.07 1358 L 1515.01 997.602 C 1514.42 933.732 1515.54 869.627 1513.7 805.797 C 1501.28 789.987 1490.02 773.535 1478.9 756.797 C 1473.81 749.127 1467.1 735.418 1460.7 729.443 z"
     id="path7" />
  <path
     fill="#181919"
     d="m 464.8909,681.81528 c -104.623,9.827 -197.397,-67.032 -207.203,-171.656 -9.806,-104.625 67.071,-197.384 171.697,-207.17 104.597,-9.783 197.325,67.068 207.129,171.664 9.803,104.595 -67.03,197.338 -171.623,207.162 z m -29.602,-358.267 c -93.964,7.732 -163.889,90.141 -156.22,184.111 7.669,93.969 90.031,163.949 184.006,156.344 94.064,-7.613 164.126,-90.071 156.449,-184.13 -7.676,-94.059 -90.181,-164.065 -184.235,-156.325 z"
     id="path8" />
  <path
     transform="translate(0,0)"
     fill="rgb(254,254,254)"
     d="M 1641.83 704.869 C 1547.76 715.463 1463.08 647.387 1453.21 553.241 C 1443.35 459.095 1512.08 374.942 1606.29 365.805 C 1699.49 356.767 1782.53 424.587 1792.29 517.708 C 1802.04 610.829 1734.87 694.39 1641.83 704.869 z M 1621.57 399.242 C 1601.93 402.827 1586.84 410.981 1575.44 427.739 C 1561.23 448.616 1560.74 470.71 1562.29 495.052 C 1546.93 495.672 1531.09 495.827 1517.24 503.369 C 1516.73 534.871 1516.57 566.379 1516.76 597.885 C 1516.85 611.948 1515.97 626.749 1517.38 640.7 C 1517.78 644.624 1518.16 649.751 1520.92 652.773 C 1533.55 657.226 1618.58 656.012 1638.27 655.802 C 1667.2 655.046 1699.75 655.738 1728.22 651.625 C 1731.51 648.157 1734.06 645.438 1735.39 640.78 C 1740.23 623.717 1738.24 594.608 1738.28 576.505 C 1738.32 558.65 1738.71 540.766 1738.22 522.915 C 1737.95 512.878 1737.82 501.712 1732.46 492.898 C 1723.52 486.406 1709.09 489.077 1698.72 490.393 C 1702.95 468.845 1702.02 446.22 1689.24 427.545 C 1678.99 412.563 1661.66 403.266 1644.02 400.243 C 1636.7 398.989 1628.96 398.565 1621.57 399.242 z"
     id="path9" />
  <path
     fill="#fefefe"
     d="m 463.0749,664.00328 c -93.975,7.605 -176.337,-62.375 -184.006,-156.344 -7.669,-93.97 62.256,-176.379 156.22,-184.111 94.054,-7.74 176.559,62.266 184.235,156.325 7.677,94.059 -62.385,176.517 -156.449,184.13 z m -53.957,-296.805 c -6.531,1.509 -13.513,2.775 -19.409,6.1 -1.92,1.082 -38.088,35.157 -39.577,37.471 -5.766,8.961 -5.682,18.779 -5.538,28.987 -9.97,7.085 -17.636,13.963 -19.855,26.691 -2.639,15.139 3.522,29.524 9.036,43.241 -4.92,16.083 -9.825,33.653 -1.149,49.546 4.39,8.041 11.682,13.106 20.428,15.488 6.081,1.656 12.368,1.55 18.616,1.572 7.487,11.654 16.739,19.388 30.632,22.43 11.158,2.443 22.853,0.56 32.339,-5.921 7.947,-5.431 12.349,-12.48 17.006,-20.622 5.871,10.699 12.986,18.843 25.098,22.498 3.768,1.137 7.829,1.625 11.753,1.865 15.568,-0.558 24.157,-6.458 35.362,-16.549 12.639,0.325 22.647,-0.184 32.415,-9.437 7.737,-7.328 11.614,-17.358 11.803,-27.92 0.161,-9.038 -2.443,-16.573 -5.861,-24.736 9.629,-12.785 17.474,-25.611 14.936,-42.409 -2.009,-13.297 -10.092,-22.362 -19.88,-30.772 3.305,-9.673 3.071,-20.57 -1.663,-29.772 -4.357,-8.471 -11.555,-13.802 -20.064,-17.648 -6.074,-12.977 -16.124,-21.964 -29.577,-26.884 -11.97,-4.377 -26.254,-5.389 -38.048,-0.049 -7.711,3.49 -12.638,8.651 -17.817,15.185 -7.245,-9.597 -15.646,-16.901 -28.131,-18.324 -3.921,-0.446 -8.968,-0.633 -12.855,-0.031 z"
     id="path10" />
  <path
     transform="translate(0,0)"
     fill="rgb(2,3,4)"
     d="M 1562.29 495.052 C 1560.74 470.71 1561.23 448.616 1575.44 427.739 C 1586.84 410.981 1601.93 402.827 1621.57 399.242 C 1628.96 398.565 1636.7 398.989 1644.02 400.243 C 1661.66 403.266 1678.99 412.563 1689.24 427.545 C 1702.02 446.22 1702.95 468.845 1698.72 490.393 C 1709.09 489.077 1723.52 486.406 1732.46 492.898 C 1737.82 501.712 1737.95 512.878 1738.22 522.915 C 1738.71 540.766 1738.32 558.65 1738.28 576.505 C 1738.24 594.608 1740.23 623.717 1735.39 640.78 C 1734.06 645.438 1731.51 648.157 1728.22 651.625 C 1699.75 655.738 1667.2 655.046 1638.27 655.802 C 1618.58 656.012 1533.55 657.226 1520.92 652.773 C 1518.16 649.751 1517.78 644.624 1517.38 640.7 C 1515.97 626.749 1516.85 611.948 1516.76 597.885 C 1516.57 566.379 1516.73 534.871 1517.24 503.369 C 1531.09 495.827 1546.93 495.672 1562.29 495.052 z M 1728.67 542.543 C 1724.99 540.686 1720.94 539.158 1718.32 535.878 L 1718.38 533.573 C 1721.93 531.025 1727.48 534.675 1728.3 530.487 C 1729.88 522.464 1728.34 507.183 1724.14 500.316 C 1714.71 494.451 1679.2 503.812 1666.77 505.093 C 1644.63 507.373 1621.35 507.09 1599.11 506.186 C 1578.54 505.35 1554.68 501.416 1534.59 506.018 C 1532.33 506.534 1530.75 507.147 1528.9 508.506 C 1524.26 516.656 1526.18 564.744 1527.08 576.438 C 1534.34 579.269 1539.82 581.489 1545.33 587.247 L 1545.65 588.917 C 1543.25 589.876 1540.86 589.379 1538.52 588.496 C 1534.21 586.879 1530.11 584.494 1525.94 582.559 L 1525.97 598.698 C 1535.04 603.385 1548.97 609.249 1554.73 618 L 1554.11 619.33 C 1545 619.049 1533.64 610.251 1526.1 605.526 C 1526.02 611.194 1524.85 619.911 1526.78 625.104 C 1527.89 625.252 1529 625.398 1530.12 625.514 C 1536.76 626.208 1551.34 630.395 1555.74 635.565 C 1556.55 636.513 1556.52 636.631 1556.92 637.622 L 1556.16 639.594 C 1547.79 642.127 1532.89 627.676 1527.38 631.446 C 1527.41 634.86 1527.93 638.348 1530.26 641.016 C 1533.8 645.086 1664.96 644.86 1681.09 644.508 C 1694.24 644.22 1708.97 644.533 1721.85 641.959 L 1723.28 641.986 C 1723.38 641.946 1723.49 641.92 1723.59 641.868 C 1725.78 640.726 1726.31 640.503 1727.01 638.052 C 1728.53 632.785 1729.83 621.966 1727.13 617.176 L 1723.26 617.724 C 1716.93 615.133 1710.88 610.65 1705.52 606.429 C 1702.28 603.875 1697.67 600.696 1697.15 596.321 L 1698.73 594.757 L 1700.83 594.849 C 1709.34 601.127 1718.83 606.531 1727.64 612.47 L 1727.5 596.13 C 1719.85 590.377 1685.95 571.019 1683.23 564.978 C 1691.44 562.941 1697.35 572.15 1703.02 575.817 C 1705.64 577.51 1725.2 587.141 1727.48 587.27 L 1728.89 584.374 C 1730.69 575.168 1730.86 551.603 1728.67 542.543 z M 1619.25 410.284 C 1604.52 412.911 1592.01 420.276 1583.26 432.612 C 1569.85 451.516 1569.31 473.657 1572.21 495.823 C 1596.41 496.93 1621.53 498.567 1645.71 496.181 C 1660.19 495.459 1674.64 494.271 1689.04 492.618 C 1693.45 474.241 1692.84 453.449 1682.46 437.066 C 1673.85 423.478 1659.59 414.472 1643.97 411.259 C 1635.72 409.563 1627.6 409.743 1619.25 410.284 z"
     id="path11" />
  <path
     transform="translate(0,0)"
     fill="rgb(24,25,25)"
     d="M 1104.61 431.703 C 1090.13 432.686 1032.52 406.353 1016.73 399.969 C 1025.94 400.206 1093.32 421.09 1101.77 426.514 C 1104.16 428.054 1103.96 429.043 1104.61 431.703 z"
     id="path12" />
  <path
     fill="#181919"
     d="m 344.5939,439.75628 c -0.144,-10.208 -0.228,-20.026 5.538,-28.987 1.489,-2.314 37.657,-36.389 39.577,-37.471 5.896,-3.325 12.878,-4.591 19.409,-6.1 3.887,-0.602 8.934,-0.415 12.855,0.031 12.485,1.423 20.886,8.727 28.131,18.324 5.179,-6.534 10.106,-11.695 17.817,-15.185 11.794,-5.34 26.078,-4.328 38.048,0.049 13.453,4.92 23.503,13.907 29.577,26.884 8.509,3.846 15.707,9.177 20.064,17.648 4.734,9.202 4.968,20.099 1.663,29.772 9.788,8.41 17.871,17.475 19.88,30.772 2.538,16.798 -5.307,29.624 -14.936,42.409 3.418,8.163 6.022,15.698 5.861,24.736 -0.189,10.562 -4.066,20.592 -11.803,27.92 -9.768,9.253 -19.776,9.762 -32.415,9.437 -11.205,10.091 -19.794,15.991 -35.362,16.549 -3.924,-0.24 -7.985,-0.728 -11.753,-1.865 -12.112,-3.655 -19.227,-11.799 -25.098,-22.498 -4.657,8.142 -9.059,15.191 -17.006,20.622 -9.486,6.481 -21.181,8.364 -32.339,5.921 -13.893,-3.042 -23.145,-10.776 -30.632,-22.43 -6.248,-0.022 -12.535,0.084 -18.616,-1.572 -8.746,-2.382 -16.038,-7.447 -20.428,-15.488 -8.676,-15.893 -3.771,-33.463 1.149,-49.546 -5.514,-13.717 -11.675,-28.102 -9.036,-43.241 2.219,-12.728 9.885,-19.606 19.855,-26.691 z m 12.829,113.043 -1.417,-2.041 c 1.111,-8.265 -2.298,-17.33 3.46,-24.338 5.054,-4.11 13.981,-5.296 20.281,-7.951 3,2.103 5.744,5.426 6.546,9.069 0.374,1.695 -0.316,1.993 -1.194,3.317 -6.336,2.322 -14.505,0.181 -20.979,-1.173 -1.953,2.214 -2.914,2.741 -3.217,5.74 3.123,3.004 7.247,2.8 10.549,5.662 0.326,3.027 0.938,5.242 -1.11,7.879 -1.621,2.088 -4.413,3.98 -6.578,5.448 3.77,0.733 7.221,1.034 9.595,4.417 0.65,0.927 1.224,1.895 1.792,2.872 4.712,11.499 7.939,20.427 20.127,25.611 9.617,4.091 19.518,4.737 29.204,0.36 7.128,-3.221 13.308,-8.994 15.972,-16.464 5.662,-15.88 2.636,-92.086 4.145,-115.219 -8.152,5.35 -15.981,11.659 -26.355,9.799 -8.691,-1.559 -16.211,-8.041 -20.978,-15.218 -4.84,-7.287 -7.495,-16.71 -5.648,-25.409 0.892,-4.202 3.407,-9.845 7.29,-12.118 2.725,-1.595 5.178,-1.91 8.185,-0.812 3.771,1.376 6.978,4.885 8.593,8.493 1.122,2.507 1.266,4.415 1.046,7.111 -1.321,2.659 -2.39,3.661 -4.672,5.419 l -2.038,0.264 c -3.072,-4.334 0.747,-13.487 -4.094,-16.143 -2.844,0.698 -5.591,2.526 -7.006,5.174 -2.343,4.385 -1.869,10.489 -0.281,15.01 2.733,7.783 9.229,15.454 16.831,18.825 5.465,2.457 11.703,2.535 17.228,0.217 4.594,-1.98 7.958,-5.866 9.445,-10.649 3.297,-10.6 4.344,-47.635 -0.82,-57.028 -3.431,-6.243 -8.821,-10.42 -15.703,-12.218 -10.871,-2.839 -24.26,-0.561 -33.801,5.269 -7.39,4.516 -11.121,9.539 -14.514,17.349 -9.657,4.469 -18.738,9.319 -22.812,19.858 -2.431,6.287 -3.704,18.618 -1.101,25.009 1.734,1.179 1.513,1.441 3.746,1.263 4.005,-4.189 1.392,-17.356 4.218,-18.955 2.211,4.165 0.606,5.943 3.819,12.402 1.061,2.132 1.781,3.63 1.098,6.074 -0.789,2.826 -2.387,4.532 -4.796,6.116 -4.033,0.938 -6.947,-0.009 -10.882,-0.997 -4.034,-1.013 -6.635,-0.914 -10.165,1.45 -4.171,2.793 -5.885,7.604 -6.619,12.363 -2.594,16.806 2.689,29.016 8.927,43.984 -2.739,15.517 -9.391,35.686 0.992,49.699 5.898,7.959 14.343,10.048 23.582,11.315 -2.035,-4.55 -2.55,-9.782 -4.437,-14.534 z m 124.751,-177.377 c -8.812,1.26 -16.266,3.583 -21.708,11.181 -2.45,3.42 -3.934,7.264 -4.652,11.396 -2.149,12.369 -0.559,40.31 0.448,53.429 l 1.235,0.728 c 7.785,4.512 16.249,7.77 25.333,5.292 6.64,-1.811 11.981,-6.552 15.148,-12.597 2.826,-5.395 4.085,-12.064 2.218,-17.979 -1.007,-3.191 -2.683,-5.34 -5.018,-7.658 -1.383,-0.348 -2.071,-0.973 -3.342,-0.048 -5.974,4.345 -3.198,15.01 -7.499,20.007 -2.494,-2.835 -3.176,-8.777 -2.847,-12.481 0.38,-4.268 3.266,-9.128 6.502,-11.854 2.138,-1.802 4.096,-2.389 6.902,-2.116 4.247,0.412 8.081,3.98 10.332,7.364 4.184,6.289 4.012,15.037 2.288,22.1 -2.069,8.477 -7.032,16.428 -14.665,20.918 -6.85,4.03 -14.522,4.615 -22.118,2.574 -5.496,-1.477 -10.456,-4.49 -15.307,-7.381 -0.097,14.699 -1.921,104.261 1.294,112.27 l 1.051,-0.675 c 1.451,-0.919 2.614,-1.735 4.299,-2.102 0.31,0.482 0.632,0.955 0.928,1.445 1.326,2.188 1.07,3.909 0.923,6.38 6.907,7.253 14.995,13.404 25.473,13.38 9.427,-0.022 18.577,-4.998 24.978,-11.695 3.521,-3.684 6.396,-8.153 9.019,-12.497 l 1.15,0.364 1.624,5.421 c 4.399,2.316 10.715,1.055 15.259,-0.397 6.755,-2.157 11.935,-6.886 15.05,-13.214 5.058,-10.277 4.196,-21.863 0.306,-32.357 -0.799,-2.129 -1.642,-4.242 -2.53,-6.336 8.359,-13.832 17.821,-28.303 13.82,-45.311 -2.611,-11.098 -10.222,-19.039 -19.323,-25.35 -0.267,0.263 -0.531,0.53 -0.801,0.79 -2.233,2.153 -3.444,3.364 -6.66,3.807 -2.683,-0.896 -3.557,-1.065 -5.026,-3.698 -1.827,-3.273 -0.776,-9.613 0.855,-12.775 0.706,-1.367 1.748,-2.186 2.94,-3.098 2.096,-0.077 2.893,-0.191 4.534,1.414 2.719,2.659 3.262,5.935 4.141,9.459 0.281,1.126 0.605,2.246 0.903,3.368 1.541,-11.214 3.225,-23.449 -3.895,-33.256 -3.864,-5.321 -8.94,-8.065 -14.916,-10.394 -7.343,-12.795 -14.895,-21.846 -29.83,-25.845 -5.974,-1.6 -12.628,-2.259 -18.816,-1.973 z"
     id="path13" />
  <path
     transform="translate(0,0)"
     fill="rgb(254,254,254)"
     d="M 1572.21 495.823 C 1569.31 473.657 1569.85 451.516 1583.26 432.612 C 1592.01 420.276 1604.52 412.911 1619.25 410.284 C 1627.6 409.743 1635.72 409.563 1643.97 411.259 C 1659.59 414.472 1673.85 423.478 1682.46 437.066 C 1692.84 453.449 1693.45 474.241 1689.04 492.618 C 1674.64 494.271 1660.19 495.459 1645.71 496.181 C 1621.53 498.567 1596.41 496.93 1572.21 495.823 z"
     id="path14" />
  <path
     fill="#fefefe"
     d="m 456.2619,451.42828 c -1.007,-13.119 -2.597,-41.06 -0.448,-53.429 0.718,-4.132 2.202,-7.976 4.652,-11.396 5.442,-7.598 12.896,-9.921 21.708,-11.181 6.188,-0.286 12.842,0.373 18.816,1.973 14.935,3.999 22.487,13.05 29.83,25.845 5.976,2.329 11.052,5.073 14.916,10.394 7.12,9.807 5.436,22.042 3.895,33.256 -0.298,-1.122 -0.622,-2.242 -0.903,-3.368 -0.879,-3.524 -1.422,-6.8 -4.141,-9.459 -1.641,-1.605 -2.438,-1.491 -4.534,-1.414 -1.192,0.912 -2.234,1.731 -2.94,3.098 -1.631,3.162 -2.682,9.502 -0.855,12.775 1.469,2.633 2.343,2.802 5.026,3.698 3.216,-0.443 4.427,-1.654 6.66,-3.807 0.27,-0.26 0.534,-0.527 0.801,-0.79 9.101,6.311 16.712,14.252 19.323,25.35 4.001,17.008 -5.461,31.479 -13.82,45.311 0.888,2.094 1.731,4.207 2.53,6.336 3.89,10.494 4.752,22.08 -0.306,32.357 -3.115,6.328 -8.295,11.057 -15.05,13.214 -4.544,1.452 -10.86,2.713 -15.259,0.397 l -1.624,-5.421 -1.15,-0.364 c -2.623,4.344 -5.498,8.813 -9.019,12.497 -6.401,6.697 -15.551,11.673 -24.978,11.695 -10.478,0.024 -18.566,-6.127 -25.473,-13.38 0.147,-2.471 0.403,-4.192 -0.923,-6.38 -0.296,-0.49 -0.618,-0.963 -0.928,-1.445 -1.685,0.367 -2.848,1.183 -4.299,2.102 l -1.051,0.675 c -3.215,-8.009 -1.391,-97.571 -1.294,-112.27 4.851,2.891 9.811,5.904 15.307,7.381 7.596,2.041 15.268,1.456 22.118,-2.574 7.633,-4.49 12.596,-12.441 14.665,-20.918 1.724,-7.063 1.896,-15.811 -2.288,-22.1 -2.251,-3.384 -6.085,-6.952 -10.332,-7.364 -2.806,-0.273 -4.764,0.314 -6.902,2.116 -3.236,2.726 -6.122,7.586 -6.502,11.854 -0.329,3.704 0.353,9.646 2.847,12.481 4.301,-4.997 1.525,-15.662 7.499,-20.007 1.271,-0.925 1.959,-0.3 3.342,0.048 2.335,2.318 4.011,4.467 5.018,7.658 1.867,5.915 0.608,12.584 -2.218,17.979 -3.167,6.045 -8.508,10.786 -15.148,12.597 -9.084,2.478 -17.548,-0.78 -25.333,-5.292 z m 72.035,20.545 c -3.255,2.6 -5.835,4.637 -6.123,9.134 -0.241,3.769 1.571,6.986 4.308,9.419 3.687,3.276 6.828,3.86 11.588,4.201 1.73,-2.16 1.935,-3.464 2.544,-6.114 0.994,-4.326 1.94,-7.459 -0.614,-11.597 -1.681,-2.724 -4.444,-4.212 -7.533,-4.833 -1.299,-0.261 -2.867,-0.194 -4.17,-0.21 z m -43.53,4.659 c 0.593,5.719 0.809,6.315 5.204,10.008 3.424,2.878 6.421,6.07 6.931,10.706 0.462,4.193 -0.947,10.135 -3.397,13.533 l -2.142,0.744 c -6.003,-3.478 -9.306,-13.733 -12.105,-19.761 l 0.129,0.148 -1.493,0.779 c 0.009,3.509 -0.16,7.06 0.615,10.501 1.862,4.86 3.934,10.391 9.137,12.546 2.346,0.972 4.942,0.563 7.125,-0.629 4.045,-2.209 6.443,-6.737 7.439,-11.082 1.42,-6.2 0.482,-14.02 -3.156,-19.334 -2.386,-3.485 -6.401,-6.976 -10.606,-7.824 -1.185,-0.239 -2.483,-0.267 -3.681,-0.335 z m 48.321,39.006 c -4.858,2.172 -7.056,7.854 -4.923,12.729 2.132,4.875 7.797,7.118 12.689,5.025 4.947,-2.118 7.221,-7.861 5.065,-12.791 -2.157,-4.931 -7.918,-7.159 -12.831,-4.963 z m -46.629,18.351 c -4.123,2.888 -7.422,5.708 -8.456,10.877 -0.881,4.404 1.003,9.333 3.644,12.81 1.438,1.893 3.136,3.535 4.844,5.179 -5.028,2.072 -11.727,3.988 -15.7,7.641 0.226,0.09 0.482,0.127 0.679,0.27 0.536,0.39 0.997,0.874 1.496,1.311 l 3.691,-0.788 c 9.87,-3.093 19.056,-6.972 24.313,-16.558 2.063,-3.763 3.581,-8.731 2.127,-12.963 -1.334,-3.882 -6.041,-6.118 -9.679,-7.298 -2.286,-0.742 -4.595,-0.629 -6.959,-0.481 z m 29.414,3.459 c -1.204,4.032 -2.311,7.804 0.009,11.694 1.945,3.262 5.399,4.753 8.867,5.738 1.135,-3.901 2.514,-8.422 0.731,-12.372 -1.014,-2.244 -3.05,-3.779 -5.38,-4.413 -1.355,-0.37 -2.831,-0.513 -4.227,-0.647 z"
     id="path15" />
  <path
     fill="#fefefe"
     d="m 359.4659,526.42028 c -5.758,7.008 -2.349,16.073 -3.46,24.338 l 1.417,2.041 5.454,1.571 c 1.887,4.752 2.402,9.984 4.437,14.534 -9.239,-1.267 -17.684,-3.356 -23.582,-11.315 -10.383,-14.013 -3.731,-34.182 -0.992,-49.699 -6.238,-14.968 -11.521,-27.178 -8.927,-43.984 0.734,-4.759 2.448,-9.57 6.619,-12.363 3.53,-2.364 6.131,-2.463 10.165,-1.45 3.935,0.988 6.849,1.935 10.882,0.997 2.409,-1.584 4.007,-3.29 4.796,-6.116 0.683,-2.444 -0.037,-3.942 -1.098,-6.074 -3.213,-6.459 -1.608,-8.237 -3.819,-12.402 -2.826,1.599 -0.213,14.766 -4.218,18.955 -2.233,0.178 -2.012,-0.084 -3.746,-1.263 -2.603,-6.391 -1.33,-18.722 1.101,-25.009 4.074,-10.539 13.155,-15.389 22.812,-19.858 3.393,-7.81 7.124,-12.833 14.514,-17.349 9.541,-5.83 22.93,-8.108 33.801,-5.269 6.882,1.798 12.272,5.975 15.703,12.218 5.164,9.393 4.117,46.428 0.82,57.028 -1.487,4.783 -4.851,8.669 -9.445,10.649 -5.525,2.318 -11.763,2.24 -17.228,-0.217 -7.602,-3.371 -14.098,-11.042 -16.831,-18.825 -1.588,-4.521 -2.062,-10.625 0.281,-15.01 1.415,-2.648 4.162,-4.476 7.006,-5.174 4.841,2.656 1.022,11.809 4.094,16.143 l 2.038,-0.264 c 2.282,-1.758 3.351,-2.76 4.672,-5.419 0.22,-2.696 0.076,-4.604 -1.046,-7.111 -1.615,-3.608 -4.822,-7.117 -8.593,-8.493 -3.007,-1.098 -5.46,-0.783 -8.185,0.812 -3.883,2.273 -6.398,7.916 -7.29,12.118 -1.847,8.699 0.808,18.122 5.648,25.409 4.767,7.177 12.287,13.659 20.978,15.218 10.374,1.86 18.203,-4.449 26.355,-9.799 -1.509,23.133 1.517,99.339 -4.145,115.219 -2.664,7.47 -8.844,13.243 -15.972,16.464 -9.686,4.377 -19.587,3.731 -29.204,-0.36 -12.188,-5.184 -15.415,-14.112 -20.127,-25.611 -0.568,-0.977 -1.142,-1.945 -1.792,-2.872 -2.374,-3.383 -5.825,-3.684 -9.595,-4.417 2.165,-1.468 4.957,-3.36 6.578,-5.448 2.048,-2.637 1.436,-4.852 1.11,-7.879 -3.302,-2.862 -7.426,-2.658 -10.549,-5.662 0.303,-2.999 1.264,-3.526 3.217,-5.74 6.474,1.354 14.643,3.495 20.979,1.173 0.878,-1.324 1.568,-1.622 1.194,-3.317 -0.802,-3.643 -3.546,-6.966 -6.546,-9.069 -6.3,2.655 -15.227,3.841 -20.281,7.951 z m 44.724,-46.372 c -4.489,4.148 -7.009,8.921 -7.192,15.154 -0.135,4.604 2.243,9.191 5.406,12.419 3.496,3.567 8.343,5.709 13.367,5.516 3.757,-0.145 6.907,-1.498 9.334,-4.442 2.298,-2.788 2.847,-7.659 2.251,-11.1 -0.295,-1.704 -0.858,-3.388 -1.394,-5.029 -2.081,-0.717 -3.35,-1.755 -5.405,-0.769 0.084,0.271 0.174,0.54 0.253,0.812 1.388,4.838 0.786,9.567 -1.351,14.079 -2.073,1.546 -2.531,2.041 -5.276,1.402 -3.562,-0.83 -8.829,-5.492 -9.901,-8.943 -1.02,-3.282 0.122,-6.343 1.938,-9.055 1.858,-2.773 4.061,-5.125 6.484,-7.402 l -0.108,-1.448 c -2.735,-1.868 -5.273,-1.384 -8.406,-1.194 z m 6.114,53.188 c -4.369,2.494 -7.449,4.653 -8.848,9.705 -0.996,3.599 -0.783,7.48 1.131,10.737 1.822,3.102 5.098,5.613 8.697,6.202 2.182,0.358 4.566,0.067 6.759,-0.111 4.668,-3.622 8.77,-7.918 9.534,-14.066 0.391,-3.14 -0.309,-6.224 -2.405,-8.678 -2.918,-3.415 -6.856,-4.117 -11.117,-4 -1.252,0.041 -2.502,0.111 -3.751,0.211 z"
     id="path16" />
  <path
     transform="translate(0,0)"
     fill="rgb(254,254,254)"
     d="M 1527.08 576.438 C 1526.18 564.744 1524.26 516.656 1528.9 508.506 C 1530.75 507.147 1532.33 506.534 1534.59 506.018 C 1554.68 501.416 1578.54 505.35 1599.11 506.186 C 1621.35 507.09 1644.63 507.373 1666.77 505.093 C 1679.2 503.812 1714.71 494.451 1724.14 500.316 C 1728.34 507.183 1729.88 522.464 1728.3 530.487 C 1727.48 534.675 1721.93 531.025 1718.38 533.573 L 1718.32 535.878 C 1720.94 539.158 1724.99 540.686 1728.67 542.543 C 1727.64 548.434 1727.95 554.443 1727.99 560.404 C 1720.42 555.495 1713.32 550.195 1704.27 548.502 L 1702.48 549.309 C 1702.7 552.536 1705.3 554.832 1707.6 556.875 C 1713.41 562.053 1721.46 565.697 1728.28 569.447 C 1728.37 574.359 1728.14 579.52 1728.89 584.374 L 1727.48 587.27 C 1725.2 587.141 1705.64 577.51 1703.02 575.817 C 1697.35 572.15 1691.44 562.941 1683.23 564.978 C 1685.95 571.019 1719.85 590.377 1727.5 596.13 L 1727.64 612.47 C 1718.83 606.531 1709.34 601.127 1700.83 594.849 L 1698.73 594.757 L 1697.15 596.321 C 1697.67 600.696 1702.28 603.875 1705.52 606.429 C 1710.88 610.65 1716.93 615.133 1723.26 617.724 L 1727.13 617.176 C 1729.83 621.966 1728.53 632.785 1727.01 638.052 C 1726.31 640.503 1725.78 640.726 1723.59 641.868 C 1723.49 641.92 1723.38 641.946 1723.28 641.986 C 1719.37 633.327 1711.31 631.783 1705.59 624.803 C 1704.28 623.205 1703.42 623.436 1701.45 622.976 L 1699.21 624.416 C 1699.02 626.157 1699.8 628.178 1700.75 629.629 C 1705.5 636.877 1713.79 640.007 1721.85 641.959 C 1708.97 644.533 1694.24 644.22 1681.09 644.508 C 1664.96 644.86 1533.8 645.086 1530.26 641.016 C 1527.93 638.348 1527.41 634.86 1527.38 631.446 C 1532.89 627.676 1547.79 642.127 1556.16 639.594 L 1556.92 637.622 C 1556.52 636.631 1556.55 636.513 1555.74 635.565 C 1551.34 630.395 1536.76 626.208 1530.12 625.514 C 1529 625.398 1527.89 625.252 1526.78 625.104 C 1524.85 619.911 1526.02 611.194 1526.1 605.526 C 1533.64 610.251 1545 619.049 1554.11 619.33 L 1554.73 618 C 1548.97 609.249 1535.04 603.385 1525.97 598.698 L 1525.94 582.559 C 1530.11 584.494 1534.21 586.879 1538.52 588.496 C 1540.86 589.379 1543.25 589.876 1545.65 588.917 L 1545.33 587.247 C 1539.82 581.489 1534.34 579.269 1527.08 576.438 z M 1531.25 528.581 C 1531.9 534.053 1533.64 536.844 1538.01 540.255 C 1540.88 542.499 1546.34 545.344 1550.03 544.616 C 1550.42 544.538 1550.8 544.399 1551.18 544.291 C 1550.59 539.836 1548.67 538.053 1545.1 535.307 C 1541.1 532.229 1536.28 529.375 1531.25 528.581 z M 1557.33 545.666 C 1557.7 549.416 1557.85 551.189 1560.88 553.81 C 1564.64 557.069 1571.29 559.612 1576.18 560.029 C 1576.77 556.856 1577.34 556.025 1575.84 553.075 C 1570.58 548.897 1563.68 547.593 1557.33 545.666 z M 1542.19 560.9 C 1542.18 563.977 1541.8 565.468 1544.15 567.664 C 1552.58 575.553 1577.68 584.69 1588.94 589.245 C 1589.08 587.78 1589.89 584.35 1589.07 583.18 C 1586.63 579.72 1547.47 562.05 1542.19 560.9 z M 1598.65 560.641 C 1597.58 563.266 1596.71 564.915 1597.54 567.792 C 1604.71 577.26 1625.21 589.257 1636.96 591.169 C 1638.1 591.355 1638.56 591.321 1639.79 591.357 L 1640.8 587.961 C 1636.73 582.635 1625.77 580.478 1620 576.949 C 1612.06 572.093 1607.91 564.124 1598.65 560.641 z M 1651.23 569.903 C 1651.4 572.205 1650.93 572.503 1652.74 574.171 C 1656.26 577.426 1662.26 578.742 1666.75 580.271 C 1670.16 585.415 1673.66 590.216 1680.02 591.721 C 1681.77 592.136 1683.62 592.108 1685.41 592.121 C 1682.96 584.548 1664.75 574.873 1657.39 571.201 C 1655.37 570.195 1653.48 569.909 1651.23 569.903 z M 1553.36 590.726 L 1552.15 594.027 C 1556.49 603.23 1596.11 616.664 1606.54 620.746 C 1606.7 617.551 1606.98 616.859 1605.26 614.04 C 1595.24 608.526 1584.07 605.202 1573.63 600.541 C 1567.12 597.636 1560.1 592.44 1553.36 590.726 z M 1598.78 592.695 L 1598.12 595.374 C 1603.04 602.545 1640.18 617.977 1649.55 621.118 C 1649.7 619.613 1650.25 618.353 1649.3 617.047 C 1645.71 612.131 1607.53 593.211 1600.59 592.742 C 1599.98 592.701 1599.38 592.711 1598.78 592.695 z M 1653.03 595.793 L 1651.55 599.059 C 1652.79 602.057 1654.27 603.119 1657.25 604.39 C 1661.71 606.293 1665.44 607.73 1669.34 610.689 C 1670.81 608.03 1670.82 607.835 1670.47 604.807 C 1667.78 600.423 1663.35 597.77 1658.37 596.514 C 1656.64 596.078 1654.8 595.934 1653.03 595.793 z M 1677.51 610.956 C 1678.96 615.925 1681.86 617.826 1686.35 620.195 C 1690.38 622.325 1694.72 624.127 1699.28 623.034 C 1697.52 618.533 1691.61 616.136 1687.46 614.274 C 1684.29 612.855 1680.95 611.46 1677.51 610.956 z M 1610.31 622.012 C 1611.8 626.767 1612.7 628.428 1617.33 630.778 C 1621.28 632.778 1628.51 635.434 1632.91 634.241 C 1632.33 631.092 1632.18 630.067 1629.47 628.238 C 1624.36 624.794 1616.42 622.839 1610.31 622.012 z M 1653.32 621.396 C 1653.1 624.696 1652.7 626.817 1655.26 629.528 C 1658.41 632.867 1664.03 634.291 1668.49 634.159 C 1670.58 634.097 1672.7 633.594 1674.74 633.153 L 1674.49 630.761 C 1670.26 627.548 1658.4 621.973 1653.32 621.396 z M 1568.38 624.004 C 1569.22 627.645 1569.73 628.747 1572.93 630.719 C 1578.03 633.86 1584.69 636.937 1590.72 637.127 C 1590.33 633.948 1590.2 632.955 1587.64 630.938 C 1582.91 627.223 1574.34 624.779 1568.38 624.004 z"
     id="path17" />
  <path
     fill="#020304"
     d="m 538.0699,494.72728 c -4.76,-0.341 -7.901,-0.925 -11.588,-4.201 -2.737,-2.433 -4.549,-5.65 -4.308,-9.419 0.288,-4.497 2.868,-6.534 6.123,-9.134 1.303,0.016 2.871,-0.051 4.17,0.21 3.089,0.621 5.852,2.109 7.533,4.833 2.554,4.138 1.608,7.271 0.614,11.597 -0.609,2.65 -0.814,3.954 -2.544,6.114 z m -9.38,-17.892 c -1.009,2.635 -1.759,4.599 -0.638,7.441 0.877,2.223 3.159,3.838 5.388,4.511 1.109,0.336 2.363,0.366 3.512,0.443 1.509,-2.561 1.85,-3.85 1.817,-6.823 -1.006,-2.387 -1.864,-3.767 -4.357,-4.825 -1.61,-0.683 -4.008,-0.621 -5.722,-0.747 z"
     id="path18" />
  <path
     fill="#020304"
     d="m 478.5089,503.29028 c -0.775,-3.441 -0.606,-6.992 -0.615,-10.501 l 1.493,-0.779 -0.129,-0.148 c 2.799,6.028 6.102,16.283 12.105,19.761 l 2.142,-0.744 c 2.45,-3.398 3.859,-9.34 3.397,-13.533 -0.51,-4.636 -3.507,-7.828 -6.931,-10.706 -4.395,-3.693 -4.611,-4.289 -5.204,-10.008 1.198,0.068 2.496,0.096 3.681,0.335 4.205,0.848 8.22,4.339 10.606,7.824 3.638,5.314 4.576,13.134 3.156,19.334 -0.996,4.345 -3.394,8.873 -7.439,11.082 -2.183,1.192 -4.779,1.601 -7.125,0.629 -5.203,-2.155 -7.275,-7.686 -9.137,-12.546 z"
     id="path19" />
  <path
     fill="#fefefe"
     d="m 536.9519,489.23028 c -1.149,-0.077 -2.403,-0.107 -3.512,-0.443 -2.229,-0.673 -4.511,-2.288 -5.388,-4.511 -1.121,-2.842 -0.371,-4.806 0.638,-7.441 1.714,0.126 4.112,0.064 5.722,0.747 2.493,1.058 3.351,2.438 4.357,4.825 0.033,2.973 -0.308,4.262 -1.817,6.823 z"
     id="path20" />
  <path
     fill="#020304"
     d="m 425.9619,492.56628 c 0.536,1.641 1.099,3.325 1.394,5.029 0.596,3.441 0.047,8.312 -2.251,11.1 -2.427,2.944 -5.577,4.297 -9.334,4.442 -5.024,0.193 -9.871,-1.949 -13.367,-5.516 -3.163,-3.228 -5.541,-7.815 -5.406,-12.419 0.183,-6.233 2.703,-11.006 7.192,-15.154 3.133,-0.19 5.671,-0.674 8.406,1.194 l 0.108,1.448 c -2.423,2.277 -4.626,4.629 -6.484,7.402 -1.816,2.712 -2.958,5.773 -1.938,9.055 1.072,3.451 6.339,8.113 9.901,8.943 2.745,0.639 3.203,0.144 5.276,-1.402 2.137,-4.512 2.739,-9.241 1.351,-14.079 -0.079,-0.272 -0.169,-0.541 -0.253,-0.812 2.055,-0.986 3.324,0.052 5.405,0.769 z"
     id="path21" />
  <path
     transform="translate(0,0)"
     fill="rgb(2,3,4)"
     d="M 1551.18 544.291 C 1550.8 544.399 1550.42 544.538 1550.03 544.616 C 1546.34 545.344 1540.88 542.499 1538.01 540.255 C 1533.64 536.844 1531.9 534.053 1531.25 528.581 C 1536.28 529.375 1541.1 532.229 1545.1 535.307 C 1548.67 538.053 1550.59 539.836 1551.18 544.291 z"
     id="path22" />
  <path
     transform="translate(0,0)"
     fill="rgb(24,25,25)"
     d="M 1728.67 542.543 C 1730.86 551.603 1730.69 575.168 1728.89 584.374 C 1728.14 579.52 1728.37 574.359 1728.28 569.447 C 1721.46 565.697 1713.41 562.053 1707.6 556.875 C 1705.3 554.832 1702.7 552.536 1702.48 549.309 L 1704.27 548.502 C 1713.32 550.195 1720.42 555.495 1727.99 560.404 C 1727.95 554.443 1727.64 548.434 1728.67 542.543 z"
     id="path23" />
  <path
     transform="translate(0,0)"
     fill="rgb(2,3,4)"
     d="M 1576.18 560.029 C 1571.29 559.612 1564.64 557.069 1560.88 553.81 C 1557.85 551.189 1557.7 549.416 1557.33 545.666 C 1563.68 547.593 1570.58 548.897 1575.84 553.075 C 1577.34 556.025 1576.77 556.856 1576.18 560.029 z"
     id="path24" />
  <path
     fill="#181919"
     d="m 540.8539,533.39228 c -4.892,2.093 -10.557,-0.15 -12.689,-5.025 -2.133,-4.875 0.065,-10.557 4.923,-12.729 4.913,-2.196 10.674,0.032 12.831,4.963 2.156,4.93 -0.118,10.673 -5.065,12.791 z"
     id="path25" />
  <path
     transform="translate(0,0)"
     fill="rgb(2,3,4)"
     d="M 1588.94 589.245 C 1577.68 584.69 1552.58 575.553 1544.15 567.664 C 1541.8 565.468 1542.18 563.977 1542.19 560.9 C 1547.47 562.05 1586.63 579.72 1589.07 583.18 C 1589.89 584.35 1589.08 587.78 1588.94 589.245 z"
     id="path26" />
  <path
     transform="translate(0,0)"
     fill="rgb(24,25,25)"
     d="M 1639.79 591.357 C 1638.56 591.321 1638.1 591.355 1636.96 591.169 C 1625.21 589.257 1604.71 577.26 1597.54 567.792 C 1596.71 564.915 1597.58 563.266 1598.65 560.641 C 1607.91 564.124 1612.06 572.093 1620 576.949 C 1625.77 580.478 1636.73 582.635 1640.8 587.961 L 1639.79 591.357 z"
     id="path27" />
  <path
     transform="translate(0,0)"
     fill="rgb(2,3,4)"
     d="M 1666.75 580.271 C 1662.26 578.742 1656.26 577.426 1652.74 574.171 C 1650.93 572.503 1651.4 572.205 1651.23 569.903 C 1653.48 569.909 1655.37 570.195 1657.39 571.201 C 1664.75 574.873 1682.96 584.548 1685.41 592.121 C 1683.62 592.108 1681.77 592.136 1680.02 591.721 C 1673.66 590.216 1670.16 585.415 1666.75 580.271 z"
     id="path28" />
  <path
     fill="#181919"
     d="m 418.0429,559.76928 c -2.193,0.178 -4.577,0.469 -6.759,0.111 -3.599,-0.589 -6.875,-3.1 -8.697,-6.202 -1.914,-3.257 -2.127,-7.138 -1.131,-10.737 1.399,-5.052 4.479,-7.211 8.848,-9.705 1.249,-0.1 2.499,-0.17 3.751,-0.211 4.261,-0.117 8.199,0.585 11.117,4 2.096,2.454 2.796,5.538 2.405,8.678 -0.764,6.148 -4.866,10.444 -9.534,14.066 z m -4.535,-22.368 c -0.019,3.022 -0.047,5.914 -0.53,8.91 l -1.222,0.621 c -1.371,-1.576 -2.635,-3.089 -3.768,-4.845 l -1.668,0.632 c -0.776,3.013 -0.425,5.387 1.184,8.165 0.534,0.922 1.169,1.782 1.774,2.66 2.695,0.452 5.054,0.98 7.561,-0.575 2.309,-1.432 3.942,-3.841 4.504,-6.49 0.498,-2.344 -0.165,-4.79 -1.607,-6.679 -1.534,-2.012 -3.936,-2.085 -6.228,-2.399 z"
     id="path29" />
  <path
     fill="#181919"
     d="m 486.4909,562.85528 c -1.708,-1.644 -3.406,-3.286 -4.844,-5.179 -2.641,-3.477 -4.525,-8.406 -3.644,-12.81 1.034,-5.169 4.333,-7.989 8.456,-10.877 2.364,-0.148 4.673,-0.261 6.959,0.481 3.638,1.18 8.345,3.416 9.679,7.298 1.454,4.232 -0.064,9.2 -2.127,12.963 -5.257,9.586 -14.443,13.465 -24.313,16.558 l -3.691,0.788 c -0.499,-0.437 -0.96,-0.921 -1.496,-1.311 -0.197,-0.143 -0.453,-0.18 -0.679,-0.27 3.973,-3.653 10.672,-5.569 15.7,-7.641 z m 3.199,-22.87 c -4.376,1.168 -6.986,5.652 -5.84,10.034 1.146,4.381 5.617,7.013 10.005,5.889 4.418,-1.132 7.073,-5.642 5.919,-10.054 -1.154,-4.413 -5.677,-7.045 -10.084,-5.869 z"
     id="path30" />
  <path
     fill="#fefefe"
     d="m 409.2779,553.54428 c -0.605,-0.878 -1.24,-1.738 -1.774,-2.66 -1.609,-2.778 -1.96,-5.152 -1.184,-8.165 l 1.668,-0.632 c 1.133,1.756 2.397,3.269 3.768,4.845 l 1.222,-0.621 c 0.483,-2.996 0.511,-5.888 0.53,-8.91 2.292,0.314 4.694,0.387 6.228,2.399 1.442,1.889 2.105,4.335 1.607,6.679 -0.562,2.649 -2.195,5.058 -4.504,6.49 -2.507,1.555 -4.866,1.027 -7.561,0.575 z"
     id="path31" />
  <path
     fill="#020304"
     d="m 524.7489,554.88028 c -3.468,-0.985 -6.922,-2.476 -8.867,-5.738 -2.32,-3.89 -1.213,-7.662 -0.009,-11.694 1.396,0.134 2.872,0.277 4.227,0.647 2.33,0.634 4.366,2.169 5.38,4.413 1.783,3.95 0.404,8.471 -0.731,12.372 z"
     id="path32" />
  <path
     fill="#fefefe"
     d="m 493.8549,555.90828 c -4.388,1.124 -8.859,-1.508 -10.005,-5.889 -1.146,-4.382 1.464,-8.866 5.84,-10.034 4.407,-1.176 8.93,1.456 10.084,5.869 1.154,4.412 -1.501,8.922 -5.919,10.054 z"
     id="path33" />
  <path
     transform="translate(0,0)"
     fill="rgb(24,25,25)"
     d="M 1064.44 645.112 C 1061.53 645.38 1058.19 645.997 1055.67 644.144 C 1047.61 638.211 1047.55 612.925 1046.9 603.24 C 1046.36 595.041 1045.44 588.578 1051.21 581.983 C 1052.13 581.87 1053.04 581.732 1053.97 581.677 C 1056.61 581.52 1058.59 582.073 1060.48 583.899 C 1066.98 590.164 1068.56 622.088 1068.84 632.21 C 1069.01 638.002 1068.51 640.863 1064.44 645.112 z"
     id="path34" />
  <path
     transform="translate(0,0)"
     fill="rgb(2,3,4)"
     d="M 1606.54 620.746 C 1596.11 616.664 1556.49 603.23 1552.15 594.027 L 1553.36 590.726 C 1560.1 592.44 1567.12 597.636 1573.63 600.541 C 1584.07 605.202 1595.24 608.526 1605.26 614.04 C 1606.98 616.859 1606.7 617.551 1606.54 620.746 z"
     id="path35" />
  <path
     transform="translate(0,0)"
     fill="rgb(2,3,4)"
     d="M 1649.55 621.118 C 1640.18 617.977 1603.04 602.545 1598.12 595.374 L 1598.78 592.695 C 1599.38 592.711 1599.98 592.701 1600.59 592.742 C 1607.53 593.211 1645.71 612.131 1649.3 617.047 C 1650.25 618.353 1649.7 619.613 1649.55 621.118 z"
     id="path36" />
  <path
     transform="translate(0,0)"
     fill="rgb(2,3,4)"
     d="M 1669.34 610.689 C 1665.44 607.73 1661.71 606.293 1657.25 604.39 C 1654.27 603.119 1652.79 602.057 1651.55 599.059 L 1653.03 595.793 C 1654.8 595.934 1656.64 596.078 1658.37 596.514 C 1663.35 597.77 1667.78 600.423 1670.47 604.807 C 1670.82 607.835 1670.81 608.03 1669.34 610.689 z"
     id="path37" />
  <path
     transform="translate(0,0)"
     fill="rgb(2,3,4)"
     d="M 1699.28 623.034 C 1694.72 624.127 1690.38 622.325 1686.35 620.195 C 1681.86 617.826 1678.96 615.925 1677.51 610.956 C 1680.95 611.46 1684.29 612.855 1687.46 614.274 C 1691.61 616.136 1697.52 618.533 1699.28 623.034 z"
     id="path38" />
  <path
     transform="translate(0,0)"
     fill="rgb(24,25,25)"
     d="M 1632.91 634.241 C 1628.51 635.434 1621.28 632.778 1617.33 630.778 C 1612.7 628.428 1611.8 626.767 1610.31 622.012 C 1616.42 622.839 1624.36 624.794 1629.47 628.238 C 1632.18 630.067 1632.33 631.092 1632.91 634.241 z"
     id="path39" />
  <path
     transform="translate(0,0)"
     fill="rgb(2,3,4)"
     d="M 1674.74 633.153 C 1672.7 633.594 1670.58 634.097 1668.49 634.159 C 1664.03 634.291 1658.41 632.867 1655.26 629.528 C 1652.7 626.817 1653.1 624.696 1653.32 621.396 C 1658.4 621.973 1670.26 627.548 1674.49 630.761 L 1674.74 633.153 z"
     id="path40" />
  <path
     transform="translate(0,0)"
     fill="rgb(24,25,25)"
     d="M 1721.85 641.959 C 1713.79 640.007 1705.5 636.877 1700.75 629.629 C 1699.8 628.178 1699.02 626.157 1699.21 624.416 L 1701.45 622.976 C 1703.42 623.436 1704.28 623.205 1705.59 624.803 C 1711.31 631.783 1719.37 633.327 1723.28 641.986 L 1721.85 641.959 z"
     id="path41" />
  <path
     transform="translate(0,0)"
     fill="rgb(2,3,4)"
     d="M 1590.72 637.127 C 1584.69 636.937 1578.03 633.86 1572.93 630.719 C 1569.73 628.747 1569.22 627.645 1568.38 624.004 C 1574.34 624.779 1582.91 627.223 1587.64 630.938 C 1590.2 632.955 1590.33 633.948 1590.72 637.127 z"
     id="path42" />
  <path
     transform="translate(0,0)"
     fill="rgb(254,254,254)"
     d="M 606.914 759.7 C 884.067 742.681 1161.37 728.267 1438.8 716.46 C 1441.58 716.366 1442.46 715.834 1444.61 717.714 C 1446.16 736.169 1444.98 755.401 1444.91 773.947 C 1444.89 809.8 1444.68 845.652 1444.27 881.502 L 1442.34 1171.1 L 1437.42 1630.77 C 1436.88 1709.64 1435.44 1788.51 1433.12 1867.36 C 1392.4 1865.17 1351.83 1861.08 1311.17 1858.29 L 673.246 1809.15 L 622.153 1805.57 L 606.914 759.7 z M 1382.57 781.439 C 1197.06 789.102 1011.61 798.016 826.226 808.182 C 806.178 809.219 673.737 814.515 664.874 818.517 C 660.119 827.539 664.044 896.066 664.093 911.487 C 664.112 917.558 665.038 926.635 663.332 932.347 C 662.816 934.074 659.192 935.206 657.685 935.83 C 656.271 937.864 655.863 938.446 655.721 940.979 C 654.933 954.963 656.379 969.807 656.483 983.899 C 656.587 998.039 655.004 1035.37 657.395 1047.34 C 657.899 1049.87 659.156 1051.09 661.266 1052.41 C 663.08 1053.54 665.344 1054.34 667.313 1055.15 C 668.359 1070.7 667.882 1086.48 667.928 1102.07 L 668.278 1186.7 L 670.934 1360.35 C 671.421 1423.47 670.91 1486.71 672.734 1549.81 C 669.45 1552.22 666.713 1554.56 664.058 1557.65 C 663.863 1580.55 663.859 1603.45 664.046 1626.35 C 664.107 1639.22 663.245 1653.2 664.906 1665.96 C 665.223 1668.4 665.724 1670.49 667.428 1672.35 C 669.722 1674.86 673.284 1675.79 676.396 1676.86 C 676.202 1692.4 672.663 1744.03 680.637 1753.65 C 690.882 1758.84 711.048 1757.18 722.753 1757.86 C 784.749 1761.75 847.186 1763.57 908.956 1770.02 C 944.276 1773.71 979.481 1778.85 1014.67 1783.6 L 1228.66 1812.63 C 1242.66 1814.41 1309.14 1824.9 1316.02 1819.85 C 1319.02 1817.64 1320.16 1813.59 1320.27 1810.03 C 1320.43 1804.99 1320.08 1799.79 1319.9 1794.74 C 1332.52 1795.51 1362.64 1802.68 1372.41 1796.09 C 1374.32 1792.54 1374.5 1787.35 1374.76 1783.36 C 1376.54 1755.45 1376.02 1726.98 1376.47 1699 L 1378.88 1552.76 L 1388.54 954.493 L 1390.45 840.081 C 1390.66 827.622 1393.12 794.935 1390.3 785.225 C 1389.77 783.391 1388.77 782.775 1386.98 782.012 C 1385.88 781.543 1383.68 781.531 1382.57 781.439 z"
     id="path43" />
  <path
     transform="translate(0,0)"
     fill="rgb(254,254,254)"
     d="M 1450.08 1858.55 L 1460.7 729.443 C 1467.1 735.418 1473.81 749.127 1478.9 756.797 C 1490.02 773.535 1501.28 789.987 1513.7 805.797 C 1515.54 869.627 1514.42 933.732 1515.01 997.602 L 1519.07 1358 L 1522.12 1632.7 C 1522.74 1685.82 1524.79 1739.56 1523.12 1792.62 C 1509.26 1803.78 1496.7 1816.95 1483.13 1828.57 L 1450.08 1858.55 z"
     id="path44" />
  <path
     transform="translate(0,0)"
     fill="rgb(24,25,25)"
     d="M 672.734 1549.81 C 670.91 1486.71 671.421 1423.47 670.934 1360.35 L 668.278 1186.7 L 667.928 1102.07 C 667.882 1086.48 668.359 1070.7 667.313 1055.15 C 665.344 1054.34 663.08 1053.54 661.266 1052.41 C 659.156 1051.09 657.899 1049.87 657.395 1047.34 C 655.004 1035.37 656.587 998.039 656.483 983.899 C 656.379 969.807 654.933 954.963 655.721 940.979 C 655.863 938.446 656.271 937.864 657.685 935.83 C 659.192 935.206 662.816 934.074 663.332 932.347 C 665.038 926.635 664.112 917.558 664.093 911.487 C 664.044 896.066 660.119 827.539 664.874 818.517 C 673.737 814.515 806.178 809.219 826.226 808.182 C 1011.61 798.016 1197.06 789.102 1382.57 781.439 C 1383.68 781.531 1385.88 781.543 1386.98 782.012 C 1388.77 782.775 1389.77 783.391 1390.3 785.225 C 1393.12 794.935 1390.66 827.622 1390.45 840.081 L 1388.54 954.493 L 1378.88 1552.76 L 1376.47 1699 C 1376.02 1726.98 1376.54 1755.45 1374.76 1783.36 C 1374.5 1787.35 1374.32 1792.54 1372.41 1796.09 C 1362.64 1802.68 1332.52 1795.51 1319.9 1794.74 C 1320.08 1799.79 1320.43 1804.99 1320.27 1810.03 C 1320.16 1813.59 1319.02 1817.64 1316.02 1819.85 C 1309.14 1824.9 1242.66 1814.41 1228.66 1812.63 L 1014.67 1783.6 C 979.481 1778.85 944.276 1773.71 908.956 1770.02 C 847.186 1763.57 784.749 1761.75 722.753 1757.86 C 711.048 1757.18 690.882 1758.84 680.637 1753.65 C 672.663 1744.03 676.202 1692.4 676.396 1676.86 C 673.284 1675.79 669.722 1674.86 667.428 1672.35 C 665.724 1670.49 665.223 1668.4 664.906 1665.96 C 663.245 1653.2 664.107 1639.22 664.046 1626.35 C 663.859 1603.45 663.863 1580.55 664.058 1557.65 C 666.713 1554.56 669.45 1552.22 672.734 1549.81 z M 1356.6 797.43 C 1310.99 799.79 1265.3 800.951 1219.66 803.069 C 1038.99 811.503 858.358 820.975 677.788 831.485 C 677.949 845.306 677.137 928.153 680.285 933.255 L 682.116 933.559 C 692.531 921.842 673.723 845.914 692.832 845.019 C 715.367 843.963 738.26 845.026 760.857 844.568 L 931.235 840.382 L 1240.22 832.85 C 1267.72 832.235 1295.25 830.387 1322.75 829.963 C 1327.11 829.895 1331.35 830.033 1335.39 831.835 C 1337.57 835.444 1337.97 839.498 1338.27 843.642 C 1340.09 869.04 1338.02 897.886 1337.67 923.609 C 1337.1 966.368 1337.25 1009.15 1336.07 1051.89 C 1335.13 1131.32 1334.66 1211 1332.59 1290.39 C 1330.97 1352.88 1326.89 1415.25 1325.03 1477.7 C 1322.67 1577.84 1321.22 1678.01 1320.66 1778.18 L 1359 1782.23 L 1369.42 1140.75 L 1373.65 928.251 C 1374.73 884.677 1377.16 840.611 1376.78 797.055 C 1370.1 797.114 1363.24 796.866 1356.6 797.43 z M 1296.77 845.5 C 1218.32 849.303 1139.47 850.109 1060.94 852.105 L 699 860.727 C 699.684 884.844 699.952 908.971 699.802 933.098 C 704.187 933.228 710.511 932.687 713.887 935.967 C 715.058 937.103 715.642 938.41 715.856 940.01 C 717.536 952.607 716.084 966.861 716.168 979.651 C 716.319 1002.58 718.206 1026.11 715.977 1048.93 C 714.199 1051.46 711.763 1052.22 708.833 1052.7 C 706.212 1053.13 703.566 1053.43 700.928 1053.73 L 701.732 1550.5 C 708.245 1550.66 715.301 1549.69 720.156 1554.85 C 721.932 1556.73 722.315 1558.58 722.716 1561.08 C 725.451 1578.13 724.279 1597.33 724.589 1614.6 C 724.891 1631.37 726.568 1649.55 724.805 1666.2 C 724.471 1669.36 723.93 1671.74 721.101 1673.62 C 716.973 1676.37 709.555 1675.2 704.814 1675.07 C 704.731 1693.31 704.795 1711.54 705.006 1729.78 C 723.298 1731.4 741.555 1733.39 759.766 1735.75 C 872.312 1749.18 984.746 1763.53 1097.06 1778.8 C 1166.08 1788.88 1235.25 1797.99 1304.53 1806.15 C 1304.92 1704.18 1306.18 1602.21 1308.31 1500.26 C 1309.95 1444.74 1314.32 1389.29 1315.73 1333.72 L 1323.57 844.512 C 1314.65 844.815 1305.66 844.879 1296.77 845.5 z M 671.147 949.391 C 671.226 978.867 671.469 1008.34 671.875 1037.82 C 681.523 1037.88 690.964 1037.99 700.563 1036.79 C 701.895 1026.8 701.126 1016.18 701.094 1006.1 L 700.939 949.227 C 691.017 949.268 681.065 949.142 671.147 949.391 z M 683.285 1053.37 C 681.587 1078.11 683.189 1351.27 686.515 1356.08 C 687.044 1275.73 687.12 1195.37 686.743 1115.01 C 686.69 1105.14 687.639 1060.83 686.23 1055.94 C 686.025 1055.22 685.419 1054.7 685.014 1054.08 L 683.285 1053.37 z M 680.99 1565.93 C 681.145 1597.46 681.73 1628.98 682.743 1660.5 L 708.504 1660.44 L 706.481 1566.06 C 697.998 1565.99 689.469 1565.73 680.99 1565.93 z"
     id="path45" />
  <path
     transform="translate(0,0)"
     fill="rgb(254,254,254)"
     d="M 677.788 831.485 C 858.358 820.975 1038.99 811.503 1219.66 803.069 C 1265.3 800.951 1310.99 799.79 1356.6 797.43 C 1363.24 796.866 1370.1 797.114 1376.78 797.055 C 1377.16 840.611 1374.73 884.677 1373.65 928.251 L 1369.42 1140.75 L 1359 1782.23 L 1320.66 1778.18 C 1321.22 1678.01 1322.67 1577.84 1325.03 1477.7 C 1326.89 1415.25 1330.97 1352.88 1332.59 1290.39 C 1334.66 1211 1335.13 1131.32 1336.07 1051.89 C 1337.25 1009.15 1337.1 966.368 1337.67 923.609 C 1338.02 897.886 1340.09 869.04 1338.27 843.642 C 1337.97 839.498 1337.57 835.444 1335.39 831.835 C 1331.35 830.033 1327.11 829.895 1322.75 829.963 C 1295.25 830.387 1267.72 832.235 1240.22 832.85 L 931.235 840.382 L 760.857 844.568 C 738.26 845.026 715.367 843.963 692.832 845.019 C 673.723 845.914 692.531 921.842 682.116 933.559 L 680.285 933.255 C 677.137 928.153 677.949 845.306 677.788 831.485 z"
     id="path46" />
  <path
     transform="translate(0,0)"
     fill="rgb(254,254,254)"
     d="M 699 860.727 L 1060.94 852.105 C 1139.47 850.109 1218.32 849.303 1296.77 845.5 C 1305.66 844.879 1314.65 844.815 1323.57 844.512 L 1315.73 1333.72 C 1314.32 1389.29 1309.95 1444.74 1308.31 1500.26 C 1306.18 1602.21 1304.92 1704.18 1304.53 1806.15 C 1235.25 1797.99 1166.08 1788.88 1097.06 1778.8 C 984.746 1763.53 872.312 1749.18 759.766 1735.75 C 741.555 1733.39 723.298 1731.4 705.006 1729.78 C 704.795 1711.54 704.731 1693.31 704.814 1675.07 C 709.555 1675.2 716.973 1676.37 721.101 1673.62 C 723.93 1671.74 724.471 1669.36 724.805 1666.2 C 726.568 1649.55 724.891 1631.37 724.589 1614.6 C 724.279 1597.33 725.451 1578.13 722.716 1561.08 C 722.315 1558.58 721.932 1556.73 720.156 1554.85 C 715.301 1549.69 708.245 1550.66 701.732 1550.5 L 700.928 1053.73 C 703.566 1053.43 706.212 1053.13 708.833 1052.7 C 711.763 1052.22 714.199 1051.46 715.977 1048.93 C 718.206 1026.11 716.319 1002.58 716.168 979.651 C 716.084 966.861 717.536 952.607 715.856 940.01 C 715.642 938.41 715.058 937.103 713.887 935.967 C 710.511 932.687 704.187 933.228 699.802 933.098 C 699.952 908.971 699.684 884.844 699 860.727 z M 954.963 1090.93 C 951.885 1092.78 949.143 1094.12 948.292 1097.92 C 945.234 1111.57 947.839 1133.7 947.995 1148.5 C 948.177 1170.9 947.985 1193.3 947.418 1215.7 C 924.762 1218.93 909.38 1225.25 891.281 1239.29 C 869.007 1223.62 847.593 1205.03 826.597 1187.62 C 819.305 1181.57 811.987 1173.61 803.987 1168.73 C 800.479 1166.59 795.997 1164.86 791.819 1165.54 C 788.974 1166 787.332 1167.26 785.452 1169.39 C 784.473 1172 784.22 1173.66 785.344 1176.32 C 789.914 1187.16 862.821 1239.35 877.677 1253.31 C 864.9 1269.89 858.822 1283.48 854.822 1304.02 L 781.544 1303.83 C 769.006 1303.78 755.379 1302.73 742.963 1304.26 C 740.538 1304.55 738.303 1304.91 736.523 1306.78 C 734.382 1309.04 733.871 1312.38 734.266 1315.35 C 734.566 1317.61 735.501 1319.33 737.348 1320.7 C 739.679 1322.43 742.125 1322.74 744.905 1323.01 C 758.224 1324.35 772.252 1323.52 785.641 1323.54 C 808.541 1323.57 831.441 1323.79 854.338 1324.22 C 858.772 1342.9 863.563 1356.65 873.797 1373.11 C 856.361 1391.6 835.519 1407.71 815.94 1423.91 C 808.118 1430.38 799.232 1436.64 792.296 1444.05 C 789.913 1446.6 787.838 1449.38 787.669 1453.01 C 787.553 1455.52 788.297 1458.1 790.206 1459.82 C 792.118 1461.55 794.901 1462.55 797.478 1462.37 C 799.677 1462.21 801.772 1461.22 803.555 1459.98 C 811.095 1454.71 818.109 1447.45 825.233 1441.48 L 888.641 1387.39 C 905.477 1405.74 925.603 1413.2 949.989 1415.78 L 949.777 1485.74 C 949.727 1497.49 948.394 1510.47 950.249 1522.05 C 950.764 1525.27 951.462 1526.96 953.78 1529.36 C 956.938 1530.87 959.283 1530.6 962.448 1529.36 C 964.696 1528.48 966.323 1526.26 967.809 1524.45 C 969.238 1511.7 968.587 1498.33 968.682 1485.47 L 969 1415.42 C 989.758 1412.77 1009.3 1403.65 1026.27 1391.64 C 1047.66 1407.77 1067.51 1425.97 1087.72 1443.54 C 1096.38 1451.07 1104.96 1459.64 1114.43 1466.06 C 1117.82 1468.36 1120.94 1470.49 1125.13 1470.55 C 1128.49 1469.4 1130.86 1467.8 1132.18 1464.31 C 1133.14 1461.79 1132.66 1459.4 1131.35 1457.13 C 1127.18 1449.95 1052.12 1387.79 1039.33 1376.23 C 1050.33 1361.02 1055.31 1343.55 1058.22 1325.2 C 1082.37 1325.75 1106.52 1326.44 1130.66 1327.25 C 1142.7 1327.59 1155.83 1328.91 1167.78 1327.71 C 1170.5 1327.44 1172.48 1326.73 1174.56 1324.84 C 1176.53 1323.04 1177.73 1320.61 1177.68 1317.91 C 1177.64 1315.46 1176.54 1313.31 1174.57 1311.84 C 1172.18 1310.05 1169.28 1309.72 1166.4 1309.42 C 1153.79 1308.09 1140.62 1308.77 1127.91 1308.46 C 1104.94 1307.71 1081.96 1307.17 1058.97 1306.83 C 1055.99 1288.79 1050.64 1273.12 1040.61 1257.75 C 1059.93 1239.26 1080.39 1221.82 1100.35 1204.02 C 1109.76 1195.63 1122.32 1186.56 1129.47 1176.29 C 1130.68 1174.55 1131.1 1172.59 1130.95 1170.48 C 1130.78 1167.94 1129.62 1165.8 1127.56 1164.31 C 1125.1 1162.54 1121.78 1162.18 1118.92 1163.05 C 1111.07 1165.43 1040.59 1232.28 1028.76 1242.61 C 1009.66 1229.24 989.964 1219.14 967.032 1214.26 C 967.045 1187.49 966.918 1160.73 966.65 1133.96 C 966.539 1123.06 967.53 1111.19 966.237 1100.44 C 965.972 1098.25 965.514 1096.19 963.874 1094.57 C 961.437 1092.16 958.184 1091.61 954.963 1090.93 z M 1260.04 1139.18 C 1246.33 1142.77 1234.97 1149.34 1227.84 1162.08 C 1221.57 1173.2 1220.21 1186.43 1224.08 1198.6 C 1227.84 1210.17 1235.32 1218.2 1244.94 1225.26 L 1244.29 1242.47 C 1237.61 1244.72 1231.54 1246.5 1228.16 1253.33 C 1222.9 1263.94 1224.2 1310.21 1225.06 1323.92 C 1228.77 1328.53 1232.11 1332.93 1238.42 1333.65 C 1240.72 1333.91 1243.08 1333.86 1245.39 1333.85 C 1245.76 1353.97 1245.75 1374.1 1245.36 1394.22 C 1245.25 1404.49 1244.12 1416.08 1245.71 1426.2 C 1246.18 1429.19 1247.06 1431.91 1249.28 1434.08 C 1252.36 1437.08 1256.81 1437.95 1260.84 1438.91 C 1268.68 1439.02 1279.3 1439.76 1285.36 1433.78 C 1287.73 1431.45 1288.22 1428.52 1288.6 1425.36 C 1290.46 1409.88 1289.13 1392.93 1289.1 1377.27 L 1289.01 1285.5 C 1293.2 1282.2 1295.86 1279.2 1298.82 1274.82 C 1299.39 1263.86 1300.84 1254.45 1294.01 1245.13 C 1289.47 1238.95 1291.02 1230.42 1290.99 1223.16 C 1302.01 1213.44 1309.45 1203.42 1310.3 1188.15 C 1311 1175.48 1306.93 1162.48 1298.43 1152.96 C 1290.69 1144.25 1279.67 1139.15 1268.01 1138.89 C 1265.37 1138.82 1262.68 1139.02 1260.04 1139.18 z"
     id="path47" />
  <path
     transform="translate(0,0)"
     fill="rgb(24,25,25)"
     d="M 293.53 1268.64 C 187.186 1274.36 96.2277 1193.03 90.0618 1086.71 C 83.8958 980.391 164.843 889.093 271.135 882.483 C 378.058 875.833 470.016 957.365 476.219 1064.31 C 482.421 1171.26 400.505 1262.88 293.53 1268.64 z M 267.683 902.254 C 171.86 912.021 101.951 997.397 111.275 1093.26 C 120.6 1189.13 205.652 1259.43 301.562 1250.55 C 398.099 1241.61 468.963 1155.88 459.577 1059.39 C 450.191 962.891 364.134 892.423 267.683 902.254 z"
     id="path48" />
  <path
     transform="translate(0,0)"
     fill="rgb(24,25,25)"
     d="M 1807.52 1266.01 C 1702.37 1276.12 1608.96 1199.05 1598.9 1093.9 C 1588.84 988.754 1665.96 895.375 1771.11 885.373 C 1876.19 875.378 1969.49 952.426 1979.53 1057.5 C 1989.58 1162.57 1912.58 1255.9 1807.52 1266.01 z M 1774.49 905.801 C 1679.8 915.186 1610.57 999.445 1619.73 1094.16 C 1628.9 1188.87 1712.99 1258.3 1807.73 1249.36 C 1902.78 1240.39 1972.48 1155.95 1963.29 1060.92 C 1954.1 965.893 1869.5 896.385 1774.49 905.801 z"
     id="path49" />
  <path
     transform="translate(0,0)"
     fill="rgb(254,254,254)"
     d="M 301.562 1250.55 C 205.652 1259.43 120.6 1189.13 111.275 1093.26 C 101.951 997.397 171.86 912.021 267.683 902.254 C 364.134 892.423 450.191 962.891 459.577 1059.39 C 468.963 1155.88 398.099 1241.61 301.562 1250.55 z M 273.243 951.78 C 197.714 960.175 143.414 1028.39 152.169 1103.88 C 160.924 1179.36 229.396 1233.34 304.841 1224.22 C 379.78 1215.17 433.312 1147.26 424.616 1072.28 C 415.919 997.297 348.264 943.441 273.243 951.78 z"
     id="path50" />
  <path
     transform="translate(0,0)"
     fill="rgb(254,254,254)"
     d="M 1807.73 1249.36 C 1712.99 1258.3 1628.9 1188.87 1619.73 1094.16 C 1610.57 999.445 1679.8 915.186 1774.49 905.801 C 1869.5 896.385 1954.1 965.893 1963.29 1060.92 C 1972.48 1155.95 1902.78 1240.39 1807.73 1249.36 z M 1821.57 940.465 C 1804.64 940.888 1740.02 940.05 1729.74 949.849 C 1720.37 958.777 1722.52 993.252 1722.47 1006.48 C 1711.95 1006.78 1693.1 1004.33 1685.26 1012.37 C 1680.72 1031.53 1684.74 1081.38 1684.92 1104.24 C 1685.15 1134.09 1683.8 1164.25 1684.68 1194.04 C 1684.81 1199.94 1685.59 1205.8 1687.02 1211.51 C 1703.15 1225.48 1748.86 1221.25 1770.03 1220.73 C 1793.88 1219.66 1817.75 1219.12 1841.63 1219.11 C 1855.42 1219.1 1870.24 1220.35 1883.89 1218.78 C 1888.85 1218.2 1894.63 1217.4 1898.26 1213.64 C 1901.87 1209.9 1903.2 1204.57 1903.76 1199.55 C 1904.95 1188.81 1903.91 1177.37 1903.72 1166.57 L 1903.16 1113.6 C 1903.01 1094.23 1902.96 1074.86 1903.02 1055.48 C 1903.09 1045.89 1903.83 1036.12 1903.38 1026.55 C 1903.1 1020.75 1902.34 1012.11 1897.59 1008.16 C 1889.5 1001.42 1875.7 1002.9 1865.76 1003.01 C 1864.62 989.382 1868.36 953.972 1858.07 945.44 C 1849.61 938.431 1831.93 940.456 1821.57 940.465 z"
     id="path51" />
  <path
     fill="rgb(2,3,4)"
     d="M 1722.47 1006.48 C 1722.52 993.252 1720.37 958.777 1729.74 949.849 C 1740.02 940.05 1804.64 940.888 1821.57 940.465 C 1831.93 940.456 1849.61 938.431 1858.07 945.44 C 1868.36 953.972 1864.62 989.382 1865.76 1003.01 C 1875.7 1002.9 1889.5 1001.42 1897.59 1008.16 C 1902.34 1012.11 1903.1 1020.75 1903.38 1026.55 C 1903.83 1036.12 1903.09 1045.89 1903.02 1055.48 C 1902.96 1074.86 1903.01 1094.23 1903.16 1113.6 L 1903.72 1166.57 C 1903.91 1177.37 1904.95 1188.81 1903.76 1199.55 C 1903.2 1204.57 1901.87 1209.9 1898.26 1213.64 C 1894.63 1217.4 1888.85 1218.2 1883.89 1218.78 C 1870.24 1220.35 1855.42 1219.1 1841.63 1219.11 C 1817.75 1219.12 1793.88 1219.66 1770.03 1220.73 C 1748.86 1221.25 1703.15 1225.48 1687.02 1211.51 C 1685.59 1205.8 1684.81 1199.94 1684.68 1194.04 C 1683.8 1164.25 1685.15 1134.09 1684.92 1104.24 C 1684.74 1081.38 1680.72 1031.53 1685.26 1012.37 C 1693.1 1004.33 1711.95 1006.78 1722.47 1006.48 z M 1785.24 952.462 C 1773.42 952.728 1745.46 950.353 1737.17 958.557 C 1729.39 966.256 1732.44 987.342 1732.86 997.529 C 1732.99 1000.62 1732.48 1003.71 1734.66 1006 C 1737.1 1006.2 1737.6 1006.5 1739.92 1005.45 C 1742.02 993.744 1736.2 970.653 1747.43 962.897 C 1755.14 957.569 1791.92 959.949 1802.86 959.803 C 1810.2 959.778 1840.11 958.06 1844.26 962.822 C 1852.06 971.773 1841.98 999.932 1853.41 1003.89 L 1855.13 1003.26 C 1857.57 997.537 1856.2 963.219 1854.12 957.462 C 1853.55 955.878 1853.43 955.427 1851.84 954.687 C 1842.08 950.142 1798 952.104 1785.24 952.462 z M 1769.02 970.422 C 1763.46 970.666 1757.16 970.011 1753.17 974.628 C 1747.4 981.309 1750.06 996.678 1750.17 1005.17 C 1774.52 1005.03 1798.9 1005.12 1823.25 1004.68 L 1839.04 1004.18 C 1839.01 993.306 1839.49 982.1 1837.67 971.345 C 1818.18 967.765 1789.3 969.497 1769.02 970.422 z M 1865.55 1014.49 C 1833.6 1015.2 1801.65 1015.66 1769.69 1015.86 C 1744.85 1015.78 1719.92 1014.55 1695.1 1015.08 C 1694.91 1045.14 1695.67 1075.18 1695.66 1105.23 C 1695.65 1120.43 1692.01 1193.21 1696.5 1203.08 C 1703.65 1209.31 1718.09 1207.88 1727.25 1208.17 C 1743.35 1208.91 1882.36 1210.53 1889.71 1205.33 C 1892.48 1203.37 1893.35 1190.12 1893.51 1186.52 C 1894.74 1159.14 1892.93 1131.02 1892.56 1103.59 C 1892.2 1077.54 1893.34 1051.09 1891.81 1025.1 C 1891.68 1022.92 1891.66 1018.26 1890.1 1016.77 C 1885.61 1012.45 1871.54 1014.32 1865.55 1014.49 z"
     id="path52"
     transform="translate(0,0)" />
  <path
     transform="translate(0,0)"
     fill="rgb(254,254,254)"
     d="M 671.875 1037.82 C 671.469 1008.34 671.226 978.867 671.147 949.391 C 681.065 949.142 691.017 949.268 700.939 949.227 L 701.094 1006.1 C 701.126 1016.18 701.895 1026.8 700.563 1036.79 C 690.964 1037.99 681.523 1037.88 671.875 1037.82 z"
     id="path53" />
  <path
     transform="translate(0,0)"
     fill="rgb(24,25,25)"
     d="M 304.841 1224.22 C 229.396 1233.34 160.924 1179.36 152.169 1103.88 C 143.414 1028.39 197.714 960.175 273.243 951.78 C 348.264 943.441 415.919 997.297 424.616 1072.28 C 433.312 1147.26 379.78 1215.17 304.841 1224.22 z M 281.188 961.425 C 247.129 964.65 213.725 978.601 191.434 1005.41 C 170.459 1030.64 158.22 1069.8 161.259 1102.48 C 164.139 1133.46 180.687 1164.75 204.654 1184.56 C 230.668 1205.76 264.091 1215.65 297.452 1212.02 C 334.233 1208.17 371.34 1189.45 394.525 1160.29 C 413.428 1136.52 419.902 1103.15 416.164 1073.43 C 412.861 1047.17 401.864 1024.27 380.637 1007.98 C 356.538 989.484 317.594 982.584 287.894 986.523 C 279.337 987.658 259.883 991.697 254.348 998.633 C 262.453 995.884 270.281 992.379 278.495 989.987 C 304.952 984.849 344.376 989.106 367.202 1004.28 C 389.586 1019.16 405.881 1046.32 410.989 1072.44 C 416.329 1100.15 410.345 1128.83 394.376 1152.09 C 377.428 1177.18 351.445 1196.04 321.477 1201.71 C 292.351 1207.23 258.099 1202.07 233.509 1184.98 C 208.849 1167.95 191.926 1141.85 186.431 1112.38 C 181.021 1081.68 187.471 1049.11 205.687 1023.62 C 224.268 997.897 252.228 980.525 283.518 975.261 C 306.643 971.561 329.691 974.856 351.903 981.853 C 333.97 968.649 303.451 959.706 281.188 961.425 z M 311.876 1003.04 C 312.146 1006.44 313.042 1010.9 310.881 1013.78 C 308.622 1016.79 305.441 1019.01 301.649 1019.37 C 298.533 1019.66 294.708 1017.86 292.521 1015.72 C 289.362 1012.64 289.242 1007.72 288.356 1003.63 C 279.75 1005.23 270.294 1006.14 262.841 1011 C 262.069 1012.47 261.363 1012.81 261.985 1014.48 C 263.373 1018.21 265.675 1019.66 265.772 1023.79 C 262.734 1028.46 257.575 1029.89 252.536 1031.57 C 249.638 1029.04 246.787 1026.35 243.706 1024.05 C 236.543 1029.25 231.451 1034.32 226.554 1041.7 C 230.234 1044.25 234.941 1046.72 235.539 1051.62 C 236.186 1056.93 231.139 1062.16 227.747 1065.69 C 223.059 1064.89 218.409 1064.14 213.81 1062.9 C 212.001 1070.01 210.432 1077.09 209.065 1084.29 C 214.368 1085.21 218.465 1085.75 221.759 1090.43 C 223.631 1093.1 224.468 1096.02 223.837 1099.26 C 223.337 1101.83 221.31 1104.72 219.057 1106.04 C 216.609 1107.48 213.142 1107.73 210.377 1108.07 C 212.693 1116.21 215.35 1123.99 219.289 1131.51 C 222.314 1128.92 225.168 1125.94 229.523 1126.59 C 235.454 1127.47 239.019 1135.18 241.755 1139.89 L 242.526 1141.22 C 239.743 1144.98 237.042 1148.7 233.818 1152.1 C 237.172 1156.45 240.626 1160.25 244.568 1164.06 C 247.594 1160.57 251.452 1154.83 256.337 1154.14 C 261.368 1153.42 265.97 1158.44 269.235 1161.6 C 269.862 1162.21 270.484 1162.82 271.1 1163.45 C 268.98 1168.28 267.411 1172.84 266.091 1177.96 C 273.6 1180.77 281.361 1182.23 289.191 1183.83 C 289.35 1178.21 289.549 1173.06 291.21 1167.63 C 296.488 1166.1 304.039 1164.31 308.978 1167.72 C 311.885 1169.72 313.751 1173.46 314.127 1176.91 C 314.406 1179.47 314.401 1182.11 314.439 1184.68 C 323.931 1183.68 332.833 1182.14 341.836 1178.89 C 338.833 1174.86 334.214 1170.18 335.049 1164.76 C 335.656 1160.82 339.095 1158.51 342.362 1156.77 C 344.596 1155.57 346.994 1154.63 349.343 1153.69 C 355.2 1157.23 358.916 1160.8 363.153 1166.21 C 368.304 1161.36 372.778 1156.53 377.13 1150.96 L 367.996 1142.95 C 370.812 1137.17 373.952 1127.81 380.548 1125.38 C 385.617 1123.5 389.079 1128.66 393.465 1125.87 C 395.049 1122.45 396.805 1117.78 395.936 1113.99 C 395.603 1112.53 394.565 1112.05 393.225 1111.52 C 391.566 1110.86 389.435 1110.64 387.672 1110.3 C 385.625 1108.49 385.031 1108.01 384.608 1105.14 C 383.969 1100.8 385.888 1095.31 388.6 1092 C 390.795 1090.92 392.872 1090.11 395.213 1089.4 C 397.938 1085.45 396.818 1081.52 396.016 1077.17 C 395.419 1073.94 394.78 1070.72 394.101 1067.52 C 390.231 1069.27 386.401 1071.43 382.056 1069.93 C 378.957 1068.85 377.08 1065.94 376.05 1062.98 C 374.893 1059.65 374.476 1055.88 373.922 1052.41 L 381.928 1047.11 C 375.202 1037.7 368.255 1029.53 359.348 1022.12 C 357.58 1026.3 356.593 1030.16 352.009 1031.93 C 349.068 1033.06 345.156 1032.5 342.461 1030.99 C 339.108 1029.11 336.821 1025.56 336.073 1021.83 C 335.375 1018.34 336.416 1015.77 338.513 1012.99 C 339.458 1011.74 340.465 1010.51 341.481 1009.32 C 331.635 1006.89 321.914 1004.57 311.876 1003.04 z"
     id="path54" />
  <path
     transform="translate(0,0)"
     fill="rgb(254,254,254)"
     d="M 1802.86 959.803 C 1791.92 959.949 1755.14 957.569 1747.43 962.897 C 1736.2 970.653 1742.02 993.744 1739.92 1005.45 C 1737.6 1006.5 1737.1 1006.2 1734.66 1006 C 1732.48 1003.71 1732.99 1000.62 1732.86 997.529 C 1732.44 987.342 1729.39 966.256 1737.17 958.557 C 1745.46 950.353 1773.42 952.728 1785.24 952.462 C 1798 952.104 1842.08 950.142 1851.84 954.687 C 1853.43 955.427 1853.55 955.878 1854.12 957.462 C 1856.2 963.219 1857.57 997.537 1855.13 1003.26 L 1853.41 1003.89 C 1841.98 999.932 1852.06 971.773 1844.26 962.822 C 1840.11 958.06 1810.2 959.778 1802.86 959.803 z"
     id="path55" />
  <path
     transform="translate(0,0)"
     fill="rgb(254,254,254)"
     d="M 278.495 989.987 C 270.281 992.379 262.453 995.884 254.348 998.633 C 259.883 991.697 279.337 987.658 287.894 986.523 C 317.594 982.584 356.538 989.484 380.637 1007.98 C 401.864 1024.27 412.861 1047.17 416.164 1073.43 C 419.902 1103.15 413.428 1136.52 394.525 1160.29 C 371.34 1189.45 334.233 1208.17 297.452 1212.02 C 264.091 1215.65 230.668 1205.76 204.654 1184.56 C 180.687 1164.75 164.139 1133.46 161.259 1102.48 C 158.22 1069.8 170.459 1030.64 191.434 1005.41 C 213.725 978.601 247.129 964.65 281.188 961.425 C 303.451 959.706 333.97 968.649 351.903 981.853 C 329.691 974.856 306.643 971.561 283.518 975.261 C 252.228 980.525 224.268 997.897 205.687 1023.62 C 187.471 1049.11 181.021 1081.68 186.431 1112.38 C 191.926 1141.85 208.849 1167.95 233.509 1184.98 C 258.099 1202.07 292.351 1207.23 321.477 1201.71 C 351.445 1196.04 377.428 1177.18 394.376 1152.09 C 410.345 1128.83 416.329 1100.15 410.989 1072.44 C 405.881 1046.32 389.586 1019.16 367.202 1004.28 C 344.376 989.106 304.952 984.849 278.495 989.987 z"
     id="path56" />
  <path
     transform="translate(0,0)"
     fill="rgb(254,254,254)"
     d="M 1750.17 1005.17 C 1750.06 996.678 1747.4 981.309 1753.17 974.628 C 1757.16 970.011 1763.46 970.666 1769.02 970.422 C 1789.3 969.497 1818.18 967.765 1837.67 971.345 C 1839.49 982.1 1839.01 993.306 1839.04 1004.18 L 1823.25 1004.68 C 1798.9 1005.12 1774.52 1005.03 1750.17 1005.17 z"
     id="path57" />
  <path
     transform="translate(0,0)"
     fill="rgb(254,254,254)"
     d="M 288.356 1003.63 C 289.242 1007.72 289.362 1012.64 292.521 1015.72 C 294.708 1017.86 298.533 1019.66 301.649 1019.37 C 305.441 1019.01 308.622 1016.79 310.881 1013.78 C 313.042 1010.9 312.146 1006.44 311.876 1003.04 C 321.914 1004.57 331.635 1006.89 341.481 1009.32 C 340.465 1010.51 339.458 1011.74 338.513 1012.99 C 336.416 1015.77 335.375 1018.34 336.073 1021.83 C 336.821 1025.56 339.108 1029.11 342.461 1030.99 C 345.156 1032.5 349.068 1033.06 352.009 1031.93 C 356.593 1030.16 357.58 1026.3 359.348 1022.12 C 368.255 1029.53 375.202 1037.7 381.928 1047.11 L 373.922 1052.41 C 374.476 1055.88 374.893 1059.65 376.05 1062.98 C 377.08 1065.94 378.957 1068.85 382.056 1069.93 C 386.401 1071.43 390.231 1069.27 394.101 1067.52 C 394.78 1070.72 395.419 1073.94 396.016 1077.17 C 396.818 1081.52 397.938 1085.45 395.213 1089.4 C 392.872 1090.11 390.795 1090.92 388.6 1092 C 385.888 1095.31 383.969 1100.8 384.608 1105.14 C 385.031 1108.01 385.625 1108.49 387.672 1110.3 C 389.435 1110.64 391.566 1110.86 393.225 1111.52 C 394.565 1112.05 395.603 1112.53 395.936 1113.99 C 396.805 1117.78 395.049 1122.45 393.465 1125.87 C 389.079 1128.66 385.617 1123.5 380.548 1125.38 C 373.952 1127.81 370.812 1137.17 367.996 1142.95 L 377.13 1150.96 C 372.778 1156.53 368.304 1161.36 363.153 1166.21 C 358.916 1160.8 355.2 1157.23 349.343 1153.69 C 346.994 1154.63 344.596 1155.57 342.362 1156.77 C 339.095 1158.51 335.656 1160.82 335.049 1164.76 C 334.214 1170.18 338.833 1174.86 341.836 1178.89 C 332.833 1182.14 323.931 1183.68 314.439 1184.68 C 314.401 1182.11 314.406 1179.47 314.127 1176.91 C 313.751 1173.46 311.885 1169.72 308.978 1167.72 C 304.039 1164.31 296.488 1166.1 291.21 1167.63 C 289.549 1173.06 289.35 1178.21 289.191 1183.83 C 281.361 1182.23 273.6 1180.77 266.091 1177.96 C 267.411 1172.84 268.98 1168.28 271.1 1163.45 C 270.484 1162.82 269.862 1162.21 269.235 1161.6 C 265.97 1158.44 261.368 1153.42 256.337 1154.14 C 251.452 1154.83 247.594 1160.57 244.568 1164.06 C 240.626 1160.25 237.172 1156.45 233.818 1152.1 C 237.042 1148.7 239.743 1144.98 242.526 1141.22 L 241.755 1139.89 C 239.019 1135.18 235.454 1127.47 229.523 1126.59 C 225.168 1125.94 222.314 1128.92 219.289 1131.51 C 215.35 1123.99 212.693 1116.21 210.377 1108.07 C 213.142 1107.73 216.609 1107.48 219.057 1106.04 C 221.31 1104.72 223.337 1101.83 223.837 1099.26 C 224.468 1096.02 223.631 1093.1 221.759 1090.43 C 218.465 1085.75 214.368 1085.21 209.065 1084.29 C 210.432 1077.09 212.001 1070.01 213.81 1062.9 C 218.409 1064.14 223.059 1064.89 227.747 1065.69 C 231.139 1062.16 236.186 1056.93 235.539 1051.62 C 234.941 1046.72 230.234 1044.25 226.554 1041.7 C 231.451 1034.32 236.543 1029.25 243.706 1024.05 C 246.787 1026.35 249.638 1029.04 252.536 1031.57 C 257.575 1029.89 262.734 1028.46 265.772 1023.79 C 265.675 1019.66 263.373 1018.21 261.985 1014.48 C 261.363 1012.81 262.069 1012.47 262.841 1011 C 270.294 1006.14 279.75 1005.23 288.356 1003.63 z M 293.121 1035.96 C 292.008 1037.39 290.935 1038.7 290.541 1040.52 C 288.658 1049.2 288.188 1086.22 289.528 1095.24 C 289.827 1097.24 289.961 1098.62 291.711 1099.81 C 300.572 1105.89 330.387 1105.2 341.743 1105.24 C 343.877 1102.93 345.258 1101.47 345.963 1098.28 C 345.226 1095.75 344.883 1094.59 342.438 1093.31 C 332.783 1088.26 315.919 1090.6 304.93 1088.65 C 304.922 1078.4 307.866 1044.56 302.929 1037.74 C 299.828 1035.85 296.629 1036.08 293.121 1035.96 z"
     id="path58" />
  <path
     transform="translate(0,0)"
     fill="rgb(24,25,25)"
     d="M 341.743 1105.24 C 330.387 1105.2 300.572 1105.89 291.711 1099.81 C 289.961 1098.62 289.827 1097.24 289.528 1095.24 C 288.188 1086.22 288.658 1049.2 290.541 1040.52 C 290.935 1038.7 292.008 1037.39 293.121 1035.96 C 296.629 1036.08 299.828 1035.85 302.929 1037.74 C 307.866 1044.56 304.922 1078.4 304.93 1088.65 C 315.919 1090.6 332.783 1088.26 342.438 1093.31 C 344.883 1094.59 345.226 1095.75 345.963 1098.28 C 345.258 1101.47 343.877 1102.93 341.743 1105.24 z"
     id="path61" />
  <path
     transform="translate(0,0)"
     fill="rgb(254,254,254)"
     d="M 1715.52 1042.54 C 1725.43 1041.75 1735.53 1041.84 1745.47 1041.55 C 1770.4 1040.24 1795.6 1040.92 1820.55 1040.87 C 1835.5 1040.85 1851.04 1039.71 1865.93 1040.51 C 1868.6 1040.65 1869.82 1040.71 1871.55 1042.77 L 1870.75 1045.27 C 1865.06 1048.58 1849.25 1045.64 1842.46 1045.12 C 1840.93 1045.95 1840.23 1046.07 1839.27 1047.63 C 1836.05 1052.84 1832.56 1155.74 1832.72 1168.66 C 1832.79 1173.55 1833.08 1178.18 1834.21 1182.97 C 1834.3 1183.34 1834.41 1183.72 1834.5 1184.09 C 1823.79 1183.53 1813.02 1184.18 1802.31 1184.56 L 1802.5 1159.34 C 1809.95 1159.02 1818.48 1161.17 1825.32 1157.87 C 1827 1155.44 1827.01 1155.12 1827.05 1152.14 C 1822.73 1148.46 1812.46 1150.6 1807.01 1150.52 C 1804.51 1150.49 1803.7 1150.4 1801.95 1148.61 L 1802.2 1146.32 C 1808.14 1142.03 1821.14 1146.34 1828.37 1142.48 C 1830.85 1141.16 1832.17 1139.06 1832.77 1136.39 C 1834.19 1130.12 1832.15 1109.34 1828.76 1104.17 C 1822.56 1102.64 1815.35 1104.29 1808.95 1104.17 C 1806.38 1104.11 1804.99 1104.12 1803.22 1102.12 C 1803.55 1099.07 1803.43 1098.01 1805.32 1095.51 C 1810.61 1093.81 1817.03 1097.18 1822.65 1096.85 C 1825.72 1096.66 1828.58 1095.31 1830.44 1092.81 C 1836.46 1084.71 1834.14 1062.01 1832.75 1052.12 C 1826.56 1044.77 1811.76 1049.41 1803.37 1048.14 C 1801.86 1047.91 1800.38 1047.76 1798.85 1047.64 L 1796.74 1049.57 C 1793.79 1060.83 1795.87 1116.94 1795.6 1133.25 C 1795.33 1136.36 1794.58 1140.42 1795.46 1143.39 C 1795.99 1145.14 1799.02 1145.74 1800.64 1146.41 L 1799.98 1148.48 C 1798.29 1149.28 1796.85 1150.11 1795.34 1151.21 C 1791.89 1161.94 1795.36 1171.93 1794.09 1182.63 C 1792.09 1165 1794.07 1147.63 1794.06 1129.98 C 1794.05 1120.72 1792.08 1111.53 1792.09 1102.3 C 1792.09 1094.51 1793.39 1086.77 1793.74 1078.99 C 1794.16 1069.41 1793.81 1059.83 1794.32 1050.22 C 1792.66 1047.78 1791.34 1045.18 1788.54 1043.94 C 1787.89 1044.52 1787.21 1045.09 1786.59 1045.71 C 1778.53 1053.84 1768 1045.62 1758.87 1050.55 C 1756.26 1051.95 1755.44 1053.28 1754.73 1056.08 C 1751.45 1069.02 1753.45 1085.49 1753.68 1098.82 L 1754.68 1157.57 C 1754.87 1165.31 1756.76 1179.23 1753.77 1186.29 C 1751.63 1187.6 1751.63 1187.71 1749.17 1187.34 C 1747.93 1185.76 1747.77 1184.78 1747.74 1182.85 C 1747.58 1173.17 1746.69 1163.55 1746.74 1153.85 C 1746.78 1138.83 1746.9 1123.81 1747.1 1108.79 C 1747.39 1096 1751.2 1062.54 1746.98 1051.17 C 1746.41 1049.65 1745.34 1049.15 1743.86 1048.54 C 1738.99 1046.55 1729.62 1048.88 1724.98 1050.69 C 1722.55 1051.64 1721.31 1052.21 1720.18 1054.64 C 1720.4 1054.88 1720.6 1055.14 1720.85 1055.35 C 1724.75 1058.55 1734.59 1057.07 1739.42 1056.94 C 1739.55 1066.29 1739.2 1075.68 1739.04 1085.03 L 1717.28 1085.08 C 1717.35 1070.88 1716.76 1056.68 1715.52 1042.54 z"
     id="path62" />
  <path
     transform="translate(0,0)"
     fill="rgb(254,254,254)"
     d="M 1845.11 1054.96 C 1852.71 1054.97 1860.06 1054.97 1867.52 1053.35 C 1869.64 1053.32 1869.56 1052.93 1871.28 1054.41 C 1873.51 1063.25 1872.11 1074.71 1871.95 1083.91 L 1849.47 1084.54 C 1847.48 1084.55 1847.4 1084.87 1845.72 1083.59 C 1843.44 1075.1 1844.91 1063.84 1845.11 1054.96 z"
     id="path63" />
  <path
     transform="translate(0,0)"
     fill="rgb(254,254,254)"
     d="M 686.515 1356.08 C 683.189 1351.27 681.587 1078.11 683.285 1053.37 L 685.014 1054.08 C 685.419 1054.7 686.025 1055.22 686.23 1055.94 C 687.639 1060.83 686.69 1105.14 686.743 1115.01 C 687.12 1195.37 687.044 1275.73 686.515 1356.08 z"
     id="path64" />
  <path
     transform="translate(0,0)"
     fill="rgb(254,254,254)"
     d="M 1802.74 1057.04 C 1810.31 1057.01 1817.61 1055.86 1825.07 1054.72 C 1826.16 1063.79 1825.25 1073.83 1825.21 1083.01 L 1803.62 1083.03 C 1803.42 1074.37 1803.13 1065.7 1802.74 1057.04 z"
     id="path65" />
  <path
     transform="translate(0,0)"
     fill="rgb(24,25,25)"
     d="M 1584.11 1073.27 C 1578.51 1074.96 1573.55 1076.37 1567.6 1076.02 C 1561.37 1075.65 1550.19 1073.66 1546.45 1067.96 C 1545.71 1066.84 1545.29 1065.46 1545.59 1064.14 C 1546.6 1059.79 1550.2 1057.29 1553.81 1055.15 C 1557.79 1054.9 1561.82 1054.76 1565.8 1055.14 C 1572.63 1055.79 1587.27 1057.81 1591.4 1063.62 C 1592.32 1064.93 1591.82 1065.89 1591.65 1067.36 C 1589.39 1070.26 1587.33 1071.55 1584.11 1073.27 z"
     id="path66" />
  <path
     transform="translate(0,0)"
     fill="rgb(254,254,254)"
     d="M 1761.88 1057.96 C 1769.55 1057.73 1777.22 1057.4 1784.88 1056.96 C 1787.21 1064.05 1785.37 1077.32 1785.3 1084.99 L 1762.2 1085.38 C 1761.5 1076.32 1761.87 1067.05 1761.88 1057.96 z"
     id="path67" />
  <path
     transform="translate(0,0)"
     fill="rgb(24,25,25)"
     d="M 535.757 1084.24 C 527.667 1085.11 520.927 1085.84 514.044 1080.73 C 511.676 1078.97 510.618 1077.31 510.086 1074.39 C 510.527 1072.87 510.89 1071.68 512.067 1070.53 C 519.55 1063.24 538.676 1064.2 548.537 1063.4 C 554.22 1062.28 561.975 1062.05 567.412 1064.14 C 570.86 1065.46 573.105 1067.21 574.6 1070.68 C 574.689 1072.91 574.226 1074.06 572.837 1075.84 C 566.141 1084.42 545.77 1083.58 535.757 1084.24 z"
     id="path68" />
  <path
     transform="translate(0,0)"
     fill="rgb(24,25,25)"
     d="M 947.418 1215.7 C 947.985 1193.3 948.177 1170.9 947.995 1148.5 C 947.839 1133.7 945.234 1111.57 948.292 1097.92 C 949.143 1094.12 951.885 1092.78 954.963 1090.93 C 958.184 1091.61 961.437 1092.16 963.874 1094.57 C 965.514 1096.19 965.972 1098.25 966.237 1100.44 C 967.53 1111.19 966.539 1123.06 966.65 1133.96 C 966.918 1160.73 967.045 1187.49 967.032 1214.26 C 989.964 1219.14 1009.66 1229.24 1028.76 1242.61 C 1040.59 1232.28 1111.07 1165.43 1118.92 1163.05 C 1121.78 1162.18 1125.1 1162.54 1127.56 1164.31 C 1129.62 1165.8 1130.78 1167.94 1130.95 1170.48 C 1131.1 1172.59 1130.68 1174.55 1129.47 1176.29 C 1122.32 1186.56 1109.76 1195.63 1100.35 1204.02 C 1080.39 1221.82 1059.93 1239.26 1040.61 1257.75 C 1050.64 1273.12 1055.99 1288.79 1058.97 1306.83 C 1081.96 1307.17 1104.94 1307.71 1127.91 1308.46 C 1140.62 1308.77 1153.79 1308.09 1166.4 1309.42 C 1169.28 1309.72 1172.18 1310.05 1174.57 1311.84 C 1176.54 1313.31 1177.64 1315.46 1177.68 1317.91 C 1177.73 1320.61 1176.53 1323.04 1174.56 1324.84 C 1172.48 1326.73 1170.5 1327.44 1167.78 1327.71 C 1155.83 1328.91 1142.7 1327.59 1130.66 1327.25 C 1106.52 1326.44 1082.37 1325.75 1058.22 1325.2 C 1055.31 1343.55 1050.33 1361.02 1039.33 1376.23 C 1052.12 1387.79 1127.18 1449.95 1131.35 1457.13 C 1132.66 1459.4 1133.14 1461.79 1132.18 1464.31 C 1130.86 1467.8 1128.49 1469.4 1125.13 1470.55 C 1120.94 1470.49 1117.82 1468.36 1114.43 1466.06 C 1104.96 1459.64 1096.38 1451.07 1087.72 1443.54 C 1067.51 1425.97 1047.66 1407.77 1026.27 1391.64 C 1009.3 1403.65 989.758 1412.77 969 1415.42 L 968.682 1485.47 C 968.587 1498.33 969.238 1511.7 967.809 1524.45 C 966.323 1526.26 964.696 1528.48 962.448 1529.36 C 959.283 1530.6 956.938 1530.87 953.78 1529.36 C 951.462 1526.96 950.764 1525.27 950.249 1522.05 C 948.394 1510.47 949.727 1497.49 949.777 1485.74 L 949.989 1415.78 C 925.603 1413.2 905.477 1405.74 888.641 1387.39 L 825.233 1441.48 C 818.109 1447.45 811.095 1454.71 803.555 1459.98 C 801.772 1461.22 799.677 1462.21 797.478 1462.37 C 794.901 1462.55 792.118 1461.55 790.206 1459.82 C 788.297 1458.1 787.553 1455.52 787.669 1453.01 C 787.838 1449.38 789.913 1446.6 792.296 1444.05 C 799.232 1436.64 808.118 1430.38 815.94 1423.91 C 835.519 1407.71 856.361 1391.6 873.797 1373.11 C 863.563 1356.65 858.772 1342.9 854.338 1324.22 C 831.441 1323.79 808.541 1323.57 785.641 1323.54 C 772.252 1323.52 758.224 1324.35 744.905 1323.01 C 742.125 1322.74 739.679 1322.43 737.348 1320.7 C 735.501 1319.33 734.566 1317.61 734.266 1315.35 C 733.871 1312.38 734.382 1309.04 736.523 1306.78 C 738.303 1304.91 740.538 1304.55 742.963 1304.26 C 755.379 1302.73 769.006 1303.78 781.544 1303.83 L 854.822 1304.02 C 858.822 1283.48 864.9 1269.89 877.677 1253.31 C 862.821 1239.35 789.914 1187.16 785.344 1176.32 C 784.22 1173.66 784.473 1172 785.452 1169.39 C 787.332 1167.26 788.974 1166 791.819 1165.54 C 795.997 1164.86 800.479 1166.59 803.987 1168.73 C 811.987 1173.61 819.305 1181.57 826.597 1187.62 C 847.593 1205.03 869.007 1223.62 891.281 1239.29 C 909.38 1225.25 924.762 1218.93 947.418 1215.7 z M 943.565 1234.64 C 899.18 1241.85 868.815 1283.37 875.397 1327.85 C 881.98 1372.33 923.069 1403.28 967.64 1397.33 C 997.035 1393.4 1022.04 1373.95 1033.08 1346.42 C 1044.12 1318.89 1039.48 1287.56 1020.94 1264.41 C 1002.4 1241.26 972.839 1229.88 943.565 1234.64 z"
     id="path69" />
  <path
     transform="translate(0,0)"
     fill="rgb(254,254,254)"
     d="M 1738.27 1105.18 C 1731.54 1105.03 1724.21 1107.09 1718.04 1104 C 1716.28 1100.91 1716.79 1098.85 1716.87 1095.35 C 1723.11 1095.25 1730.66 1093.47 1736.46 1096 C 1738.85 1099.19 1738.22 1101.27 1738.27 1105.18 z"
     id="path70" />
  <path
     transform="translate(0,0)"
     fill="rgb(254,254,254)"
     d="M 1871.72 1101.36 C 1865.2 1101.74 1850.34 1104.41 1844.78 1100.69 C 1843.44 1099.79 1843.44 1096.41 1843.19 1094.83 C 1849.64 1094.73 1864.85 1092.63 1870.22 1095.99 C 1871.52 1096.81 1871.48 1099.88 1871.72 1101.36 z"
     id="path71" />
  <path
     transform="translate(0,0)"
     fill="rgb(254,254,254)"
     d="M 1761.72 1106.96 L 1761.48 1096.01 C 1768.68 1096.03 1777.98 1093.64 1784.4 1097.29 C 1785.94 1100.6 1785.3 1102.61 1784.96 1106.2 C 1777.23 1106.7 1769.46 1106.76 1761.72 1106.96 z"
     id="path72" />
  <path
     transform="translate(0,0)"
     fill="rgb(254,254,254)"
     d="M 1844.05 1134.72 C 1843.97 1126.98 1844.02 1119.24 1844.2 1111.5 L 1870.98 1111.31 C 1871.05 1116.59 1872.61 1129.24 1869.75 1133.3 L 1844.05 1134.72 z"
     id="path73" />
  <path
     transform="translate(0,0)"
     fill="rgb(254,254,254)"
     d="M 1803.15 1133.98 C 1803.14 1128.6 1801.16 1119.6 1803.96 1114.94 C 1804.76 1113.6 1807.29 1113.76 1808.76 1113.55 L 1824.11 1112.74 C 1823.99 1119.01 1825.26 1125.22 1823.61 1131.36 C 1821.52 1133.65 1820.75 1133.16 1817.75 1133.32 L 1803.15 1133.98 z"
     id="path74" />
  <path
     transform="translate(0,0)"
     fill="rgb(254,254,254)"
     d="M 1715.88 1139.04 L 1716.33 1115.21 C 1721.74 1114.99 1733.51 1113.14 1737.25 1117.72 C 1740.68 1121.93 1739.12 1133.31 1738.97 1138.67 C 1731.3 1139.1 1723.56 1138.97 1715.88 1139.04 z"
     id="path75" />
  <path
     transform="translate(0,0)"
     fill="rgb(254,254,254)"
     d="M 1761.92 1116.07 L 1780.76 1115.43 C 1783 1115.4 1783.12 1115.08 1785.06 1116.41 C 1787.02 1122.83 1786.02 1130.31 1785.85 1136.98 L 1766.75 1137.9 C 1764.79 1137.91 1764.64 1137.89 1762.83 1136.83 C 1760.75 1130.53 1761.8 1122.68 1761.92 1116.07 z"
     id="path76" />
  <path
     transform="translate(0,0)"
     fill="rgb(24,25,25)"
     d="M 1244.94 1225.26 C 1235.32 1218.2 1227.84 1210.17 1224.08 1198.6 C 1220.21 1186.43 1221.57 1173.2 1227.84 1162.08 C 1234.97 1149.34 1246.33 1142.77 1260.04 1139.18 C 1262.68 1139.02 1265.37 1138.82 1268.01 1138.89 C 1279.67 1139.15 1290.69 1144.25 1298.43 1152.96 C 1306.93 1162.48 1311 1175.48 1310.3 1188.15 C 1309.45 1203.42 1302.01 1213.44 1290.99 1223.16 C 1291.02 1230.42 1289.47 1238.95 1294.01 1245.13 C 1300.84 1254.45 1299.39 1263.86 1298.82 1274.82 C 1295.86 1279.2 1293.2 1282.2 1289.01 1285.5 L 1289.1 1377.27 C 1289.13 1392.93 1290.46 1409.88 1288.6 1425.36 C 1288.22 1428.52 1287.73 1431.45 1285.36 1433.78 C 1279.3 1439.76 1268.68 1439.02 1260.84 1438.91 C 1256.81 1437.95 1252.36 1437.08 1249.28 1434.08 C 1247.06 1431.91 1246.18 1429.19 1245.71 1426.2 C 1244.12 1416.08 1245.25 1404.49 1245.36 1394.22 C 1245.75 1374.1 1245.76 1353.97 1245.39 1333.85 C 1243.08 1333.86 1240.72 1333.91 1238.42 1333.65 C 1232.11 1332.93 1228.77 1328.53 1225.06 1323.92 C 1224.2 1310.21 1222.9 1263.94 1228.16 1253.33 C 1231.54 1246.5 1237.61 1244.72 1244.29 1242.47 L 1244.94 1225.26 z M 1260.81 1156.09 C 1245.58 1159.24 1235.7 1174.03 1238.62 1189.31 C 1241.53 1204.58 1256.17 1214.69 1271.49 1212 C 1281.61 1210.23 1289.99 1203.14 1293.41 1193.46 C 1296.84 1183.77 1294.78 1172.99 1288.03 1165.25 C 1281.27 1157.51 1270.87 1154.01 1260.81 1156.09 z M 1263.89 1229.53 C 1263.28 1275.13 1263.28 1320.73 1263.89 1366.33 C 1264.05 1383.92 1262.32 1402.85 1264.33 1420.26 C 1266.71 1422.33 1268.82 1422.09 1271.91 1422.5 L 1272.14 1290.04 C 1272.16 1273.48 1274.09 1246.13 1271.45 1231 C 1269 1229.5 1266.66 1229.62 1263.89 1229.53 z M 1242.28 1258.65 C 1240.16 1264.91 1239.47 1311.39 1241.55 1316.23 C 1241.97 1317.2 1242.79 1317.79 1243.52 1318.52 C 1244.86 1310.31 1245.98 1265.3 1243.21 1259.41 L 1242.28 1258.65 z"
     id="path77" />
  <path
     transform="translate(0,0)"
     fill="rgb(254,254,254)"
     d="M 1868.25 1149.07 C 1861.92 1149.24 1850.51 1150.89 1844.87 1147.83 L 1844.6 1146.16 C 1846.58 1144.39 1848.07 1144.75 1850.63 1144.52 C 1854.73 1144.31 1858.93 1143.98 1863.03 1144.21 C 1867.36 1144.46 1871.07 1144.82 1873.95 1148.2 C 1871.75 1149.09 1870.6 1149.01 1868.25 1149.07 z"
     id="path78" />
  <path
     transform="translate(0,0)"
     fill="rgb(254,254,254)"
     d="M 1786.95 1155.15 C 1779.22 1154.93 1771.37 1156.6 1763.82 1154.67 C 1761.54 1152.49 1762.02 1151.4 1761.82 1148.33 C 1769.5 1148.22 1777.24 1146.69 1784.75 1148.64 C 1787.18 1150.95 1786.71 1151.9 1786.95 1155.15 z"
     id="path79" />
  <path
     transform="translate(0,0)"
     fill="rgb(254,254,254)"
     d="M 1738.6 1154.94 C 1732.71 1154.97 1720.72 1157.66 1715.83 1154.6 C 1714.56 1153.8 1714.75 1151.45 1714.54 1150.06 C 1720.99 1150.11 1733.44 1147.46 1738.62 1151.51 L 1738.6 1154.94 z"
     id="path80" />
  <path
     transform="translate(0,0)"
     fill="rgb(254,254,254)"
     d="M 1271.49 1212 C 1256.17 1214.69 1241.53 1204.58 1238.62 1189.31 C 1235.7 1174.03 1245.58 1159.24 1260.81 1156.09 C 1270.87 1154.01 1281.27 1157.51 1288.03 1165.25 C 1294.78 1172.99 1296.84 1183.77 1293.41 1193.46 C 1289.99 1203.14 1281.61 1210.23 1271.49 1212 z"
     id="path81" />
  <path
     transform="translate(0,0)"
     fill="rgb(254,254,254)"
     d="M 1845.16 1184.02 L 1844.97 1157.81 L 1870.4 1157.7 C 1870.26 1166.31 1870.75 1174.94 1871.1 1183.54 C 1862.47 1183.91 1853.8 1183.88 1845.16 1184.02 z"
     id="path82" />
  <path
     transform="translate(0,0)"
     fill="rgb(254,254,254)"
     d="M 1714.79 1164.01 C 1720.61 1163.99 1726.42 1163.68 1732.24 1163.44 C 1733.6 1163.3 1735.28 1162.99 1736.64 1163.15 C 1738.06 1163.31 1739.04 1163.5 1739.79 1164.75 C 1743.21 1170.52 1740.13 1181.49 1739.14 1187.92 C 1734.54 1188.71 1729.89 1188.76 1725.23 1188.93 C 1723.36 1189.04 1721.12 1189.36 1719.28 1189.12 C 1717.72 1188.91 1716.79 1188.57 1715.88 1187.31 C 1713.92 1184.57 1713.85 1181.86 1714.17 1178.66 C 1714.66 1173.78 1714.7 1168.91 1714.79 1164.01 z"
     id="path83" />
  <path
     transform="translate(0,0)"
     fill="rgb(254,254,254)"
     d="M 1762.49 1164.16 C 1769.19 1164.05 1775.9 1163.83 1782.59 1163.5 L 1785.92 1163.4 C 1789.43 1168.29 1787.58 1180.54 1787.34 1186.64 C 1780.86 1187.17 1774.26 1187.17 1767.75 1187.39 C 1765.71 1187.43 1764.81 1187.42 1763.1 1186.24 C 1761.12 1179.34 1762.24 1171.3 1762.49 1164.16 z"
     id="path84" />
  <path
     transform="translate(0,0)"
     fill="rgb(254,254,254)"
     d="M 1271.91 1422.5 C 1268.82 1422.09 1266.71 1422.33 1264.33 1420.26 C 1262.32 1402.85 1264.05 1383.92 1263.89 1366.33 C 1263.28 1320.73 1263.28 1275.13 1263.89 1229.53 C 1266.66 1229.62 1269 1229.5 1271.45 1231 C 1274.09 1246.13 1272.16 1273.48 1272.14 1290.04 L 1271.91 1422.5 z"
     id="path85" />
  <path
     transform="translate(0,0)"
     fill="rgb(254,254,254)"
     d="M 967.64 1397.33 C 923.069 1403.28 881.98 1372.33 875.397 1327.85 C 868.815 1283.37 899.18 1241.85 943.565 1234.64 C 972.839 1229.88 1002.4 1241.26 1020.94 1264.41 C 1039.48 1287.56 1044.12 1318.89 1033.08 1346.42 C 1022.04 1373.95 997.035 1393.4 967.64 1397.33 z M 947.725 1242.52 C 907.268 1247.38 878.336 1284.01 882.975 1324.49 C 887.614 1364.98 924.081 1394.11 964.589 1389.69 C 1005.41 1385.24 1034.82 1348.43 1030.15 1307.63 C 1025.47 1266.83 988.498 1237.62 947.725 1242.52 z"
     id="path86" />
  <path
     transform="translate(0,0)"
     fill="rgb(24,25,25)"
     d="M 964.589 1389.69 C 924.081 1394.11 887.614 1364.98 882.975 1324.49 C 878.336 1284.01 907.268 1247.38 947.725 1242.52 C 988.498 1237.62 1025.47 1266.83 1030.15 1307.63 C 1034.82 1348.43 1005.41 1385.24 964.589 1389.69 z M 946.203 1262.33 C 916.524 1268.05 897.061 1296.7 902.673 1326.4 C 908.285 1356.1 936.858 1375.67 966.579 1370.17 C 996.458 1364.64 1016.15 1335.88 1010.51 1306.02 C 1004.87 1276.16 976.039 1256.57 946.203 1262.33 z"
     id="path87" />
  <path
     transform="translate(0,0)"
     fill="rgb(254,254,254)"
     d="M 1243.52 1318.52 C 1242.79 1317.79 1241.97 1317.2 1241.55 1316.23 C 1239.47 1311.39 1240.16 1264.91 1242.28 1258.65 L 1243.21 1259.41 C 1245.98 1265.3 1244.86 1310.31 1243.52 1318.52 z"
     id="path88" />
  <path
     transform="translate(0,0)"
     fill="rgb(254,254,254)"
     d="M 966.579 1370.17 C 936.858 1375.67 908.285 1356.1 902.673 1326.4 C 897.061 1296.7 916.524 1268.05 946.203 1262.33 C 976.039 1256.57 1004.87 1276.16 1010.51 1306.02 C 1016.15 1335.88 996.458 1364.64 966.579 1370.17 z"
     id="path89" />
  <path
     transform="translate(0,0)"
     fill="rgb(254,254,254)"
     d="M 682.743 1660.5 C 681.73 1628.98 681.145 1597.46 680.99 1565.93 C 689.469 1565.73 697.998 1565.99 706.481 1566.06 L 708.504 1660.44 L 682.743 1660.5 z"
     id="path90" />
  <path
     fill="#181919"
     d="m 591.87631,720.26976 c -2.39073,1.68058 -4.98076,3.87785 -8.0887,3.52462 -9.9436,-1.13528 -22.5788,-23.03818 -27.96219,-31.11537 -4.54848,-6.84298 -8.56269,-11.99108 -6.83976,-20.58285 0.74177,-0.55584 1.46242,-1.12838 2.24172,-1.63889 2.21177,-1.44993 4.20439,-1.95558 6.75243,-1.31226 8.75569,2.19956 26.01262,29.10378 31.29254,37.74413 3.02975,4.93931 4.01978,7.66973 2.60396,13.38062 z"
     id="path91" />
</svg>
