<?xml version="1.0" encoding="UTF-8" standalone="no"?>
<svg
   version="1.1"
   style="display: block;"
   viewBox="0 0 2048 2048"
   width="1024"
   height="1024"
   id="svg88"
   sodipodi:docname="download.svg"
   inkscape:version="1.4.2 (2aeb623e1d, 2025-05-12)"
   xmlns:inkscape="http://www.inkscape.org/namespaces/inkscape"
   xmlns:sodipodi="http://sodipodi.sourceforge.net/DTD/sodipodi-0.dtd"
   xmlns="http://www.w3.org/2000/svg"
   xmlns:svg="http://www.w3.org/2000/svg">
  <defs
     id="defs88" />
  <sodipodi:namedview
     id="namedview88"
     pagecolor="#ffffff"
     bordercolor="#000000"
     borderopacity="0.25"
     inkscape:showpageshadow="2"
     inkscape:pageopacity="0.0"
     inkscape:pagecheckerboard="0"
     inkscape:deskcolor="#d1d1d1"
     inkscape:zoom="0.79199219"
     inkscape:cx="511.36868"
     inkscape:cy="697.60789"
     inkscape:window-width="1848"
     inkscape:window-height="1016"
     inkscape:window-x="72"
     inkscape:window-y="27"
     inkscape:window-maximized="1"
     inkscape:current-layer="g88" />
  <path
     transform="translate(0,0)"
     fill="rgb(1,1,1)"
     d="M 1079.35 182.726 C 1066.29 183.049 1054.09 181.147 1043.46 172.823 C 1034.89 166.111 1030.01 156.325 1028.69 145.609 C 1027.1 132.685 1030.89 120.537 1039.18 110.548 C 1049.99 97.5134 1064.76 92.0667 1081.09 90.3803 C 1084.15 90.2697 1087.22 90.4557 1090.27 90.6549 C 1102.95 91.4821 1116.41 96.5273 1124.75 106.46 C 1131.36 114.341 1134.26 125.015 1133.11 135.189 C 1130.99 153.901 1117.2 165.856 1103.47 176.819 C 1102.36 184.256 1105.28 196.309 1101.57 202.688 C 1100.77 204.059 1099.95 203.813 1098.54 204.109 C 1094.52 202.722 1092.31 199.16 1089.71 195.964 C 1085.89 191.706 1082.28 187.66 1079.35 182.726 z M 1077.35 99.2175 C 1063.84 101.977 1051.42 107.292 1043.54 119.274 C 1037.89 127.861 1036.21 139.046 1038.71 148.989 C 1040.79 157.506 1046.35 164.76 1054.03 168.989 C 1062.9 173.936 1072.53 174.327 1082.4 173.807 C 1085.68 177.411 1088.58 180.905 1091.29 184.971 L 1092.53 186.036 C 1093.51 181.041 1093.5 175.976 1094.18 170.941 C 1107.32 163.242 1120.07 153.539 1123.96 137.892 C 1125.87 130.21 1124.82 122.148 1120.7 115.356 C 1115.62 106.975 1106.78 102.146 1097.39 100.143 C 1090.62 98.6979 1084.2 98.883 1077.35 99.2175 z"
     id="path2" />
  <path
     transform="translate(0,0)"
     fill="rgb(1,1,1)"
     d="M 1228.67 314.681 C 1227.15 314.404 1225.22 314.025 1223.89 313.224 C 1221.49 311.775 1221.41 310.438 1221.01 307.96 C 1225.38 295.679 1231.69 283.633 1237.18 271.794 L 1269.85 202.334 C 1281.8 176.857 1293.45 151.283 1305.68 125.929 C 1310.63 115.669 1315.07 103.337 1322.17 94.5104 C 1322.5 94.5605 1322.83 94.5908 1323.15 94.6607 C 1326.13 95.3027 1327.98 96.3608 1329.53 98.969 C 1329.42 101.543 1328.81 103.13 1327.78 105.501 C 1310.35 145.663 1289.86 184.876 1271.15 224.487 C 1256.99 254.438 1244.67 285.649 1228.67 314.681 z"
     id="path3" />
  <path
     transform="translate(0,0)"
     fill="rgb(254,254,254)"
     d="M 1082.4 173.807 C 1072.53 174.327 1062.9 173.936 1054.03 168.989 C 1046.35 164.76 1040.79 157.506 1038.71 148.989 C 1036.21 139.046 1037.89 127.861 1043.54 119.274 C 1051.42 107.292 1063.84 101.977 1077.35 99.2175 C 1084.2 98.883 1090.62 98.6979 1097.39 100.143 C 1106.78 102.146 1115.62 106.975 1120.7 115.356 C 1124.82 122.148 1125.87 130.21 1123.96 137.892 C 1120.07 153.539 1107.32 163.242 1094.18 170.941 C 1093.5 175.976 1093.51 181.041 1092.53 186.036 L 1091.29 184.971 C 1088.58 180.905 1085.68 177.411 1082.4 173.807 z M 1081.8 117.114 C 1073.64 119.739 1066.23 122.632 1062.27 130.955 C 1060.29 135.123 1059.97 140.069 1061.82 144.348 C 1063.71 148.752 1068.16 152.418 1072.67 153.912 C 1076.45 155.161 1081.03 155.239 1084.98 155.59 C 1093.53 152.005 1100.46 149.059 1104.12 139.761 C 1105.8 135.501 1106.23 130.456 1104.29 126.206 C 1102.56 122.423 1099.32 120.08 1095.45 118.786 C 1090.9 117.263 1086.58 116.594 1081.8 117.114 z"
     id="path4" />
  <path
     transform="translate(0,0)"
     fill="rgb(1,1,1)"
     d="M 1084.98 155.59 C 1081.03 155.239 1076.45 155.161 1072.67 153.912 C 1068.16 152.418 1063.71 148.752 1061.82 144.348 C 1059.97 140.069 1060.29 135.123 1062.27 130.955 C 1066.23 122.632 1073.64 119.739 1081.8 117.114 C 1086.58 116.594 1090.9 117.263 1095.45 118.786 C 1099.32 120.08 1102.56 122.423 1104.29 126.206 C 1106.23 130.456 1105.8 135.501 1104.12 139.761 C 1100.46 149.059 1093.53 152.005 1084.98 155.59 z"
     id="path5" />
  <path
     transform="translate(0,0)"
     fill="rgb(1,1,1)"
     d="M 1379 285.55 C 1371.78 293.23 1364.53 301.001 1357.9 309.21 C 1351.39 317.273 1345.17 327.058 1337.51 334.006 C 1335.17 336.13 1333.52 337.241 1330.34 337.061 L 1329.21 334.952 C 1328.8 319.55 1341.93 295.739 1346.03 279.714 C 1352.91 252.805 1355.38 199.512 1371.9 178.207 C 1377.82 170.572 1386.26 168.55 1395.33 167.331 C 1409.1 168.324 1457.48 181.872 1471.16 186.987 C 1478.57 189.755 1488.91 194.816 1492.04 202.574 C 1498.91 219.597 1480.19 267.459 1473.54 284.928 C 1470.25 293.6 1465.44 300.683 1456.6 304.37 C 1438.52 311.9 1406.71 297.411 1389.42 290.092 L 1379 285.55 z M 1391.11 177.051 C 1382.2 180.827 1378.69 185.146 1375.05 194.128 C 1361.52 227.538 1362.08 271.115 1347.85 305.803 C 1354.82 297.788 1368.22 277.921 1378.57 276.674 C 1383.31 276.102 1411.97 288.79 1419.48 291.232 C 1429.63 294.154 1445.82 300.421 1455.52 294.111 C 1464.96 287.971 1482.27 231.137 1483.43 218.597 C 1483.84 214.222 1484.27 208.131 1481.44 204.451 C 1474.11 194.889 1410.51 178.132 1396.51 177.011 C 1394.71 176.867 1392.91 176.979 1391.11 177.051 z"
     id="path6" />
  <path
     transform="translate(0,0)"
     fill="rgb(1,1,1)"
     d="M 814.291 307.68 C 810.874 308.593 809.055 309.156 805.75 307.793 C 804.573 306.141 781.659 227.714 781.252 223.294 C 786.709 216.935 895.131 175.376 911.057 170.095 C 912.501 171.473 912.211 170.924 912.972 172.564 C 920.417 188.594 925.836 205.583 932.593 221.911 C 937.027 232.624 944.145 244.104 946.792 255.221 C 931.535 262.574 915.133 268.151 899.326 274.27 C 870.891 285.177 842.545 296.314 814.291 307.68 z M 899.391 182.945 C 881.116 190.825 862.438 197.869 843.913 205.139 C 827.557 211.559 811.196 218.496 794.376 223.59 C 798.413 224.341 802.455 225.069 806.5 225.775 C 823.808 227.778 840.817 231.763 858.155 233.708 C 864.731 226.064 898.791 189.784 900.737 183.577 L 899.391 182.945 z M 907.645 185.805 C 898.053 201.906 884.641 213.999 873.662 228.961 C 884.845 232.187 896.083 235.289 907.216 238.681 C 915.676 241.171 924.506 242.997 932.79 245.956 C 926.776 229.252 917.244 199.864 907.645 185.805 z M 792.062 231.439 C 798.044 251.425 802.534 272.639 809.87 292.115 C 816.515 285.023 822.306 277.163 828.246 269.481 C 836.044 260.113 843.789 250.701 851.481 241.245 C 831.762 237.557 811.678 235.617 792.062 231.439 z M 867.515 233.923 C 851.116 255.103 833.301 275.043 816.944 296.257 C 832.825 291.356 848.255 284.969 863.723 278.913 C 885.288 270.327 908.723 262.825 929.241 252.068 C 908.945 248.226 886.334 242.549 867.515 233.923 z"
     id="path7" />
  <path
     transform="translate(0,0)"
     fill="rgb(254,254,254)"
     d="M 1347.85 305.803 C 1362.08 271.115 1361.52 227.538 1375.05 194.128 C 1378.69 185.146 1382.2 180.827 1391.11 177.051 C 1392.91 176.979 1394.71 176.867 1396.51 177.011 C 1410.51 178.132 1474.11 194.889 1481.44 204.451 C 1484.27 208.131 1483.84 214.222 1483.43 218.597 C 1482.27 231.137 1464.96 287.971 1455.52 294.111 C 1445.82 300.421 1429.63 294.154 1419.48 291.232 C 1411.97 288.79 1383.31 276.102 1378.57 276.674 C 1368.22 277.921 1354.82 297.788 1347.85 305.803 z M 1436.14 199.773 C 1431.26 207.778 1430.67 219.414 1427.74 228.39 C 1419.31 227.039 1392.92 218.508 1386.51 220.896 L 1384.99 222.83 C 1385.28 224.794 1385.31 225.223 1386.97 226.516 C 1394.94 232.693 1414.73 234.812 1425.01 238.039 L 1417.31 266.59 C 1417.69 269.367 1417.95 269.746 1419.72 271.941 C 1421.25 272.202 1421.7 272.688 1423.06 271.649 C 1429.97 266.352 1430.95 248.64 1433.61 240.563 C 1442.56 242.941 1453.64 247.292 1462.82 244.973 L 1463.89 243.493 C 1459.32 235.738 1444.26 233.614 1436.2 231.054 C 1438.99 222.789 1444.39 211.713 1442.65 202.975 C 1440.89 200.703 1440.74 200.318 1437.78 199.9 C 1437.24 199.823 1436.69 199.815 1436.14 199.773 z"
     id="path8" />
  <path
     transform="translate(0,0)"
     fill="rgb(254,254,254)"
     d="M 794.376 223.59 C 811.196 218.496 827.557 211.559 843.913 205.139 C 862.438 197.869 881.116 190.825 899.391 182.945 L 900.737 183.577 C 898.791 189.784 864.731 226.064 858.155 233.708 C 840.817 231.763 823.808 227.778 806.5 225.775 C 802.455 225.069 798.413 224.341 794.376 223.59 z"
     id="path9" />
  <path
     transform="translate(0,0)"
     fill="rgb(254,254,254)"
     d="M 873.662 228.961 C 884.641 213.999 898.053 201.906 907.645 185.805 C 917.244 199.864 926.776 229.252 932.79 245.956 C 924.506 242.997 915.676 241.171 907.216 238.681 C 896.083 235.289 884.845 232.187 873.662 228.961 z"
     id="path10" />
  <path
     transform="translate(0,0)"
     fill="rgb(1,1,1)"
     d="M 1427.74 228.39 C 1430.67 219.414 1431.26 207.778 1436.14 199.773 C 1436.69 199.815 1437.24 199.823 1437.78 199.9 C 1440.74 200.318 1440.89 200.703 1442.65 202.975 C 1444.39 211.713 1438.99 222.789 1436.2 231.054 C 1444.26 233.614 1459.32 235.738 1463.89 243.493 L 1462.82 244.973 C 1453.64 247.292 1442.56 242.941 1433.61 240.563 C 1430.95 248.64 1429.97 266.352 1423.06 271.649 C 1421.7 272.688 1421.25 272.202 1419.72 271.941 C 1417.95 269.746 1417.69 269.367 1417.31 266.59 L 1425.01 238.039 C 1414.73 234.812 1394.94 232.693 1386.97 226.516 C 1385.31 225.223 1385.28 224.794 1384.99 222.83 L 1386.51 220.896 C 1392.92 218.508 1419.31 227.039 1427.74 228.39 z"
     id="path11" />
  <path
     transform="translate(0,0)"
     fill="rgb(254,254,254)"
     d="M 809.87 292.115 C 802.534 272.639 798.044 251.425 792.062 231.439 C 811.678 235.617 831.762 237.557 851.481 241.245 C 843.789 250.701 836.044 260.113 828.246 269.481 C 822.306 277.163 816.515 285.023 809.87 292.115 z"
     id="path12" />
  <path
     transform="translate(0,0)"
     fill="rgb(254,254,254)"
     d="M 816.944 296.257 C 833.301 275.043 851.116 255.103 867.515 233.923 C 886.334 242.549 908.945 248.226 929.241 252.068 C 908.723 262.825 885.288 270.327 863.723 278.913 C 848.255 284.969 832.825 291.356 816.944 296.257 z"
     id="path13" />
  <path
     transform="translate(0,0)"
     fill="rgb(1,1,1)"
     d="M 628.12 1015.05 C 626.381 1013.8 624.959 1013.03 624.029 1011.03 C 621.195 1004.94 633.26 984.667 636.031 978.527 C 709.277 816.275 759.706 676.059 744.912 494.882 C 740.651 442.702 730.965 388.313 712.636 339.124 C 704.918 318.413 694.569 295.166 679.576 278.777 C 676.962 275.92 674.086 272.896 670.999 270.562 C 665.443 266.363 652.69 262.715 650.196 255.954 C 650.94 252.96 651.462 252.448 653.6 250.173 C 669.02 251.987 683.587 266.523 692.736 278.152 C 712.726 303.559 724.5 336.25 733.293 367.114 C 758.195 457.431 764.693 551.831 752.402 644.708 C 738.359 756.727 698.746 859.81 654.333 962.666 C 648.905 975.236 637.473 1007.78 628.12 1015.05 z"
     id="path14" />
  <path
     transform="translate(0,0)"
     fill="rgb(1,1,1)"
     d="M 1087.95 414.961 C 1069.58 416.192 1047.94 413.222 1033.19 401.263 C 1023.92 393.744 1018.36 382.825 1017.1 371.011 C 1015.28 353.959 1021.83 336.857 1032.67 323.867 C 1044.69 309.349 1062 300.213 1080.77 298.475 C 1081.06 298.375 1081.34 298.226 1081.64 298.175 C 1094.52 296.037 1114.13 303.662 1124.8 310.538 C 1136.73 318.233 1145.03 329.547 1147.83 343.591 C 1150.79 358.466 1147.25 373.525 1138.65 385.887 C 1126.41 403.476 1108.33 411.144 1087.95 414.961 z M 1078.98 319.251 C 1073.81 320.367 1068.97 321.184 1066.06 326.053 C 1063.23 330.802 1063.8 336.906 1065.28 342 C 1066.88 347.503 1071.12 355.256 1076.35 358.123 C 1079.15 359.651 1082.38 359.239 1085.44 359.062 L 1085.85 359.719 C 1069.2 366.232 1060.36 369.635 1048.77 384.202 C 1048.72 388.399 1048.01 393.142 1050.23 396.852 C 1052.53 398.349 1053.61 398.991 1056.42 398.491 C 1063.56 397.217 1071.58 390.347 1078.92 387.733 C 1084.75 386.029 1090.53 384.382 1096.56 383.558 C 1105.54 382.331 1127.17 383.864 1132.63 375.368 C 1134.35 372.687 1134.15 368.755 1132.85 365.951 C 1130.32 360.522 1122.49 358.203 1117.21 356.854 C 1109.83 354.966 1102.49 355.485 1094.98 355.985 C 1098.55 350.225 1100.58 347.163 1098.88 340.127 C 1097.26 333.443 1093.18 324.252 1086.73 320.884 C 1084.44 319.686 1081.52 319.406 1078.98 319.251 z"
     id="path15" />
  <path
     transform="translate(0,0)"
     fill="rgb(1,1,1)"
     d="M 1595.2 413.83 C 1589.66 418 1580.56 428.675 1573.69 429.385 C 1569.15 423.523 1575.06 410.398 1574.89 403.067 C 1574.6 390.151 1571.05 376.672 1569.56 363.782 C 1568.72 356.548 1568.58 348.13 1573.58 342.262 C 1588 325.332 1619.66 319.704 1640.6 318.603 C 1642.25 318.346 1644.09 318.586 1645.76 318.671 C 1657.4 319.262 1665.1 321.901 1673 330.628 C 1672.49 346.709 1675.24 383.733 1671.88 396.364 C 1670.67 400.917 1668.22 404.916 1664.02 407.248 C 1650.19 414.916 1625.8 404.25 1611.98 399.771 C 1606.52 404.617 1600.93 409.305 1595.2 413.83 z M 1638.63 327.429 C 1623.22 329.11 1593.84 332.614 1583.52 345.707 C 1581.03 348.867 1579.95 352.686 1579.68 356.658 C 1579.06 365.911 1583.52 398.93 1584.98 409.725 C 1591.06 405.078 1597.18 400.488 1603.35 395.954 L 1610.88 389.144 C 1622.47 392.808 1646.75 404.564 1658.51 398.731 C 1659.97 398.006 1660.41 395.529 1660.76 394.019 C 1663.42 382.77 1664.15 343.504 1660.72 332.729 C 1656.03 328.334 1645.55 326.893 1639.22 327.314 C 1639.02 327.328 1638.83 327.391 1638.63 327.429 z"
     id="path16" />
  <path
     transform="translate(0,0)"
     fill="rgb(254,254,254)"
     d="M 1048.77 384.202 C 1060.36 369.635 1069.2 366.232 1085.85 359.719 L 1085.44 359.062 C 1082.38 359.239 1079.15 359.651 1076.35 358.123 C 1071.12 355.256 1066.88 347.503 1065.28 342 C 1063.8 336.906 1063.23 330.802 1066.06 326.053 C 1068.97 321.184 1073.81 320.367 1078.98 319.251 C 1081.52 319.406 1084.44 319.686 1086.73 320.884 C 1093.18 324.252 1097.26 333.443 1098.88 340.127 C 1100.58 347.163 1098.55 350.225 1094.98 355.985 C 1102.49 355.485 1109.83 354.966 1117.21 356.854 C 1122.49 358.203 1130.32 360.522 1132.85 365.951 C 1134.15 368.755 1134.35 372.687 1132.63 375.368 C 1127.17 383.864 1105.54 382.331 1096.56 383.558 C 1090.53 384.382 1084.75 386.029 1078.92 387.733 C 1071.58 390.347 1063.56 397.217 1056.42 398.491 C 1053.61 398.991 1052.53 398.349 1050.23 396.852 C 1048.01 393.142 1048.72 388.399 1048.77 384.202 z"
     id="path17" />
  <path
     transform="translate(0,0)"
     fill="rgb(254,254,254)"
     d="M 1584.98 409.725 C 1583.52 398.93 1579.06 365.911 1579.68 356.658 C 1579.95 352.686 1581.03 348.867 1583.52 345.707 C 1593.84 332.614 1623.22 329.11 1638.63 327.429 C 1638.83 327.391 1639.02 327.328 1639.22 327.314 C 1645.55 326.893 1656.03 328.334 1660.72 332.729 C 1664.15 343.504 1663.42 382.77 1660.76 394.019 C 1660.41 395.529 1659.97 398.006 1658.51 398.731 C 1646.75 404.564 1622.47 392.808 1610.88 389.144 L 1603.35 395.954 C 1597.18 400.488 1591.06 405.078 1584.98 409.725 z M 1621.79 347.792 C 1616.15 350.961 1609.4 354.722 1605.76 360.217 C 1606.34 364.8 1611.67 376.225 1615.37 378.835 C 1617.24 380.152 1620.53 380.182 1622.82 380.291 C 1626.82 380.004 1630.65 380.128 1634.06 377.799 C 1636.73 374.223 1638.19 370.916 1637.6 366.351 C 1636.66 359.018 1630.78 352.532 1624.53 348.909 C 1623.2 348.139 1623.06 348.162 1621.79 347.792 z"
     id="path18" />
  <path
     transform="translate(0,0)"
     fill="rgb(1,1,1)"
     d="M 919.573 483.512 C 916.285 483.91 915.133 484.435 912.128 482.891 C 909.212 477.208 915.897 359.938 917.56 343.519 C 917.979 339.387 918.942 335.439 920.031 331.443 C 923.172 331.613 925.789 331.783 928.254 333.935 C 930.878 340.093 923.238 470.568 919.573 483.512 z"
     id="path19" />
  <path
     transform="translate(0,0)"
     fill="rgb(1,1,1)"
     d="M 1622.82 380.291 C 1620.53 380.182 1617.24 380.152 1615.37 378.835 C 1611.67 376.225 1606.34 364.8 1605.76 360.217 C 1609.4 354.722 1616.15 350.961 1621.79 347.792 C 1623.06 348.162 1623.2 348.139 1624.53 348.909 C 1630.78 352.532 1636.66 359.018 1637.6 366.351 C 1638.19 370.916 1636.73 374.223 1634.06 377.799 C 1630.65 380.128 1626.82 380.004 1622.82 380.291 z"
     id="path20" />
  <path
     transform="translate(0,0)"
     fill="rgb(1,1,1)"
     d="M 601.592 920.877 C 599.75 921.046 597.853 921.012 596.002 921.065 C 594.224 919.987 593.096 919.582 592.708 917.321 C 591.858 912.378 602.912 874.884 604.641 867.989 C 633.377 753.365 672.776 579.438 639.705 464.92 C 630.049 431.485 612.492 401.835 581.245 384.68 C 572.378 379.811 562.602 376.938 553.761 372.08 C 552.481 369.251 553.535 366.394 554.144 363.491 C 561.463 363.63 568.078 366.221 574.702 369.132 C 607.41 383.504 632.157 410.798 644.757 444.114 C 685.59 552.078 650.446 720.696 625.184 830.564 C 620.793 849.217 616.221 867.827 611.47 886.391 C 608.588 897.761 606.368 910.157 601.592 920.877 z"
     id="path21" />
  <path
     transform="translate(0,0)"
     fill="rgb(1,1,1)"
     d="M 831.533 442.329 C 828.849 442.03 827.065 442.426 825.495 439.88 C 820.835 432.321 826.072 390.655 829.349 381.3 C 832.563 381.936 834.576 382.383 836.746 384.855 C 838.827 397.744 836.062 430.103 831.533 442.329 z"
     id="path22" />
  <path
     transform="translate(0,0)"
     fill="rgb(1,1,1)"
     d="M 1475.68 537.685 C 1441.11 541.759 1409.84 516.92 1405.97 482.33 C 1402.11 447.739 1427.14 416.615 1461.76 412.965 C 1496.07 409.347 1526.87 434.114 1530.7 468.406 C 1534.52 502.698 1509.95 533.647 1475.68 537.685 z M 1463.92 421.289 C 1447.69 424.736 1431.67 433.298 1422.46 447.516 C 1415.69 457.963 1410.99 474.134 1414.17 486.579 C 1414.66 488.486 1415.27 490.188 1416.79 491.489 C 1417.09 491.134 1417.4 490.775 1417.71 490.424 C 1425.82 481.351 1447.73 478.273 1447.53 464.239 C 1447.44 458.035 1443.42 446.641 1439.19 442.239 C 1438.1 441.104 1437.82 439.919 1437.44 438.442 C 1438.25 435.397 1439.2 433.782 1441.97 432.137 C 1447.45 428.893 1455.22 427.356 1461.38 429.289 C 1470.34 432.099 1470.63 439.83 1477.3 444.851 C 1477.09 446.6 1477.49 446.57 1476.29 447.493 C 1472.24 450.616 1454.6 450.851 1453.68 454.685 C 1451.17 465.096 1455.48 471.346 1446.98 480.434 L 1445.86 481.208 C 1439.39 485.591 1422.73 491.575 1421.67 499.675 C 1421.07 504.202 1423.75 508.279 1426.69 511.44 C 1435.83 521.263 1451.69 528.623 1465.06 528.766 C 1473.96 528.861 1482.7 526.966 1491.05 523.987 C 1488.2 518.567 1485.67 514.672 1487.58 508.366 C 1488.88 504.041 1489.52 501.883 1487.35 497.643 C 1485.05 493.164 1480.28 489.476 1477.07 485.572 C 1476.95 481.647 1476.06 476.175 1477.96 472.679 L 1479.05 471.899 C 1485.82 466.983 1491.18 458.882 1499.58 457.035 C 1500.08 457.162 1500.57 457.293 1501.07 457.414 C 1502.53 457.769 1503.9 458.012 1505.38 458.193 C 1509.41 455.481 1511.59 451.01 1514.81 447.465 C 1506.23 434.442 1496.37 425.919 1480.67 422.618 C 1475.3 421.489 1469.41 421.236 1463.92 421.289 z M 1454.04 435.034 C 1450.34 436.903 1447.07 438.669 1445.82 442.891 C 1445.24 444.866 1445.56 444.678 1446.41 446.357 C 1449.87 447.285 1452.36 445.658 1455.55 444.195 C 1458.89 444.476 1462.3 445.279 1465.3 443.452 L 1466.33 441.431 C 1465.47 439.017 1463.57 437.76 1461.37 436.617 C 1459.03 435.405 1456.63 435.12 1454.04 435.034 z M 1516.79 453.576 C 1515.92 457.627 1515.46 461.612 1512.89 464.976 C 1507.16 468.107 1500.88 463.107 1495.34 468.945 C 1493.33 471.065 1492.71 474.834 1490.67 477.036 C 1488.48 479.405 1486.18 478.089 1484.98 481.794 C 1487.49 493.081 1504.16 496.705 1497.79 511.049 C 1496.28 513.55 1495.46 514.274 1495.6 517.252 C 1496.91 518.033 1497.14 518.61 1498.75 518.181 C 1506.99 515.987 1514.58 504.652 1518.1 497.382 C 1523.97 485.244 1524.64 472.641 1520.24 459.971 C 1519.41 457.585 1518.3 455.602 1516.79 453.576 z"
     id="path23" />
  <path
     transform="translate(0,0)"
     fill="rgb(254,254,254)"
     d="M 1446.98 480.434 C 1455.48 471.346 1451.17 465.096 1453.68 454.685 C 1454.6 450.851 1472.24 450.616 1476.29 447.493 C 1477.49 446.57 1477.09 446.6 1477.3 444.851 C 1470.63 439.83 1470.34 432.099 1461.38 429.289 C 1455.22 427.356 1447.45 428.893 1441.97 432.137 C 1439.2 433.782 1438.25 435.397 1437.44 438.442 C 1437.82 439.919 1438.1 441.104 1439.19 442.239 C 1443.42 446.641 1447.44 458.035 1447.53 464.239 C 1447.73 478.273 1425.82 481.351 1417.71 490.424 C 1417.4 490.775 1417.09 491.134 1416.79 491.489 C 1415.27 490.188 1414.66 488.486 1414.17 486.579 C 1410.99 474.134 1415.69 457.963 1422.46 447.516 C 1431.67 433.298 1447.69 424.736 1463.92 421.289 C 1469.41 421.236 1475.3 421.489 1480.67 422.618 C 1496.37 425.919 1506.23 434.442 1514.81 447.465 C 1511.59 451.01 1509.41 455.481 1505.38 458.193 C 1503.9 458.012 1502.53 457.769 1501.07 457.414 C 1500.57 457.293 1500.08 457.162 1499.58 457.035 C 1491.18 458.882 1485.82 466.983 1479.05 471.899 L 1477.96 472.679 C 1476.06 476.175 1476.95 481.647 1477.07 485.572 C 1480.28 489.476 1485.05 493.164 1487.35 497.643 C 1489.52 501.883 1488.88 504.041 1487.58 508.366 C 1485.67 514.672 1488.2 518.567 1491.05 523.987 C 1482.7 526.966 1473.96 528.861 1465.06 528.766 C 1451.69 528.623 1435.83 521.263 1426.69 511.44 C 1423.75 508.279 1421.07 504.202 1421.67 499.675 C 1422.73 491.575 1439.39 485.591 1445.86 481.208 L 1446.98 480.434 z"
     id="path24" />
  <path
     transform="translate(0,0)"
     fill="rgb(254,254,254)"
     d="M 1455.55 444.195 C 1452.36 445.658 1449.87 447.285 1446.41 446.357 C 1445.56 444.678 1445.24 444.866 1445.82 442.891 C 1447.07 438.669 1450.34 436.903 1454.04 435.034 C 1456.63 435.12 1459.03 435.405 1461.37 436.617 C 1463.57 437.76 1465.47 439.017 1466.33 441.431 L 1465.3 443.452 C 1462.3 445.279 1458.89 444.476 1455.55 444.195 z"
     id="path25" />
  <path
     transform="translate(0,0)"
     fill="rgb(254,254,254)"
     d="M 1497.79 511.049 C 1504.16 496.705 1487.49 493.081 1484.98 481.794 C 1486.18 478.089 1488.48 479.405 1490.67 477.036 C 1492.71 474.834 1493.33 471.065 1495.34 468.945 C 1500.88 463.107 1507.16 468.107 1512.89 464.976 C 1515.46 461.612 1515.92 457.627 1516.79 453.576 C 1518.3 455.602 1519.41 457.585 1520.24 459.971 C 1524.64 472.641 1523.97 485.244 1518.1 497.382 C 1514.58 504.652 1506.99 515.987 1498.75 518.181 C 1497.14 518.61 1496.91 518.033 1495.6 517.252 C 1495.46 514.274 1496.28 513.55 1497.79 511.049 z"
     id="path26" />
  <path
     transform="translate(0,0)"
     fill="rgb(1,1,1)"
     d="M 1243.66 518.509 C 1242.8 518.348 1241.77 518.192 1240.98 517.845 C 1238.47 516.748 1237.96 516.065 1236.96 513.722 C 1237.47 504.462 1253.88 470.797 1260.41 463.596 C 1261.45 463.864 1263.57 464.23 1264.55 464.835 C 1265.67 465.517 1266.78 466.445 1266.91 467.815 C 1267.42 473.248 1247.68 511.989 1243.66 518.509 z"
     id="path27" />
  <path
     transform="translate(0,0)"
     fill="rgb(1,1,1)"
     d="M 1602.3 603.62 C 1600.18 603.309 1599.33 602.885 1597.49 601.884 C 1596.28 599.549 1596.25 599.519 1596.77 596.941 C 1597.59 595.786 1598.25 594.795 1599.37 593.908 C 1606.36 588.381 1615.03 583.851 1622.64 579.161 L 1665.08 552.861 C 1708.43 525.748 1751.63 498.382 1794.66 470.767 C 1795.9 471.356 1797.76 472.206 1798.72 473.233 C 1800.69 475.342 1800.84 475.963 1800.63 478.629 C 1793.32 486.377 1780.6 492.779 1771.49 498.48 L 1710.93 535.987 L 1640.21 580.734 C 1627.79 588.511 1615.39 597.083 1602.3 603.62 z"
     id="path28" />
  <path
     transform="translate(0,0)"
     fill="rgb(1,1,1)"
     d="M 829.776 550.622 L 825.862 550.35 C 823.553 548.741 822.724 547.954 821.997 545.171 C 820.48 539.364 822.162 528.536 825.428 523.52 C 828.006 523.552 829.701 523.786 832.101 524.739 C 833.941 526.77 834.56 528.307 834.95 530.964 C 835.888 537.356 833.423 545.425 829.776 550.622 z"
     id="path29" />
  <path
     transform="translate(0,0)"
     fill="rgb(1,1,1)"
     d="M 1136.9 552.528 L 1132.46 551.87 C 1131.21 550.893 1130.37 550.604 1129.85 549.002 C 1127.91 542.937 1133.23 533.663 1136.26 528.592 C 1137.2 528.7 1139.09 528.77 1140.01 529.202 C 1141.43 529.867 1142.5 530.652 1143.05 532.133 C 1145.3 538.157 1139.65 547.087 1136.9 552.528 z"
     id="path30" />
  <path
     transform="translate(0,0)"
     fill="rgb(1,1,1)"
     d="M 1036.81 599.659 C 1035.91 599.45 1034.03 599.16 1033.2 598.608 C 1031.28 597.342 1030.44 596.031 1029.94 593.837 C 1028.01 585.36 1032.29 562.124 1036.77 554.715 L 1040.99 556.022 C 1042.33 557.197 1043.01 557.975 1043.63 559.697 C 1046.72 568.359 1040.9 591.942 1036.81 599.659 z"
     id="path31" />
  <path
     transform="translate(0,0)"
     fill="rgb(1,1,1)"
     d="M 1596.96 745.495 C 1632.03 719.575 1669.3 667.192 1686.34 627.405 C 1693.16 611.481 1695.82 594.381 1705.45 579.728 C 1717.22 582.269 1726.67 597.744 1736.36 604.856 C 1753.46 617.411 1816.24 645.415 1823.6 654.749 C 1824.61 656.016 1826.53 659.412 1826.09 661.062 C 1825.12 664.729 1820.16 669.248 1817.58 672.153 C 1798.94 693.117 1778.52 710.86 1756.04 727.638 C 1749.28 719.626 1742.27 712.465 1734.11 705.863 C 1723.52 710.526 1712.9 715.123 1702.26 719.654 C 1692.28 723.854 1681.34 726.257 1672.16 732.174 C 1660.23 739.869 1650.65 751.37 1637.59 757.34 C 1623.68 753.846 1609.89 752.09 1596.96 745.495 z M 1707.49 588.354 C 1699.2 602.697 1691.97 628.46 1685.04 645.393 C 1690.97 655.145 1697.68 664.907 1701.67 675.648 C 1693.11 668.027 1687.9 659.896 1682.55 649.832 C 1680.41 653.303 1677.11 657.43 1676.69 661.528 C 1680.7 667.416 1687.17 674.757 1689.43 681.408 L 1688.04 683.041 C 1685.92 682.923 1685.61 682.863 1684.08 681.232 C 1679.66 676.529 1676.58 669.388 1674.38 663.38 C 1670.9 668.567 1667.24 673.711 1663.96 679.03 C 1667.18 685.403 1670.63 691.176 1672.16 698.228 L 1671.53 699.14 C 1666.74 695.054 1663.71 689.469 1660.45 684.156 C 1658.61 687.06 1655.21 691.069 1654.12 694.199 C 1656.37 698.762 1660.64 706.396 1659.05 711.444 L 1657.08 711.734 C 1652.99 707.96 1653.18 701.916 1652.65 696.629 C 1648.49 698.987 1644.89 705.318 1641.98 709.161 C 1641.23 713.823 1648.71 716.645 1645.77 721.312 L 1642.97 721.499 C 1641.09 719.236 1639.55 716.823 1637.96 714.353 L 1629.59 722.121 C 1625.66 726.752 1621.51 731.305 1617.77 736.081 C 1637.64 730.288 1657.84 727 1677.71 721.608 C 1700.58 715.403 1723.97 704.968 1744.25 692.831 C 1766.13 679.733 1784.8 661.336 1807.36 649.556 C 1781.18 637.909 1753.54 623.97 1730.1 607.488 C 1722.1 601.867 1715.85 593.33 1707.49 588.354 z M 1811.81 659.133 C 1801.24 662.231 1796.72 663.476 1790.3 672.856 C 1788.01 674.21 1786.06 673.987 1783.51 673.919 C 1781.74 674.948 1781.34 674.869 1780.36 676.772 L 1783.7 680.121 L 1783.41 681.681 C 1781.03 682.007 1779.32 681.489 1777.02 680.916 L 1774.29 682.131 C 1774.01 684.117 1774.24 684.813 1774.8 686.688 C 1773.53 689.324 1772.33 690 1769.94 691.507 L 1767.86 691.306 L 1765.32 688.129 L 1764.11 688.631 L 1765.36 692.429 C 1764.18 694.059 1764.34 694.155 1762.34 695.023 C 1762.18 694.735 1762.02 694.443 1761.85 694.161 C 1761.04 692.827 1761.37 693.305 1760.02 692.163 C 1757.4 693.759 1755.09 695.421 1753.46 698.065 L 1756.22 702.481 C 1758.32 706.335 1760.5 710.166 1762.53 714.056 C 1773.35 708.326 1813.69 676.099 1817.88 665.205 C 1818.41 663.823 1818.34 663.784 1818.46 662.529 C 1816.68 660.313 1814.41 659.91 1811.81 659.133 z M 1658.67 732.366 C 1641.37 734.81 1624.95 740.294 1608.16 744.89 L 1621.76 747.81 C 1627.57 748.604 1633.29 749.267 1639.14 749.562 C 1646.84 745.024 1654.99 739.565 1661.38 733.297 L 1661.54 732.097 L 1658.67 732.366 z"
     id="path32" />
  <path
     transform="translate(0,0)"
     fill="rgb(254,254,254)"
     d="M 1685.04 645.393 C 1691.97 628.46 1699.2 602.697 1707.49 588.354 C 1715.85 593.33 1722.1 601.867 1730.1 607.488 C 1753.54 623.97 1781.18 637.909 1807.36 649.556 C 1784.8 661.336 1766.13 679.733 1744.25 692.831 C 1723.97 704.968 1700.58 715.403 1677.71 721.608 C 1657.84 727 1637.64 730.288 1617.77 736.081 C 1621.51 731.305 1625.66 726.752 1629.59 722.121 L 1637.96 714.353 C 1639.55 716.823 1641.09 719.236 1642.97 721.499 L 1645.77 721.312 C 1648.71 716.645 1641.23 713.823 1641.98 709.161 C 1644.89 705.318 1648.49 698.987 1652.65 696.629 C 1653.18 701.916 1652.99 707.96 1657.08 711.734 L 1659.05 711.444 C 1660.64 706.396 1656.37 698.762 1654.12 694.199 C 1655.21 691.069 1658.61 687.06 1660.45 684.156 C 1663.71 689.469 1666.74 695.054 1671.53 699.14 L 1672.16 698.228 C 1670.63 691.176 1667.18 685.403 1663.96 679.03 C 1667.24 673.711 1670.9 668.567 1674.38 663.38 C 1676.58 669.388 1679.66 676.529 1684.08 681.232 C 1685.61 682.863 1685.92 682.923 1688.04 683.041 L 1689.43 681.408 C 1687.17 674.757 1680.7 667.416 1676.69 661.528 C 1677.11 657.43 1680.41 653.303 1682.55 649.832 C 1687.9 659.896 1693.11 668.027 1701.67 675.648 C 1697.68 664.907 1690.97 655.145 1685.04 645.393 z M 1709.01 603.73 C 1703.96 612.565 1701.77 626.332 1704.15 636.362 C 1704.46 637.691 1704.92 638.403 1705.89 639.342 C 1708.05 637.904 1708.72 636.153 1709.29 633.665 C 1710.15 629.87 1710.05 625.669 1710.48 621.79 L 1715.98 627.655 C 1718.89 631.379 1721.55 635.686 1725.88 637.812 L 1727.53 637.321 C 1727.68 633.452 1714.25 608.77 1711.46 605.747 C 1710.74 604.972 1709.91 604.295 1709.01 603.73 z"
     id="path33" />
  <path
     transform="translate(0,0)"
     fill="rgb(1,1,1)"
     d="M 843.021 645.732 C 844.254 643.18 845.577 640.445 847.333 638.206 C 866.42 613.868 916.011 596.199 945.678 591.312 C 946.141 591.259 946.603 591.197 947.067 591.153 C 952.833 590.601 956.588 592.366 960.909 596.139 C 980.343 613.112 995.015 661.236 996.653 686.225 C 996.975 691.137 997.322 700.521 993.593 704.239 C 985.631 712.179 942.833 711.787 917.821 740.189 C 915.316 758.312 919.683 775.412 918.619 793.205 C 918.368 797.401 918.187 802.562 914.852 805.517 L 912.749 805.2 C 910.131 802.648 909.217 800.264 907.948 796.873 C 900.477 775.458 890.597 754.784 880.6 734.443 C 869.519 711.894 843.715 670.007 843.021 645.732 z M 946.973 601.247 C 913.822 608.535 876.841 621.426 853.287 647.262 C 861.457 678.33 885.725 720.3 901.196 749.553 L 904.494 758.938 C 904.567 745.615 905.109 736.059 915.162 726.041 C 933.34 707.927 960.626 701.228 984.845 696.302 C 985.836 671.675 973.249 624.409 956.601 606.661 C 954.371 604.283 951.584 601.445 948.154 601.217 C 947.761 601.19 947.367 601.237 946.973 601.247 z"
     id="path34" />
  <path
     transform="translate(0,0)"
     fill="rgb(1,1,1)"
     d="M 1242.66 681.955 C 1230.06 680.949 1218.39 679.129 1208.29 670.766 C 1200.76 664.652 1196.07 655.706 1195.33 646.03 C 1194.46 634.196 1199.41 622.701 1207.13 613.924 C 1220.99 598.185 1240.21 592.702 1260.46 591.537 C 1271.87 592.299 1283.97 595.177 1292.97 602.54 C 1300.49 608.693 1304.94 617.512 1305.7 627.176 C 1306.63 639.04 1301.54 650.855 1293.86 659.704 C 1280.62 674.964 1262.17 680.347 1242.66 681.955 z M 1249.44 600.188 C 1233.36 603.547 1219.32 609.856 1210.04 624.159 C 1205.35 631.385 1203.04 639.903 1204.99 648.439 C 1206.88 656.732 1212.3 663.663 1219.64 667.893 C 1229.69 673.695 1240.54 673.548 1251.7 672.82 C 1267.83 669.181 1282.17 663.093 1291.44 648.385 C 1296.07 641.026 1298.42 632.212 1296.31 623.62 C 1294.4 615.823 1289.08 609.492 1282.18 605.537 C 1272.43 599.948 1260.39 598.937 1249.44 600.188 z"
     id="path35" />
  <path
     transform="translate(0,0)"
     fill="rgb(254,254,254)"
     d="M 1251.7 672.82 C 1240.54 673.548 1229.69 673.695 1219.64 667.893 C 1212.3 663.663 1206.88 656.732 1204.99 648.439 C 1203.04 639.903 1205.35 631.385 1210.04 624.159 C 1219.32 609.856 1233.36 603.547 1249.44 600.188 C 1260.39 598.937 1272.43 599.948 1282.18 605.537 C 1289.08 609.492 1294.4 615.823 1296.31 623.62 C 1298.42 632.212 1296.07 641.026 1291.44 648.385 C 1282.17 663.093 1267.83 669.181 1251.7 672.82 z M 1244.07 616.91 C 1242.14 619.527 1240.55 621.637 1240.81 625.051 C 1241.16 629.764 1245.66 634.429 1248.5 637.973 C 1248.16 638.205 1247.83 638.442 1247.48 638.67 C 1241.8 642.46 1235.09 643.53 1229.71 647.466 C 1231.33 649.044 1238.06 648.945 1240.5 648.813 C 1241.97 648.734 1242.11 648.67 1243.35 648.421 C 1250.34 646.315 1257.5 644.418 1263.02 639.381 L 1263.6 637.539 C 1260.61 633.043 1254.17 633.339 1252.38 628.446 C 1253.4 624.983 1255.49 621.245 1253.98 617.947 C 1250.88 616.156 1247.51 616.752 1244.07 616.91 z"
     id="path36" />
  <path
     transform="translate(0,0)"
     fill="rgb(254,254,254)"
     d="M 853.287 647.262 C 876.841 621.426 913.822 608.535 946.973 601.247 C 947.367 601.237 947.761 601.19 948.154 601.217 C 951.584 601.445 954.371 604.283 956.601 606.661 C 973.249 624.409 985.836 671.675 984.845 696.302 C 960.626 701.228 933.34 707.927 915.162 726.041 C 905.109 736.059 904.567 745.615 904.494 758.938 L 901.196 749.553 C 885.725 720.3 861.457 678.33 853.287 647.262 z M 911.784 624.433 C 910.546 626.565 909.348 627.577 910.017 630.133 C 912.017 637.772 917.235 644.821 919.552 652.711 C 910.974 656.962 885.578 667.75 882.033 676.682 C 882.599 679.48 882.449 679.878 884.574 681.714 C 896.46 682.739 912.744 661.04 925.337 664.058 C 926.363 665.389 927.333 666.621 928.165 668.085 C 930.794 674.11 933.208 680.45 936.309 686.238 C 939.301 684.841 942.332 683.519 945.19 681.86 C 941.785 673.813 938.228 665.924 934.322 658.108 C 941.622 655.398 949.074 653.819 953.577 647.031 L 953.566 644.603 C 950.695 642.559 947.84 642.008 944.27 642.519 C 939.518 643.201 934.397 645.659 929.894 647.352 C 925.969 640.884 920.902 626.44 913.195 624.661 C 912.73 624.554 912.254 624.509 911.784 624.433 z"
     id="path37" />
  <path
     transform="translate(0,0)"
     fill="rgb(1,1,1)"
     d="M 1710.48 621.79 C 1710.05 625.669 1710.15 629.87 1709.29 633.665 C 1708.72 636.153 1708.05 637.904 1705.89 639.342 C 1704.92 638.403 1704.46 637.691 1704.15 636.362 C 1701.77 626.332 1703.96 612.565 1709.01 603.73 C 1709.91 604.295 1710.74 604.972 1711.46 605.747 C 1714.25 608.77 1727.68 633.452 1727.53 637.321 L 1725.88 637.812 C 1721.55 635.686 1718.89 631.379 1715.98 627.655 L 1710.48 621.79 z"
     id="path38" />
  <path
     transform="translate(0,0)"
     fill="rgb(1,1,1)"
     d="M 1248.5 637.973 C 1245.66 634.429 1241.16 629.764 1240.81 625.051 C 1240.55 621.637 1242.14 619.527 1244.07 616.91 C 1247.51 616.752 1250.88 616.156 1253.98 617.947 C 1255.49 621.245 1253.4 624.983 1252.38 628.446 C 1254.17 633.339 1260.61 633.043 1263.6 637.539 L 1263.02 639.381 C 1257.5 644.418 1250.34 646.315 1243.35 648.421 C 1242.11 648.67 1241.97 648.734 1240.5 648.813 C 1238.06 648.945 1231.33 649.044 1229.71 647.466 C 1235.09 643.53 1241.8 642.46 1247.48 638.67 C 1247.83 638.442 1248.16 638.205 1248.5 637.973 z"
     id="path39" />
  <path
     transform="translate(0,0)"
     fill="rgb(1,1,1)"
     d="M 919.552 652.711 C 917.235 644.821 912.017 637.772 910.017 630.133 C 909.348 627.577 910.546 626.565 911.784 624.433 C 912.254 624.509 912.73 624.554 913.195 624.661 C 920.902 626.44 925.969 640.884 929.894 647.352 C 934.397 645.659 939.518 643.201 944.27 642.519 C 947.84 642.008 950.695 642.559 953.566 644.603 L 953.577 647.031 C 949.074 653.819 941.622 655.398 934.322 658.108 C 938.228 665.924 941.785 673.813 945.19 681.86 C 942.332 683.519 939.301 684.841 936.309 686.238 C 933.208 680.45 930.794 674.11 928.165 668.085 C 927.333 666.621 926.363 665.389 925.337 664.058 C 912.744 661.04 896.46 682.739 884.574 681.714 C 882.449 679.878 882.599 679.48 882.033 676.682 C 885.578 667.75 910.974 656.962 919.552 652.711 z"
     id="path40" />
  <path
     transform="translate(0,0)"
     fill="rgb(254,254,254)"
     d="M 1756.22 702.481 L 1753.46 698.065 C 1755.09 695.421 1757.4 693.759 1760.02 692.163 C 1761.37 693.305 1761.04 692.827 1761.85 694.161 C 1762.02 694.443 1762.18 694.735 1762.34 695.023 C 1764.34 694.155 1764.18 694.059 1765.36 692.429 L 1764.11 688.631 L 1765.32 688.129 L 1767.86 691.306 L 1769.94 691.507 C 1772.33 690 1773.53 689.324 1774.8 686.688 C 1774.24 684.813 1774.01 684.117 1774.29 682.131 L 1777.02 680.916 C 1779.32 681.489 1781.03 682.007 1783.41 681.681 L 1783.7 680.121 L 1780.36 676.772 C 1781.34 674.869 1781.74 674.948 1783.51 673.919 C 1786.06 673.987 1788.01 674.21 1790.3 672.856 C 1796.72 663.476 1801.24 662.231 1811.81 659.133 C 1814.41 659.91 1816.68 660.313 1818.46 662.529 C 1818.34 663.784 1818.41 663.823 1817.88 665.205 C 1813.69 676.099 1773.35 708.326 1762.53 714.056 C 1760.5 710.166 1758.32 706.335 1756.22 702.481 z"
     id="path41" />
  <path
     transform="translate(0,0)"
     fill="rgb(1,1,1)"
     d="M 1435.55 710.552 L 1432.38 710.007 C 1431.07 708.28 1430.26 707.584 1430.71 705.251 C 1432.29 697.072 1472.98 666.474 1481.49 660.717 C 1481.84 660.793 1482.2 660.825 1482.54 660.944 C 1485.11 661.858 1485.38 662.12 1486.34 664.508 C 1483.84 674.465 1445.57 703.755 1435.55 710.552 z"
     id="path42" />
  <path
     transform="translate(0,0)"
     fill="rgb(1,1,1)"
     d="M 1856.88 717.848 C 1855.32 717.469 1853.85 716.562 1852.42 715.848 C 1850.91 713.422 1850.95 713.492 1851.44 710.675 C 1858.75 701.927 1877.17 697.136 1887.89 692.985 C 1890.29 693.225 1891.38 693.46 1893.3 694.948 L 1893.64 697.649 C 1889.38 706.965 1866.03 714.001 1856.88 717.848 z"
     id="path43" />
  <path
     transform="translate(0,0)"
     fill="rgb(254,254,254)"
     d="M 1608.16 744.89 C 1624.95 740.294 1641.37 734.81 1658.67 732.366 L 1661.54 732.097 L 1661.38 733.297 C 1654.99 739.565 1646.84 745.024 1639.14 749.562 C 1633.29 749.267 1627.57 748.604 1621.76 747.81 L 1608.16 744.89 z"
     id="path44" />
  <path
     transform="translate(0,0)"
     fill="rgb(1,1,1)"
     d="M 1505.61 873.375 C 1502.43 873.385 1499.51 873.192 1496.37 872.73 C 1494.56 870.97 1494.51 870.169 1493.99 867.72 C 1491.2 854.566 1490.66 806.027 1493.69 792.121 C 1494.28 789.437 1495.63 787.126 1497.07 784.822 C 1498.75 784.843 1500.41 784.846 1502.06 785.173 C 1504.84 785.723 1507.4 787.169 1508.64 789.854 C 1511.96 797.098 1509.13 866.035 1505.61 873.375 z"
     id="path45" />
  <path
     transform="translate(0,0)"
     fill="rgb(1,1,1)"
     d="M 1430.21 905.035 C 1427.48 904.499 1424.64 904.023 1421.97 903.229 C 1416.59 901.63 1412.74 897.466 1410.43 892.428 C 1409.39 890.14 1409.39 888.901 1410.16 886.578 C 1418.66 879.444 1433.87 889.49 1443.78 887.925 C 1450.4 886.881 1455.06 883.577 1458.79 878.088 C 1461.45 874.176 1463.48 869.554 1462.45 864.741 C 1459.17 849.368 1436.12 848.316 1425.2 840.536 C 1418.95 836.088 1414.11 829.485 1413.23 821.719 C 1412.33 813.79 1415.91 804.461 1421.18 798.584 C 1429.06 789.778 1440.39 788.095 1451.51 787.361 C 1455.13 787.728 1458.77 788.293 1462.13 789.768 C 1466.68 791.767 1470.01 795.799 1471.74 800.339 C 1471.58 802.127 1471.88 803.02 1470.59 804.413 C 1465.01 810.424 1455.12 803.034 1447.99 803.557 C 1442.44 803.965 1436.98 806.282 1433.19 810.419 C 1431.33 812.446 1429.57 815.204 1430.04 818.074 C 1431.74 828.376 1457.1 833.077 1467.41 842.605 C 1474.19 848.869 1478.95 856.735 1479.17 866.148 C 1479.4 876.065 1474.94 887.67 1467.75 894.563 C 1457.32 904.569 1443.77 905.079 1430.21 905.035 z"
     id="path46" />
  <path
     transform="translate(0,0)"
     fill="rgb(1,1,1)"
     d="M 1141.64 906.95 C 1135.39 906.868 1129.98 906.653 1124.49 903.315 C 1113.95 896.896 1108.67 884.598 1106.25 872.943 C 1102.08 852.816 1102.29 820.335 1114.42 802.751 C 1120 794.664 1127.56 789.9 1137.24 788.331 C 1143.08 788.719 1148.07 789.069 1153.16 792.216 C 1162.52 797.991 1167.27 807.936 1169.81 818.265 C 1175.05 839.532 1174.49 874.183 1162.29 893.214 C 1156.92 901.598 1151.12 904.727 1141.64 906.95 z M 1137.24 802.855 C 1130.01 806.752 1126.86 811.182 1124.38 819.034 C 1118.89 836.432 1118.96 867.27 1128.07 883.342 C 1130.92 888.375 1134.21 890.12 1139.52 892.034 C 1146.57 888.559 1149.06 885.137 1151.65 877.733 C 1157.32 861.487 1158.23 827.27 1150.16 811.845 C 1148.32 808.327 1145.51 804.47 1141.44 803.459 C 1140.01 803.102 1138.7 802.911 1137.24 802.855 z"
     id="path47" />
  <path
     transform="translate(0,0)"
     fill="rgb(1,1,1)"
     d="M 1237.16 832.839 C 1237.31 845.666 1240.17 894.89 1235.3 903.304 C 1233.25 905.06 1231.8 905.996 1228.97 905.824 C 1226.58 905.678 1224.33 904.576 1222.86 902.661 C 1219.44 898.188 1218.63 803.653 1220.71 795.934 C 1221.83 791.763 1224.45 790.039 1227.8 787.747 C 1228.39 787.932 1228.99 788.104 1229.57 788.303 C 1232.21 789.196 1233.68 790.16 1235.26 792.475 C 1241.4 801.457 1244.74 812.897 1249.12 822.829 C 1254.96 836.07 1261.38 849.086 1267.62 862.141 C 1268.61 845.623 1268.09 828.921 1268.49 812.366 C 1268.66 805.033 1267.29 795.179 1272.99 789.749 C 1275.86 788.81 1276.3 788.805 1279.24 789.493 C 1280.77 790.724 1281.99 791.665 1282.89 793.467 C 1285.6 798.883 1284.32 883.979 1283.75 894.426 C 1283.57 897.66 1283.48 901.482 1281.89 904.383 C 1280.45 907.027 1277.36 907.701 1274.69 908.594 C 1264.16 899.73 1247.98 849.089 1237.16 832.839 z"
     id="path48" />
  <path
     transform="translate(0,0)"
     fill="rgb(1,1,1)"
     d="M 1199.4 906.234 C 1196.1 906.128 1193.76 906.038 1190.79 904.527 C 1187.95 901.459 1187.92 898.886 1187.67 894.817 C 1186.43 874.042 1186.9 853.019 1186.94 832.213 C 1186.96 820.353 1185.93 807.07 1187.89 795.375 C 1188.39 792.379 1189.67 790.733 1191.64 788.494 C 1194.78 788.604 1197.92 788.783 1200.25 791.239 C 1202.65 793.759 1202.72 797.46 1202.93 800.736 C 1204.22 820.755 1203.14 841.495 1203.27 861.616 C 1203.35 873.156 1205.05 889.228 1203.31 900.228 C 1202.88 902.898 1201.11 904.267 1199.4 906.234 z"
     id="path49" />
  <path
     transform="translate(0,0)"
     fill="rgb(1,1,1)"
     d="M 1399.73 807.99 C 1399.8 824.455 1400.12 840.978 1399.79 857.437 C 1399.51 871.552 1398.1 888.593 1387.03 898.741 C 1380.86 904.396 1372.79 906.23 1364.6 905.776 C 1355.8 905.289 1347.55 902.494 1341.62 895.729 C 1327.95 880.153 1331.7 847.724 1331.68 828.607 C 1331.67 819.478 1330.74 809.989 1331.72 800.912 C 1332.36 795.065 1333.25 792.477 1337.74 788.803 C 1339.12 788.909 1340.48 789.074 1341.8 789.51 C 1344.44 790.383 1345.67 791.9 1346.73 794.421 C 1353.12 809.574 1342.39 862.227 1352.32 882.827 C 1353.85 886.002 1356.13 888.713 1359.58 889.824 C 1363.55 891.106 1368.57 890.161 1372.12 888.085 C 1393.37 875.651 1377.15 815.288 1384.2 793.806 C 1385.15 790.894 1386.29 789.353 1389 787.991 C 1391.1 788.33 1392.44 789.059 1393.95 790.527 C 1399.41 795.807 1399.24 800.939 1399.73 807.99 z"
     id="path50" />
  <path
     transform="translate(0,0)"
     fill="rgb(1,1,1)"
     d="M 1073.71 806.234 C 1065.71 805.616 1055.48 807.807 1048.06 804.575 C 1046.41 803.855 1044.89 802.439 1044.48 800.645 C 1043.56 796.597 1045.44 793.038 1047.68 789.831 C 1059.86 790.991 1075.35 787.857 1086.74 791.579 C 1091.48 802.675 1091.47 871.968 1088.35 884.782 C 1086.32 893.108 1082.01 902.099 1074.27 906.504 C 1068.81 909.612 1062.41 909.841 1056.43 908.196 C 1048.09 905.904 1043.99 900.352 1040.12 893.111 C 1038.8 889.578 1037.06 885.025 1036.94 881.246 C 1036.83 878.086 1037.63 874.208 1040.07 872.045 C 1042.08 870.266 1044.41 869.673 1047.02 869.693 C 1055.39 874.845 1051.44 887.536 1057.93 893.79 C 1058.94 894.772 1060.22 895.411 1061.63 895.387 C 1064.41 895.339 1067.11 893.938 1068.94 891.856 C 1072.62 887.653 1074.08 881.233 1074.69 875.835 C 1075.7 866.824 1074.66 857.179 1074.43 848.12 C 1074.08 834.159 1074.14 820.196 1073.71 806.234 z"
     id="path51" />
  <path
     transform="translate(0,0)"
     fill="rgb(254,254,254)"
     d="M 1139.52 892.034 C 1134.21 890.12 1130.92 888.375 1128.07 883.342 C 1118.96 867.27 1118.89 836.432 1124.38 819.034 C 1126.86 811.182 1130.01 806.752 1137.24 802.855 C 1138.7 802.911 1140.01 803.102 1141.44 803.459 C 1145.51 804.47 1148.32 808.327 1150.16 811.845 C 1158.23 827.27 1157.32 861.487 1151.65 877.733 C 1149.06 885.137 1146.57 888.559 1139.52 892.034 z"
     id="path52" />
  <path
     transform="translate(0,0)"
     fill="rgb(1,1,1)"
     d="M 1845.73 938.328 C 1828.77 931.738 1811.69 920.357 1795.59 911.638 C 1781.57 904.047 1766.05 897.331 1752.85 888.545 C 1749.61 886.392 1746.66 884.301 1745.01 880.674 C 1746.2 872.747 1772.6 826.073 1778.55 818.669 C 1787.41 819.073 1869.15 866.299 1878.87 873.126 C 1874.88 883.532 1852.41 932.641 1845.73 938.328 z M 1779.58 834.793 C 1771.56 849.32 1764.38 864.634 1755.2 878.467 C 1774.64 888.184 1793.51 899.003 1812.57 909.426 C 1821.83 914.487 1832.49 921.987 1842.63 924.625 C 1850.22 910.663 1858 896.812 1864.27 882.19 C 1843.46 882.655 1822.61 882.863 1801.85 884.45 C 1792.61 869.196 1790.23 848.788 1779.58 834.793 z"
     id="path53" />
  <path
     transform="translate(0,0)"
     fill="rgb(1,1,1)"
     d="M 776.79 881.639 C 775.371 881.504 773.469 881.384 772.207 880.636 C 770.93 879.88 769.929 878.627 769.651 877.18 C 768.401 870.674 789.34 831.221 794.188 823.661 C 797.434 824.179 799.769 825.332 801.79 827.906 C 801.543 835.857 782.355 874.461 776.79 881.639 z"
     id="path54" />
  <path
     transform="translate(0,0)"
     fill="rgb(254,254,254)"
     d="M 1755.2 878.467 C 1764.38 864.634 1771.56 849.32 1779.58 834.793 C 1790.23 848.788 1792.61 869.196 1801.85 884.45 C 1822.61 882.863 1843.46 882.655 1864.27 882.19 C 1858 896.812 1850.22 910.663 1842.63 924.625 C 1832.49 921.987 1821.83 914.487 1812.57 909.426 C 1793.51 899.003 1774.64 888.184 1755.2 878.467 z"
     id="path55" />
  <path
     transform="translate(0,0)"
     fill="rgb(1,1,1)"
     d="M 1504.5 905.592 C 1501.22 906.577 1497.67 905.679 1495.26 903.256 C 1492.85 900.833 1491.97 897.278 1492.96 894.008 C 1493.96 890.738 1496.68 888.284 1500.04 887.623 C 1504.89 886.668 1509.63 889.687 1510.82 894.483 C 1512.01 899.28 1509.23 904.167 1504.5 905.592 z"
     id="path56" />
  <path
     transform="translate(0,0)"
     fill="rgb(1,1,1)"
     d="M 1661.71 904.965 C 1658.41 905.975 1654.57 907.245 1651.08 907.004 C 1648.54 906.828 1647.39 906.045 1645.65 904.307 C 1645.95 902.547 1645.84 902.033 1647 900.56 C 1652.25 893.906 1662.94 893.419 1670.65 892.342 C 1671.64 892.177 1672.66 892.149 1673.66 892.084 C 1678.25 891.787 1682.45 891.199 1686.15 894.472 C 1686.72 897.004 1686.43 897.679 1685.68 900.203 C 1679.25 903.326 1668.95 903.34 1661.71 904.965 z"
     id="path57" />
  <path
     transform="translate(0,0)"
     fill="rgb(1,1,1)"
     d="M 1598.25 1000.3 L 1589 1001.78 C 1587.2 1001.31 1586.62 1001.04 1585.3 999.624 C 1583.91 998.146 1584.28 998.036 1584.28 996.186 C 1590.79 987.42 1618.88 985.024 1629.63 983.336 C 1633.61 982.874 1637.17 982.412 1641.14 983.074 C 1643.23 984.605 1643.43 984.71 1644.25 987.148 L 1643.1 989.346 C 1635.05 995.409 1609.38 997.652 1598.25 1000.3 z"
     id="path60" />
  <path
     transform="translate(0,0)"
     fill="rgb(1,1,1)"
     d="M 1759.18 1006.89 C 1746.39 1003.1 1731.7 1006.88 1719.55 1002.83 C 1716.99 1001.98 1716.42 1001.17 1715.41 998.778 C 1716.25 995.745 1717.18 995.233 1719.44 993.134 C 1728.99 992.969 1753.81 992.979 1761.4 997.899 C 1763.27 999.112 1763.27 999.773 1763.79 1001.81 C 1762.79 1004.57 1761.49 1005.27 1759.18 1006.89 z"
     id="path61" />
  <path
     fill="#010101"
     d="m 1009.1656,1064.1681 c -1.7,-0.3 -3.1,-0.83 -4.71,-1.43 -1.6,-2.29 -1.51,-2.23 -1.15,-5.01 7.02,-10.69 24.55,-20.65 35.48,-27.21 1.29,0.27 2.58,0.94 3.79,1.43 1.73,2.29 1.74,2.38 1.71,5.25 -4.5,8.99 -26.11,20.87 -35.12,26.97 z"
     id="path63" />
  <path
     transform="translate(0,0)"
     fill="rgb(1,1,1)"
     d="M 1449.05 1163.9 C 1434.28 1165.11 1418.91 1163.5 1405.85 1156.02 C 1394.09 1149.28 1385.2 1138.07 1382.07 1124.81 C 1378.44 1109.41 1381.78 1091.98 1390.54 1078.84 C 1401.99 1061.69 1420.44 1053.21 1440.04 1049.26 C 1454.59 1047.77 1471.07 1050.78 1483.53 1058.65 C 1495.43 1066.16 1503.72 1078.24 1506.46 1092.04 C 1509.3 1106.45 1506.56 1122.22 1498.2 1134.35 C 1486.65 1151.14 1468.67 1160.39 1449.05 1163.9 z M 1441.48 1062.36 C 1435.52 1063.1 1430.04 1064.16 1424.28 1065.86 C 1425.33 1078.91 1425.94 1091.98 1426.1 1105.07 L 1441.76 1100.06 C 1448.5 1097.75 1455.46 1095.66 1462.02 1092.91 C 1457.32 1083.07 1453.58 1070.23 1445.7 1062.58 C 1444.1 1062.3 1443.12 1062.17 1441.48 1062.36 z M 1471.19 1099.18 C 1456.46 1105.53 1440.59 1109.24 1425.12 1113.35 C 1416.36 1122.61 1407.89 1132.39 1401.74 1143.63 C 1410.17 1142.82 1418.27 1141.03 1426.52 1139.18 C 1449.55 1134.09 1474.85 1129.78 1497.02 1121.83 C 1490.54 1112.8 1480.67 1104.88 1471.19 1099.18 z"
     id="path67" />
  <path
     transform="translate(0,0)"
     fill="rgb(1,1,1)"
     d="M 1176.53 1156.28 C 1176.11 1158.54 1175.76 1160.96 1175.03 1163.15 C 1174.19 1165.68 1173.04 1166.5 1170.78 1167.7 L 1168.41 1166.59 C 1163.13 1159.62 1150.27 1116.46 1149 1106.57 C 1147.72 1096.68 1149.78 1088.19 1156.25 1080.51 C 1171.34 1062.59 1199.38 1054.73 1221.73 1052.41 C 1225.7 1052.09 1229.9 1051.73 1233.73 1053.07 C 1239.63 1055.13 1244.22 1061.35 1246.8 1066.76 C 1253.04 1079.82 1259.02 1115.21 1253.21 1128.42 C 1249.48 1136.89 1226.97 1130.39 1218.96 1130.31 C 1210.83 1130.22 1202.54 1131.69 1195.1 1135.01 C 1184.9 1139.55 1180.17 1146.2 1176.53 1156.28 z M 1218.57 1061.35 C 1197.38 1064.33 1177.12 1068.8 1163.17 1086.49 C 1158.32 1092.64 1157.84 1100.17 1158.86 1107.74 C 1159.88 1115.33 1165.83 1139.41 1170.76 1144.25 C 1173.69 1140.87 1176.5 1137.23 1180.09 1134.54 C 1203.58 1118.04 1218.91 1120.84 1245.77 1124.59 C 1246.63 1108.28 1246.56 1078.46 1234.92 1065.5 C 1232.04 1062.28 1229.14 1061.01 1224.84 1060.94 C 1222.74 1060.91 1220.65 1061.12 1218.57 1061.35 z"
     id="path68" />
  <path
     transform="translate(0,0)"
     fill="rgb(254,254,254)"
     d="M 1180.09 1134.54 C 1176.5 1137.23 1173.69 1140.87 1170.76 1144.25 C 1165.83 1139.41 1159.88 1115.33 1158.86 1107.74 C 1157.84 1100.17 1158.32 1092.64 1163.17 1086.49 C 1177.12 1068.8 1197.38 1064.33 1218.57 1061.35 C 1220.65 1061.12 1222.74 1060.91 1224.84 1060.94 C 1229.14 1061.01 1232.04 1062.28 1234.92 1065.5 C 1246.56 1078.46 1246.63 1108.28 1245.77 1124.59 C 1218.91 1120.84 1203.58 1118.04 1180.09 1134.54 z M 1201.24 1079.37 C 1197.45 1083.8 1197.09 1086.86 1196.77 1092.56 C 1192.1 1093.85 1187.06 1094.79 1183.01 1097.54 C 1182.26 1099.7 1182.49 1100.9 1182.96 1103.12 C 1184.68 1104.97 1185.57 1105.83 1188.22 1105.91 C 1192.33 1106.03 1196.47 1104.22 1200.4 1105.71 C 1201.79 1108.62 1203.14 1111.5 1204.31 1114.51 C 1207.21 1113.72 1208.57 1113.72 1210.63 1111.46 C 1210.94 1107.63 1210.72 1103.01 1213.87 1100.38 C 1216.5 1098.19 1219.94 1097.64 1221.48 1094.35 C 1221.04 1091.41 1220.96 1090.94 1219.06 1088.69 C 1216.05 1087.32 1213.08 1088.39 1209.98 1089.03 C 1205.17 1086.37 1207.37 1081.7 1201.24 1079.37 z"
     id="path69" />
  <path
     transform="translate(0,0)"
     fill="rgb(254,254,254)"
     d="M 1424.28 1065.86 C 1430.04 1064.16 1435.52 1063.1 1441.48 1062.36 C 1443.12 1062.17 1444.1 1062.3 1445.7 1062.58 C 1453.58 1070.23 1457.32 1083.07 1462.02 1092.91 C 1455.46 1095.66 1448.5 1097.75 1441.76 1100.06 L 1426.1 1105.07 C 1425.94 1091.98 1425.33 1078.91 1424.28 1065.86 z"
     id="path70" />
  <path
     transform="translate(0,0)"
     fill="rgb(1,1,1)"
     d="M 1196.77 1092.56 C 1197.09 1086.86 1197.45 1083.8 1201.24 1079.37 C 1207.37 1081.7 1205.17 1086.37 1209.98 1089.03 C 1213.08 1088.39 1216.05 1087.32 1219.06 1088.69 C 1220.96 1090.94 1221.04 1091.41 1221.48 1094.35 C 1219.94 1097.64 1216.5 1098.19 1213.87 1100.38 C 1210.72 1103.01 1210.94 1107.63 1210.63 1111.46 C 1208.57 1113.72 1207.21 1113.72 1204.31 1114.51 C 1203.14 1111.5 1201.79 1108.62 1200.4 1105.71 C 1196.47 1104.22 1192.33 1106.03 1188.22 1105.91 C 1185.57 1105.83 1184.68 1104.97 1182.96 1103.12 C 1182.49 1100.9 1182.26 1099.7 1183.01 1097.54 C 1187.06 1094.79 1192.1 1093.85 1196.77 1092.56 z"
     id="path72" />
  <path
     transform="translate(0,0)"
     fill="rgb(1,1,1)"
     d="M 1685.63 1211.51 C 1650.49 1216.55 1617.98 1191.94 1613.29 1156.75 C 1608.6 1121.56 1633.53 1089.3 1668.76 1084.96 C 1703.51 1080.68 1735.22 1105.18 1739.85 1139.88 C 1744.47 1174.59 1720.28 1206.54 1685.63 1211.51 z M 1672.96 1093.14 C 1653.2 1094.46 1635.67 1106.31 1627.07 1124.15 C 1618.47 1142 1620.13 1163.09 1631.42 1179.37 C 1642.7 1195.65 1661.87 1204.61 1681.6 1202.82 C 1711.6 1200.1 1733.84 1173.75 1731.47 1143.71 C 1729.11 1113.68 1703.02 1091.13 1672.96 1093.14 z"
     id="path73" />
  <path
     transform="translate(0,0)"
     fill="rgb(254,254,254)"
     d="M 1681.6 1202.82 C 1661.87 1204.61 1642.7 1195.65 1631.42 1179.37 C 1620.13 1163.09 1618.47 1142 1627.07 1124.15 C 1635.67 1106.31 1653.2 1094.46 1672.96 1093.14 C 1703.02 1091.13 1729.11 1113.68 1731.47 1143.71 C 1733.84 1173.75 1711.6 1200.1 1681.6 1202.82 z M 1660.45 1102.21 C 1656.6 1104.58 1654.01 1106.93 1653 1111.5 C 1652.19 1115.16 1653.15 1118.88 1655.36 1121.86 C 1657.5 1124.75 1661.24 1127.37 1664.85 1127.91 C 1667.03 1128.23 1669.43 1127.82 1671.61 1127.55 C 1675.56 1125.04 1678.91 1122.83 1679.99 1117.95 C 1680.69 1114.79 1680.06 1111.63 1678.32 1108.94 C 1676.07 1105.46 1671.89 1102.6 1667.78 1101.94 C 1665.4 1101.57 1662.82 1101.95 1660.45 1102.21 z M 1706.02 1124.2 C 1702.57 1125.22 1700.29 1125.98 1698.4 1129.36 C 1696.61 1132.55 1696.11 1136.69 1697.3 1140.16 C 1698.26 1142.97 1700.2 1145.67 1702.91 1146.97 C 1705.52 1148.23 1708.47 1148.07 1711.24 1147.65 C 1715.49 1145.22 1719.31 1142.76 1720.83 1137.83 C 1721.73 1134.92 1721.34 1131.9 1719.58 1129.38 C 1716.91 1125.55 1713.63 1124.84 1709.32 1124.44 C 1708.22 1124.35 1707.12 1124.27 1706.02 1124.2 z M 1645.14 1143.19 C 1639.8 1144.76 1636.72 1150.32 1638.22 1155.68 C 1639.72 1161.03 1645.25 1164.19 1650.63 1162.75 C 1654.16 1161.8 1656.91 1159.03 1657.83 1155.49 C 1658.75 1151.95 1657.69 1148.19 1655.07 1145.64 C 1652.44 1143.1 1648.65 1142.16 1645.14 1143.19 z M 1691.82 1158.99 C 1688.93 1163.33 1687.45 1166.64 1688.32 1171.95 C 1688.86 1175.26 1690.58 1178.38 1693.45 1180.26 C 1697.15 1182.69 1700.38 1182.36 1704.51 1181.41 C 1707.36 1178.15 1709.14 1175.69 1708.89 1171.12 C 1708.66 1167.08 1706.85 1163.85 1703.65 1161.39 C 1699.88 1158.5 1696.36 1158.38 1691.82 1158.99 z"
     id="path74" />
  <path
     transform="translate(0,0)"
     fill="rgb(254,254,254)"
     d="M 1425.12 1113.35 C 1440.59 1109.24 1456.46 1105.53 1471.19 1099.18 C 1480.67 1104.88 1490.54 1112.8 1497.02 1121.83 C 1474.85 1129.78 1449.55 1134.09 1426.52 1139.18 C 1418.27 1141.03 1410.17 1142.82 1401.74 1143.63 C 1407.89 1132.39 1416.36 1122.61 1425.12 1113.35 z"
     id="path75" />
  <path
     transform="translate(0,0)"
     fill="rgb(1,1,1)"
     d="M 1671.61 1127.55 C 1669.43 1127.82 1667.03 1128.23 1664.85 1127.91 C 1661.24 1127.37 1657.5 1124.75 1655.36 1121.86 C 1653.15 1118.88 1652.19 1115.16 1653 1111.5 C 1654.01 1106.93 1656.6 1104.58 1660.45 1102.21 C 1662.82 1101.95 1665.4 1101.57 1667.78 1101.94 C 1671.89 1102.6 1676.07 1105.46 1678.32 1108.94 C 1680.06 1111.63 1680.69 1114.79 1679.99 1117.95 C 1678.91 1122.83 1675.56 1125.04 1671.61 1127.55 z M 1666.36 1109.27 C 1663.92 1111.57 1662.82 1112.14 1662.02 1115.47 C 1663.93 1118.16 1665.28 1118.37 1668.26 1119.64 C 1670.41 1117.06 1671.19 1116.58 1671.54 1113.15 C 1669.96 1110.81 1668.98 1110.26 1666.36 1109.27 z"
     id="path76" />
  <path
     transform="translate(0,0)"
     fill="rgb(254,254,254)"
     d="M 1668.26 1119.64 C 1665.28 1118.37 1663.93 1118.16 1662.02 1115.47 C 1662.82 1112.14 1663.92 1111.57 1666.36 1109.27 C 1668.98 1110.26 1669.96 1110.81 1671.54 1113.15 C 1671.19 1116.58 1670.41 1117.06 1668.26 1119.64 z"
     id="path77" />
  <path
     transform="translate(0,0)"
     fill="rgb(1,1,1)"
     d="M 1711.24 1147.65 C 1708.47 1148.07 1705.52 1148.23 1702.91 1146.97 C 1700.2 1145.67 1698.26 1142.97 1697.3 1140.16 C 1696.11 1136.69 1696.61 1132.55 1698.4 1129.36 C 1700.29 1125.98 1702.57 1125.22 1706.02 1124.2 C 1707.12 1124.27 1708.22 1124.35 1709.32 1124.44 C 1713.63 1124.84 1716.91 1125.55 1719.58 1129.38 C 1721.34 1131.9 1721.73 1134.92 1720.83 1137.83 C 1719.31 1142.76 1715.49 1145.22 1711.24 1147.65 z"
     id="path78" />
  <path
     transform="translate(0,0)"
     fill="rgb(1,1,1)"
     d="M 1650.63 1162.75 C 1645.25 1164.19 1639.72 1161.03 1638.22 1155.68 C 1636.72 1150.32 1639.8 1144.76 1645.14 1143.19 C 1648.65 1142.16 1652.44 1143.1 1655.07 1145.64 C 1657.69 1148.19 1658.75 1151.95 1657.83 1155.49 C 1656.91 1159.03 1654.16 1161.8 1650.63 1162.75 z"
     id="path81" />
  <path
     transform="translate(0,0)"
     fill="rgb(1,1,1)"
     d="M 1704.51 1181.41 C 1700.38 1182.36 1697.15 1182.69 1693.45 1180.26 C 1690.58 1178.38 1688.86 1175.26 1688.32 1171.95 C 1687.45 1166.64 1688.93 1163.33 1691.82 1158.99 C 1696.36 1158.38 1699.88 1158.5 1703.65 1161.39 C 1706.85 1163.85 1708.66 1167.08 1708.89 1171.12 C 1709.14 1175.69 1707.36 1178.15 1704.51 1181.41 z"
     id="path84" />
  <path
     transform="translate(0,0)"
     fill="rgb(1,1,1)"
     d="M 1238.47 1230.17 C 1149.61 1234.49 1062.17 1255.88 979.295 1287.96 C 962.578 1294.43 945.738 1301.14 929.406 1308.51 C 917.197 1314.02 904.664 1321.66 891.677 1324.93 C 889.656 1324.46 888.868 1324.15 887.461 1322.61 C 887.747 1320.69 887.536 1320.46 888.921 1318.89 C 895.706 1311.2 919.922 1303.05 929.65 1298.78 C 1025.43 1256.79 1126.5 1228.07 1231.1 1221.42 C 1231.37 1221.37 1231.64 1221.31 1231.91 1221.29 C 1245.68 1219.93 1260.23 1220.57 1274.05 1220.79 C 1365.78 1222.29 1455.76 1244.91 1541.13 1277.53 C 1555.45 1283 1584.49 1293.37 1595.8 1302.49 C 1596.7 1304.65 1596.59 1304.73 1595.94 1307.01 C 1593.83 1308.62 1593.36 1309.01 1590.55 1308.86 C 1585.83 1308.61 1549.54 1291.22 1541.37 1288.03 C 1467.81 1259.24 1389.03 1237.17 1310 1231.34 C 1286.12 1229.58 1262.4 1229.86 1238.47 1230.17 z"
     id="path85" />
  <path
     transform="translate(0,0)"
     fill="rgb(1,1,1)"
     d="M 1312.33 1335.96 C 1269.93 1322.83 1227.28 1311.48 1182.51 1311.87 C 1135.43 1312.27 1087.01 1321.01 1042.17 1335.03 C 1032.27 1338.13 995.3 1353.81 987.8 1352.01 C 986.215 1349.59 986.095 1349.64 986.48 1346.8 C 991.739 1340.78 1000.91 1339.82 1008.12 1337.16 C 1058.16 1318.72 1107.39 1307.55 1160.55 1303.43 C 1168.71 1302.73 1177.44 1303.21 1185.65 1303.29 C 1263.76 1304.02 1339.66 1331.4 1408.47 1366.75 C 1421.54 1373.47 1436.73 1380.07 1448.66 1388.45 C 1452.58 1391.2 1457.04 1394.79 1457.85 1399.76 L 1456.61 1400.97 C 1446.41 1401.04 1415.63 1381.19 1404.74 1375.56 C 1374.88 1360.26 1344 1347.03 1312.33 1335.96 z"
     id="path86" />
  <g
     id="g88"
     transform="translate(-56,-52)">
    <path
       fill="#010101"
       d="m 954.14249,1062.4386 c -1.28,0.42 -2.641,0.93 -3.991,1.09 -2.473,0.29 -4.521,-0.25 -6.49,-1.76 -2.749,-4.92 0.595,-10.04 -0.932,-14.92 -0.105,-0.33 -0.974,-2.52 -1.468,-2.89 -2.334,-1.76 -16.903,-1.2 -22.006,-4.63 -8.617,-5.8 -16.213,-15.836 -17.727,-26.209 -1.31,-8.477 1.044,-17.10999 6.474,-23.74899 7.921,-9.849 18.814,-13.699 30.889,-15.201 6.753,-0.836 13.956,-0.037 20.418,2.142 11.049,3.725 20.034,11.906 24.774,22.56 4.907,11.20199 5.039,26.09599 0.424,37.51699 -2.078,5.14 -5.52,9.48 -10.758,11.6 -7.128,2.89 -12.497,-0.71 -18.975,-3.57 1.445,3.26 3.671,7.21 3.513,10.88 -0.135,3.12 -2.141,5.04 -4.145,7.14 z m -18.547,-58.513 c -3.74,0.744 -6.372,1.514 -8.535,4.883 -2.286,3.561 -3.751,8.419 -2.698,12.626 0.771,3.075 2.319,4.78 4.626,6.833 8.83,1.64 15.782,-11.767 23.694,-2.076 1.663,2.408 2.109,2.576 4.819,3.753 2.346,-0.341 3.642,-0.356 5.188,-2.445 1.797,-2.43 1.633,-6.57 0.798,-9.349 -1.328,-4.424 -5.097,-8.001 -9.159,-9.985 -5.252,-2.566 -12.855,-4.371 -18.733,-4.24 z"
       id="path58" />
    <path
       fill="#fefefe"
       d="m 952.68249,1026.1916 c -7.912,-9.691 -14.864,3.716 -23.694,2.076 -2.307,-2.053 -3.855,-3.758 -4.626,-6.833 -1.053,-4.207 0.412,-9.065 2.698,-12.626 2.163,-3.369 4.795,-4.139 8.535,-4.883 5.878,-0.131 13.481,1.674 18.733,4.24 4.062,1.984 7.831,5.561 9.159,9.985 0.835,2.779 0.999,6.919 -0.798,9.349 -1.546,2.089 -2.842,2.104 -5.188,2.445 -2.71,-1.177 -3.156,-1.345 -4.819,-3.753 z"
       id="path59" />
    <path
       fill="#010101"
       d="m 274.745,1563.73 c 28.006,-26.53 54.579,-54.12 78.583,-84.41 81.108,-102.33 147.832,-243.57 162.723,-373.69 1.711,-14.95 4.867,-32.73 2.283,-47.6 -2.597,-14.96 -15.922,-25.86 -13.59,-42.18 0.973,-6.8 4.219,-10.88 9.609,-14.88 3.553,-0.18 5.924,0.14 9.245,1.31 76.449,26.88 165.225,125.89 216.705,188.95 13.588,16.64 26.361,34.01 39.687,50.87 27.745,35.1 56.237,69.93 81.049,107.2 27.088,40.7 52.34,84.17 73.225,128.37 8.014,16.96 32.436,68.8 25.632,85.95 -1.447,3.65 -4.198,6.62 -7.876,8.08 -16.049,6.34 -35.588,-20.62 -48.977,-26.46 -29.75,3.24 -59.343,6.05 -88.823,11.45 -118.825,21.79 -231.884,72.93 -331.223,141.09 -22.495,15.44 -48.64,31.99 -69.138,49.82 l -1.09,0.96 c 8.421,15.26 7.237,22.2 2.884,38.89 1.063,2.86 1.657,5.92 2.37,8.89 8.342,0.74 17.963,1.27 25.27,5.72 7.613,4.65 9.705,11.51 11.568,19.65 -1.926,7.09 -5.044,14 -7.675,20.87 11.597,28.86 28.946,64.98 49.91,88.27 4.707,4.68 10.056,6.48 15.616,9.78 4.372,2.59 7.957,5.9 9.012,11.08 1.49,7.31 -2.544,14.97 -6.583,20.76 -14.428,20.67 -45.308,47.89 -70.624,52.42 -11.639,-13.61 -21.436,-29.56 -32.11,-44 -30.115,-40.75 -65.977,-82.42 -109.575,-109.07 -8.361,6.44 -16.851,13.03 -27.552,14.91 -9.623,1.72 -19.534,-0.49 -27.508,-6.15 -15.172,8.19 -30.703,12.6 -47.977,10.13 -31.352,-4.49 -46.378,-29.01 -64.223,-52.23 -8.132,-10.58 -16.914,-20.72 -24.82,-31.46 -11.8942,-16.17 -16.3879,-37.13 -13.1048,-56.86 2.4128,-14.49 9.5498,-29.59 21.6238,-38.34 -6.346,-11.37 -9.792,-21.97 -5.947,-34.96 1.677,-5.67 4.169,-9 8.233,-13.16 16.507,-16.93 37.716,-31.36 56.104,-46.31 16.377,-13.32 48.442,-42.81 65.913,-51.72 10.424,-5.32 20.299,-5.68 31.171,-1.94 z m 241.599,-552.22 c -2.721,6.9 -0.262,13.72 2.6,20.23 10.404,23.67 32.873,58.63 46.815,81.22 40.008,64.15 83.334,126.16 129.801,185.78 58.255,76.02 118.994,149.05 189.057,214.59 13.466,12.6 42.582,40.04 58.784,46.39 1.238,0.48 1.673,0.57 3.047,0.97 2.241,-1.07 2.672,-1.21 3.448,-3.76 1.254,-4.12 -0.469,-9.06 -2.798,-12.44 -3.428,-4.98 -8.309,-8.05 -13.209,-11.39 -55.62,-43.17 -103.189,-97.14 -147.943,-151.14 -8.276,-9.99 -16.738,-19.89 -24.686,-30.13 -8.567,-11.05 -16.409,-23.28 -26.819,-32.68 4.927,-4.75 9.194,-8.81 9.22,-16.19 0.025,-6.79 -4.417,-13.89 -9.226,-18.37 -4.545,-4.24 -13.334,-10.53 -19.88,-10.47 -0.277,0 -0.55,0.06 -0.825,0.09 -1.154,1.82 -1.127,1.03 -0.773,2.9 1.329,7.05 8.677,12.34 9.772,19.65 l -1.311,1.2 c -13.989,-4.1 -140.088,-191.56 -156.672,-217.14 -13.337,-20.57 -24.677,-44.11 -39.54,-63.51 -2.411,-3.15 -4.78,-5.22 -8.862,-5.8 z m 28.062,13.89 c 32.755,55.66 69.47,109.68 106.978,162.25 11.201,15.7 22.324,34.37 35.796,48.11 8.483,-5.92 15.185,-13.73 23.945,-19.36 10.089,6.76 87.373,100.09 88.3,108.16 0.253,2.2 -3.216,5.7 -4.686,7.14 -6.461,6.33 -14.061,11.86 -21.107,17.54 32.957,39.92 65.914,79.31 102.323,116.22 13.062,13.24 26.914,25.69 40.528,38.35 7.886,6.88 15.832,13.69 23.838,20.43 -5.931,-22.83 -17.83,-45.02 -28.71,-65.87 -19.367,-37.13 -40.706,-74.75 -64.516,-109.2 -22.761,-32.93 -47.889,-63.54 -72.622,-94.93 -12.673,-16.08 -24.565,-32.81 -37.403,-48.74 -45.795,-56.85 -118.663,-137.46 -181.155,-174.25 -3.704,-2.19 -7.363,-4.64 -11.509,-5.85 z m -14.335,52.15 c -2.457,34.04 -7.618,67.83 -15.435,101.05 -34.353,142.03 -123.525,298.63 -233.329,395.55 4.642,7.62 10.18,14.5 15.687,21.5 8.594,-5.82 20.589,-16.26 31.082,-16.32 l 0.924,0.43 c 0.398,3.2 -1.499,6.05 -3.36,8.53 -5.401,7.18 -13.095,12.06 -19.638,18.08 9.428,16.09 22.106,30.19 33.338,45.01 5.564,-5.98 22.68,-20.22 30.779,-20.61 1.474,-0.08 1.586,0.01 2.857,0.27 1.247,1.65 1.44,1.15 1.116,2.93 -1.822,10.01 -21.01,20.97 -28.786,26.29 3.971,5.69 8.331,10.43 13.613,14.95 8.901,-5.6 25.672,-19.9 35.116,-21.68 2.722,1.28 3.089,1.16 4.338,3.85 -1.789,8.25 -15.891,16.91 -22.636,21.27 -3.208,2.03 -6.462,3.99 -9.761,5.86 5.975,13.58 28.949,42.35 39.401,53.53 18.639,-13.4 37.397,-26.64 56.269,-39.71 108.654,-73.72 225.026,-131.56 355.605,-154.1 25.196,-4.35 52.33,-9.11 77.92,-7.4 -95.441,-81.53 -175.104,-182.78 -248.3,-284.19 -16.794,-23.26 -33.918,-46.2 -50.018,-69.97 -13.751,-20.19 -27.064,-40.67 -39.93,-61.43 -8.801,-14.37 -17.024,-30.06 -26.852,-43.69 z M 126.705,1720.7 c -11.807,11.73 -17.827,25.37 -17.976,42.19 -0.08,8.95 1.542,17.8 5.358,25.95 6.166,13.16 47.343,64.64 57.983,75.26 10.522,10.51 24.281,15.79 39.108,15.66 2.946,-0.02 5.875,-0.46 8.782,-0.91 7.285,-1.8 13.595,-4.12 20.016,-8.11 -7.925,-13 -18.386,-24.96 -27.512,-37.2 L 155.68,1758.3 c -8.549,-11.12 -18.982,-28.25 -28.975,-37.6 z m 275.329,71.37 c -16.34,11.3 -31.652,24.04 -47.149,36.46 -13.94,11.17 -28.328,22.18 -41.59,34.14 59.105,45.84 84.632,79.2 128.876,138.8 2.954,3.48 5.811,7.05 9.164,10.15 16.48,-9 52.87,-36.18 58.75,-54.29 0.377,-1.16 0.476,-2.27 0.584,-3.48 -5.466,-4.17 -12.427,-5.58 -17.448,-10.4 -16.274,-15.63 -55.198,-77.33 -57.298,-98.84 -0.849,-8.69 10.488,-25.06 4.073,-31.16 -7.372,-7.01 -20.452,-1.18 -28.417,-7.06 -4.916,-3.63 -5.515,-10.66 -9.545,-14.32 z"
       id="path62" />
    <path
       fill="#010101"
       d="m 763.57566,1093.8175 -3.177,-0.7 c -1.593,-1.84 -2.461,-2.48 -2.08,-5.13 1.634,-11.35 42.299,-48.99 52.614,-58.89 0.809,0.27 1.757,0.56 2.503,0.96 2.615,1.41 2.876,1.86 3.717,4.53 -2.314,6.32 -46.686,52.87 -53.577,59.23 z"
       id="path64" />
    <path
       fill="#fefefe"
       d="m 933.889,1533.1 c 4.9,3.34 9.781,6.41 13.209,11.39 2.329,3.38 4.052,8.32 2.798,12.44 -0.776,2.55 -1.207,2.69 -3.448,3.76 -1.374,-0.4 -1.809,-0.49 -3.047,-0.97 -16.202,-6.35 -45.318,-33.79 -58.784,-46.39 -70.063,-65.54 -130.802,-138.57 -189.057,-214.59 -46.467,-59.62 -89.793,-121.63 -129.801,-185.78 -13.942,-22.59 -36.411,-57.55 -46.815,-81.22 -2.862,-6.51 -5.321,-13.33 -2.6,-20.23 4.082,0.58 6.451,2.65 8.862,5.8 14.863,19.4 26.203,42.94 39.54,63.51 16.584,25.58 142.683,213.04 156.672,217.14 l 1.311,-1.2 c -1.095,-7.31 -8.443,-12.6 -9.772,-19.65 -0.354,-1.87 -0.381,-1.08 0.773,-2.9 0.275,-0.03 0.548,-0.09 0.825,-0.09 6.546,-0.06 15.335,6.23 19.88,10.47 4.809,4.48 9.251,11.58 9.226,18.37 -0.026,7.38 -4.293,11.44 -9.22,16.19 10.41,9.4 18.252,21.63 26.819,32.68 7.948,10.24 16.41,20.14 24.686,30.13 44.754,54 92.323,107.97 147.943,151.14 z"
       id="path65" />
    <path
       fill="#fefefe"
       d="m 687.18,1235.76 c -13.472,-13.74 -24.595,-32.41 -35.796,-48.11 -37.508,-52.57 -74.223,-106.59 -106.978,-162.25 4.146,1.21 7.805,3.66 11.509,5.85 62.492,36.79 135.36,117.4 181.155,174.25 12.838,15.93 24.73,32.66 37.403,48.74 24.733,31.39 49.861,62 72.622,94.93 23.81,34.45 45.149,72.07 64.516,109.2 10.88,20.85 22.779,43.04 28.71,65.87 -8.006,-6.74 -15.952,-13.55 -23.838,-20.43 -13.614,-12.66 -27.466,-25.11 -40.528,-38.35 -36.409,-36.91 -69.366,-76.3 -102.323,-116.22 7.046,-5.68 14.646,-11.21 21.107,-17.54 1.47,-1.44 4.939,-4.94 4.686,-7.14 -0.927,-8.07 -78.211,-101.4 -88.3,-108.16 -8.76,5.63 -15.462,13.44 -23.945,19.36 z"
       id="path66" />
    <path
       fill="#fefefe"
       d="m 281.307,1574.15 c 109.804,-96.92 198.976,-253.52 233.329,-395.55 7.817,-33.22 12.978,-67.01 15.435,-101.05 9.828,13.63 18.051,29.32 26.852,43.69 12.866,20.76 26.179,41.24 39.93,61.43 16.1,23.77 33.224,46.71 50.018,69.97 73.196,101.41 152.859,202.66 248.3,284.19 -25.59,-1.71 -52.724,3.05 -77.92,7.4 -130.579,22.54 -246.951,80.38 -355.605,154.1 -18.872,13.07 -37.63,26.31 -56.269,39.71 -10.452,-11.18 -33.426,-39.95 -39.401,-53.53 3.299,-1.87 6.553,-3.83 9.761,-5.86 6.745,-4.36 20.847,-13.02 22.636,-21.27 -1.249,-2.69 -1.616,-2.57 -4.338,-3.85 -9.444,1.78 -26.215,16.08 -35.116,21.68 -5.282,-4.52 -9.642,-9.26 -13.613,-14.95 7.776,-5.32 26.964,-16.28 28.786,-26.29 0.324,-1.78 0.131,-1.28 -1.116,-2.93 -1.271,-0.26 -1.383,-0.35 -2.857,-0.27 -8.099,0.39 -25.215,14.63 -30.779,20.61 -11.232,-14.82 -23.91,-28.92 -33.338,-45.01 6.543,-6.02 14.237,-10.9 19.638,-18.08 1.861,-2.48 3.758,-5.33 3.36,-8.53 l -0.924,-0.43 c -10.493,0.06 -22.488,10.5 -31.082,16.32 -5.507,-7 -11.045,-13.88 -15.687,-21.5 z"
       id="path71" />
    <path
       fill="#010101"
       d="m 816.37822,1206.8075 c -0.763,-0.18 -1.677,-0.36 -2.387,-0.68 -2.264,-1 -2.672,-1.4 -3.47,-3.57 2.147,-9.42 30.037,-42.62 38.149,-49.46 0.951,0.32 2.778,0.78 3.642,1.42 2.25,1.64 2.203,2.49 2.52,5.04 -4.469,9.07 -30.345,41.12 -38.454,47.25 z"
       id="path79" />
    <path
       fill="#010101"
       d="m 982.85339,1266.4325 c -10.081,0.08 -20.818,-0.1 -29.303,-6.36 -4.818,-3.56 -7.677,-8.78 -8.334,-14.71 -0.967,-8.72 2.506,-17.74 8.138,-24.32 8.306,-9.71 19.552,-13.46 31.881,-14.46 8.44,-0.68 17.88901,0.2 25.26401,4.7 5.397,3.3 9.077,8.35 10.347,14.57 1.57,7.62 -0.37,15.57 -4.68,21.97 -7.964,11.86 -20.00001,16.05 -33.31301,18.61 z m -2.692,-53.03 c -11.065,3.61 -21.505,8.66 -26.85,19.75 -2.271,4.71 -3.133,10.15 -1.166,15.12 1.95,4.93 6.48,8.25 11.329,10.03 6.979,2.57 14.371,2.63 21.634,1.65 10.877,-3.06 21.55501,-7.89 27.28401,-18.26 2.544,-4.61 3.584,-10.08 1.924,-15.16 -1.65,-5.09 -5.637,-8.73 -10.396,-10.94 -7.67001,-3.54 -15.61701,-2.86 -23.75901,-2.19 z"
       id="path80" />
    <path
       fill="#fefefe"
       d="m 985.10839,1259.9525 c -7.263,0.98 -14.655,0.92 -21.634,-1.65 -4.849,-1.78 -9.379,-5.1 -11.329,-10.03 -1.967,-4.97 -1.105,-10.41 1.166,-15.12 5.345,-11.09 15.785,-16.14 26.85,-19.75 8.142,-0.67 16.089,-1.35 23.75901,2.19 4.759,2.21 8.746,5.85 10.396,10.94 1.66,5.08 0.62,10.55 -1.924,15.16 -5.729,10.37 -16.40701,15.2 -27.28401,18.26 z m -4.873,-33.87 c -2.397,2.87 -4.747,5.61 -4.486,9.63 0.205,3.15 2.071,5.56 4.538,7.35 2.021,1.46 4.522,2.29 6.872,3.06 2.211,-3.22 4.759,-6.94 4.116,-11.1 -0.466,-3.01 -1.959,-5.44 -4.628,-7.01 -1.878,-1.11 -4.297,-1.49 -6.412,-1.93 z"
       id="path82" />
    <path
       fill="#010101"
       d="m 987.15939,1246.1225 c -2.35,-0.77 -4.851,-1.6 -6.872,-3.06 -2.467,-1.79 -4.333,-4.2 -4.538,-7.35 -0.261,-4.02 2.089,-6.76 4.486,-9.63 2.115,0.44 4.534,0.82 6.412,1.93 2.669,1.57 4.162,4 4.628,7.01 0.643,4.16 -1.905,7.88 -4.116,11.1 z"
       id="path83" />
    <path
       fill="#fefefe"
       d="m 219.96,1878.85 c -2.907,0.45 -5.836,0.89 -8.782,0.91 -14.827,0.13 -28.586,-5.15 -39.108,-15.66 -10.64,-10.62 -51.817,-62.1 -57.983,-75.26 -3.816,-8.15 -5.438,-17 -5.358,-25.95 0.149,-16.82 6.169,-30.46 17.976,-42.19 9.993,9.35 20.426,26.48 28.975,37.6 l 56.784,75.24 c 9.126,12.24 19.587,24.2 27.512,37.2 -6.421,3.99 -12.731,6.31 -20.016,8.11 z"
       id="path87" />
    <path
       fill="#fefefe"
       d="m 313.295,1862.67 c 13.262,-11.96 27.65,-22.97 41.59,-34.14 15.497,-12.42 30.809,-25.16 47.149,-36.46 4.03,3.66 4.629,10.69 9.545,14.32 7.965,5.88 21.045,0.05 28.417,7.06 6.415,6.1 -4.922,22.47 -4.073,31.16 2.1,21.51 41.024,83.21 57.298,98.84 5.021,4.82 11.982,6.23 17.448,10.4 -0.108,1.21 -0.207,2.32 -0.584,3.48 -5.88,18.11 -42.27,45.29 -58.75,54.29 -3.353,-3.1 -6.21,-6.67 -9.164,-10.15 -44.244,-59.6 -69.771,-92.96 -128.876,-138.8 z"
       id="path88" />
  </g>
</svg>
